<?xml version="1.0" encoding="utf-8"?>
<!-- Generator: Adobe Illustrator 23.0.3, SVG Export Plug-In . SVG Version: 6.00 Build 0)  -->
<svg version="1.1" id="Layer_1" xmlns="http://www.w3.org/2000/svg" xmlns:xlink="http://www.w3.org/1999/xlink" x="0px" y="0px"
	 viewBox="0 0 595.28 841.89" style="enable-background:new 0 0 595.28 841.89;" xml:space="preserve">
<style type="text/css">
	.st0{fill:#6B6B6A;}
	.st1{fill:#005C97;}
	.st2{fill:none;stroke:#000000;stroke-width:22;stroke-miterlimit:10;}
</style>
<polygon class="st0" points="330.15,393.77 329.68,393.77 330.25,393.2 330.25,393.2 330.25,393.2 330.25,393.2 329.12,392.07 
	329.85,392.59 330.25,393.2 "/>
<polyline class="st0" points="329.12,393.2 329.12,390.62 330.25,392.07 330.23,393.58 325.33,383.23 325.73,381.91 "/>
<path class="st0" d="M330.25,393.2L330.25,393.2L330.25,393.2L330.25,393.2L330.25,393.2l-4.52-9.03v-2.26
	C325.73,381.91,331.38,392.07,330.25,393.2z"/>
<path class="st1" d="M358.59,469.35l-106.98,0.9c-1.34,0-2.25-1.36-1.73-2.6l54.55-128.71c0.63-1.52,2.8-1.5,3.42,0.02l17.68,43.09
	l0,0l4.56,11.14l13.61-33.78l-13.6,33.77l20.69,50.42l4.72,11.51l4.78,11.66C360.79,467.99,359.9,469.34,358.59,469.35z
	 M396.35,482.71l-11.72-27.59l-5-11.76l-35.73-84.05l0-0.01l-4.52-10.62l0,0l-23.88-56.19c-0.29-0.69-0.96-1.14-1.72-1.14
	c-0.75,0-1.41,0.45-1.71,1.13l-83.2,192.81h165.76C395.96,485.29,396.87,483.93,396.35,482.71z"/>
<path class="st0" d="M414.77,453.59l-57.65-141.1c-0.21-0.51-0.69-0.84-1.22-0.84c-0.53,0-1.01,0.33-1.21,0.83l-15.18,36.58
	l4.53,10.63l5.19-12.75c0.46-1.13,2-1.12,2.45,0.01l37.39,94.81c0.36,0.91-0.27,1.9-1.21,1.9l-8.09,0.07L350.91,444l-39.35,0.35
	c-0.95,0.01-1.61-1.01-1.23-1.92l19.84-48.71l0.06-0.14l-4.57-11.14l-30.31,73.07h118.2C414.5,455.51,415.14,454.5,414.77,453.59z"
	/>
<circle class="st2" cx="313.31" cy="406.22" r="133.79"/>
</svg>
