<?xml version="1.0" encoding="UTF-8" standalone="no"?>
<!-- Generator: Adobe Illustrator 23.0.3, SVG Export Plug-In . SVG Version: 6.00 Build 0)  -->

<svg
   xmlns:dc="http://purl.org/dc/elements/1.1/"
   xmlns:cc="http://creativecommons.org/ns#"
   xmlns:rdf="http://www.w3.org/1999/02/22-rdf-syntax-ns#"
   xmlns:svg="http://www.w3.org/2000/svg"
   xmlns="http://www.w3.org/2000/svg"
   xmlns:sodipodi="http://sodipodi.sourceforge.net/DTD/sodipodi-0.dtd"
   xmlns:inkscape="http://www.inkscape.org/namespaces/inkscape"
   version="1.1"
   id="Layer_1"
   x="0px"
   y="0px"
   viewBox="0 0 289.57997 289.57998"
   xml:space="preserve"
   sodipodi:docname="delta C1.svg"
   width="289.57999"
   height="289.57999"
   inkscape:version="0.92.3 (2405546, 2018-03-11)"><metadata
   id="metadata21"><rdf:RDF><cc:Work
       rdf:about=""><dc:format>image/svg+xml</dc:format><dc:type
         rdf:resource="http://purl.org/dc/dcmitype/StillImage" /><dc:title></dc:title></cc:Work></rdf:RDF></metadata><defs
   id="defs19" /><sodipodi:namedview
   pagecolor="#ffffff"
   bordercolor="#666666"
   borderopacity="1"
   objecttolerance="10"
   gridtolerance="10"
   guidetolerance="10"
   inkscape:pageopacity="0"
   inkscape:pageshadow="2"
   inkscape:window-width="1863"
   inkscape:window-height="1016"
   id="namedview17"
   showgrid="false"
   inkscape:zoom="0.28032165"
   inkscape:cx="129.12001"
   inkscape:cy="130.06499"
   inkscape:window-x="57"
   inkscape:window-y="27"
   inkscape:window-maximized="1"
   inkscape:current-layer="Layer_1"
   fit-margin-top="0"
   fit-margin-left="0"
   fit-margin-right="0"
   fit-margin-bottom="0" />
<style
   type="text/css"
   id="style2">
	.st0{fill:#6B6B6A;}
	.st1{fill:#005C97;}
	.st2{fill:none;stroke:#000000;stroke-width:22;stroke-miterlimit:10;}
</style>
<polygon
   class="st0"
   points="330.25,393.2 330.25,393.2 330.25,393.2 330.25,393.2 329.12,392.07 329.85,392.59 330.25,393.2 330.15,393.77 329.68,393.77 "
   id="polygon4"
   style="fill:#6b6b6a"
   transform="translate(-168.52,-261.43001)" />
<polyline
   class="st0"
   points="329.12,393.2 329.12,390.62 330.25,392.07 330.23,393.58 325.33,383.23 325.73,381.91 "
   id="polyline6"
   style="fill:#6b6b6a"
   transform="translate(-168.52,-261.43001)" />
<path
   class="st0"
   d="m 161.73,131.76999 v 0 0 0 0 l -4.52,-9.03 v -2.26 c 0,0 5.65,10.16 4.52,11.29 z"
   id="path8"
   inkscape:connector-curvature="0"
   style="fill:#6b6b6a" />
<path
   class="st1"
   d="m 190.07,207.91999 -106.980004,0.9 c -1.34,0 -2.25,-1.36 -1.73,-2.6 L 135.91,77.509992 c 0.63,-1.52 2.8,-1.5 3.42,0.02 l 17.68,43.089998 v 0 l 4.56,11.14 13.61,-33.779998 -13.6,33.769998 20.69,50.42 4.72,11.51 4.78,11.66 c 0.5,1.22 -0.39,2.57 -1.7,2.58 z m 37.76,13.36 -11.72,-27.59 -5,-11.76 -35.73,-84.049998 v -0.01 l -4.52,-10.62 v 0 l -23.88,-56.19 c -0.29,-0.69 -0.96,-1.14 -1.72,-1.14 -0.75,0 -1.41,0.45 -1.71,1.13 L 60.349996,223.85999 H 226.11 c 1.33,0 2.24,-1.36 1.72,-2.58 z"
   id="path10"
   inkscape:connector-curvature="0"
   style="fill:#005c97" />
<path
   class="st0"
   d="M 246.25,192.15999 188.6,51.059992 c -0.21,-0.51 -0.69,-0.84 -1.22,-0.84 -0.53,0 -1.01,0.33 -1.21,0.83 l -15.18,36.58 4.53,10.63 5.19,-12.75 c 0.46,-1.13 2,-1.12 2.45,0.01 l 37.39,94.809998 c 0.36,0.91 -0.27,1.9 -1.21,1.9 l -8.09,0.07 -28.86,0.27 -39.35,0.35 c -0.95,0.01 -1.61,-1.01 -1.23,-1.92 l 19.84,-48.71 0.06,-0.14 -4.57,-11.14 -30.31,73.07 h 118.2 c 0.95,0 1.59,-1.01 1.22,-1.92 z"
   id="path12"
   inkscape:connector-curvature="0"
   style="fill:#6b6b6a" />
<circle
   class="st2"
   cx="144.78999"
   cy="144.78999"
   r="133.78999"
   id="circle14"
   style="fill:none;stroke:#000000;stroke-width:22;stroke-miterlimit:10" />
</svg>