<?xml version="1.0" encoding="utf-8" standalone="no"?>
<!DOCTYPE svg PUBLIC "-//W3C//DTD SVG 1.1//EN"
  "http://www.w3.org/Graphics/SVG/1.1/DTD/svg11.dtd">
<!-- Created with matplotlib (https://matplotlib.org/) -->
<svg height="345.6pt" version="1.1" viewBox="0 0 345.6 345.6" width="345.6pt" xmlns="http://www.w3.org/2000/svg" xmlns:xlink="http://www.w3.org/1999/xlink">
 <defs>
  <style type="text/css">
*{stroke-linecap:butt;stroke-linejoin:round;}
  </style>
 </defs>
 <g id="figure_1">
  <g id="patch_1">
   <path d="M 0 345.6 
L 345.6 345.6 
L 345.6 0 
L 0 0 
z
" style="fill:#ffffff;"/>
  </g>
  <g id="axes_1">
   <g id="patch_2">
    <path d="M 44.064 307.584 
L 310.176 307.584 
L 310.176 41.472 
L 44.064 41.472 
z
" style="fill:#ffffff;"/>
   </g>
   <g id="patch_3">
    <path clip-path="url(#pb690a17030)" d="M 203.7312 181.046386 
C 205.459896 181.046386 207.118022 180.359568 208.340395 179.137195 
C 209.562768 177.914822 210.249586 176.256696 210.249586 174.528 
C 210.249586 172.799304 209.562768 171.141178 208.340395 169.918805 
C 207.118022 168.696432 205.459896 168.009614 203.7312 168.009614 
C 202.002504 168.009614 200.344378 168.696432 199.122005 169.918805 
C 197.899632 171.141178 197.212814 172.799304 197.212814 174.528 
C 197.212814 176.256696 197.899632 177.914822 199.122005 179.137195 
C 200.344378 180.359568 202.002504 181.046386 203.7312 181.046386 
z
" style="fill:#1f77b4;"/>
   </g>
   <g id="patch_4">
    <path clip-path="url(#pb690a17030)" d="M 203.7312 187.564772 
C 207.188592 187.564772 210.504844 186.191136 212.94959 183.74639 
C 215.394336 181.301644 216.767972 177.985392 216.767972 174.528 
C 216.767972 171.070608 215.394336 167.754356 212.94959 165.30961 
C 210.504844 162.864864 207.188592 161.491228 203.7312 161.491228 
C 200.273808 161.491228 196.957556 162.864864 194.51281 165.30961 
C 192.068064 167.754356 190.694428 171.070608 190.694428 174.528 
C 190.694428 177.985392 192.068064 181.301644 194.51281 183.74639 
C 196.957556 186.191136 200.273808 187.564772 203.7312 187.564772 
z
" style="fill:#1f77b4;opacity:0.745791;"/>
   </g>
   <g id="patch_5">
    <path clip-path="url(#pb690a17030)" d="M 203.7312 194.083158 
C 208.917289 194.083158 213.891667 192.022704 217.558785 188.355585 
C 221.225904 184.688467 223.286358 179.714089 223.286358 174.528 
C 223.286358 169.341911 221.225904 164.367533 217.558785 160.700415 
C 213.891667 157.033296 208.917289 154.972842 203.7312 154.972842 
C 198.545111 154.972842 193.570733 157.033296 189.903615 160.700415 
C 186.236496 164.367533 184.176042 169.341911 184.176042 174.528 
C 184.176042 179.714089 186.236496 184.688467 189.903615 188.355585 
C 193.570733 192.022704 198.545111 194.083158 203.7312 194.083158 
z
" style="fill:#1f77b4;opacity:0.564502;"/>
   </g>
   <g id="patch_6">
    <path clip-path="url(#pb690a17030)" d="M 203.7312 200.601545 
C 210.645985 200.601545 217.278489 197.854271 222.16798 192.96478 
C 227.057471 188.075289 229.804745 181.442785 229.804745 174.528 
C 229.804745 167.613215 227.057471 160.980711 222.16798 156.09122 
C 217.278489 151.201729 210.645985 148.454455 203.7312 148.454455 
C 196.816415 148.454455 190.183911 151.201729 185.29442 156.09122 
C 180.404929 160.980711 177.657655 167.613215 177.657655 174.528 
C 177.657655 181.442785 180.404929 188.075289 185.29442 192.96478 
C 190.183911 197.854271 196.816415 200.601545 203.7312 200.601545 
z
" style="fill:#1f77b4;opacity:0.440799;"/>
   </g>
   <g id="patch_7">
    <path clip-path="url(#pb690a17030)" d="M 203.7312 207.119931 
C 212.374681 207.119931 220.665311 203.685839 226.777175 197.573975 
C 232.889039 191.462111 236.323131 183.171481 236.323131 174.528 
C 236.323131 165.884519 232.889039 157.593889 226.777175 151.482025 
C 220.665311 145.370161 212.374681 141.936069 203.7312 141.936069 
C 195.087719 141.936069 186.797089 145.370161 180.685225 151.482025 
C 174.573361 157.593889 171.139269 165.884519 171.139269 174.528 
C 171.139269 183.171481 174.573361 191.462111 180.685225 197.573975 
C 186.797089 203.685839 195.087719 207.119931 203.7312 207.119931 
z
" style="fill:#1f77b4;opacity:0.346634;"/>
   </g>
   <g id="patch_8">
    <path clip-path="url(#pb690a17030)" d="M 203.7312 213.638317 
C 214.103377 213.638317 224.052133 209.517407 231.38637 202.18317 
C 238.720607 194.848933 242.841517 184.900177 242.841517 174.528 
C 242.841517 164.155823 238.720607 154.207067 231.38637 146.87283 
C 224.052133 139.538593 214.103377 135.417683 203.7312 135.417683 
C 193.359023 135.417683 183.410267 139.538593 176.07603 146.87283 
C 168.741793 154.207067 164.620883 164.155823 164.620883 174.528 
C 164.620883 184.900177 168.741793 194.848933 176.07603 202.18317 
C 183.410267 209.517407 193.359023 213.638317 203.7312 213.638317 
z
" style="fill:#1f77b4;opacity:0.270147;"/>
   </g>
   <g id="patch_9">
    <path clip-path="url(#pb690a17030)" d="M 203.7312 220.156703 
C 215.832073 220.156703 227.438956 215.348975 235.995565 206.792365 
C 244.552175 198.235756 249.359903 186.628873 249.359903 174.528 
C 249.359903 162.427127 244.552175 150.820244 235.995565 142.263635 
C 227.438956 133.707025 215.832073 128.899297 203.7312 128.899297 
C 191.630327 128.899297 180.023444 133.707025 171.466835 142.263635 
C 162.910225 150.820244 158.102497 162.427127 158.102497 174.528 
C 158.102497 186.628873 162.910225 198.235756 171.466835 206.792365 
C 180.023444 215.348975 191.630327 220.156703 203.7312 220.156703 
z
" style="fill:#1f77b4;opacity:0.205399;"/>
   </g>
   <g id="patch_10">
    <path clip-path="url(#pb690a17030)" d="M 203.7312 226.675089 
C 217.56077 226.675089 230.825778 221.180543 240.60476 211.40156 
C 250.383743 201.622578 255.878289 188.35757 255.878289 174.528 
C 255.878289 160.69843 250.383743 147.433422 240.60476 137.65444 
C 230.825778 127.875457 217.56077 122.380911 203.7312 122.380911 
C 189.90163 122.380911 176.636622 127.875457 166.85764 137.65444 
C 157.078657 147.433422 151.584111 160.69843 151.584111 174.528 
C 151.584111 188.35757 157.078657 201.622578 166.85764 211.40156 
C 176.636622 221.180543 189.90163 226.675089 203.7312 226.675089 
z
" style="fill:#1f77b4;opacity:0.148994;"/>
   </g>
   <g id="patch_11">
    <path clip-path="url(#pb690a17030)" d="M 203.7312 233.193475 
C 219.289466 233.193475 234.2126 227.012111 245.213955 216.010755 
C 256.215311 205.0094 262.396675 190.086266 262.396675 174.528 
C 262.396675 158.969734 256.215311 144.0466 245.213955 133.045245 
C 234.2126 122.043889 219.289466 115.862525 203.7312 115.862525 
C 188.172934 115.862525 173.2498 122.043889 162.248445 133.045245 
C 151.247089 144.0466 145.065725 158.969734 145.065725 174.528 
C 145.065725 190.086266 151.247089 205.0094 162.248445 216.010755 
C 173.2498 227.012111 188.172934 233.193475 203.7312 233.193475 
z
" style="fill:#1f77b4;opacity:0.098806;"/>
   </g>
   <g id="patch_12">
    <path clip-path="url(#pb690a17030)" d="M 203.7312 239.711861 
C 221.018162 239.711861 237.599422 232.843679 249.82315 220.61995 
C 262.046879 208.396222 268.915061 191.814962 268.915061 174.528 
C 268.915061 157.241038 262.046879 140.659778 249.82315 128.43605 
C 237.599422 116.212321 221.018162 109.344139 203.7312 109.344139 
C 186.444238 109.344139 169.862978 116.212321 157.63925 128.43605 
C 145.415521 140.659778 138.547339 157.241038 138.547339 174.528 
C 138.547339 191.814962 145.415521 208.396222 157.63925 220.61995 
C 169.862978 232.843679 186.444238 239.711861 203.7312 239.711861 
z
" style="fill:#1f77b4;opacity:0.05269;"/>
   </g>
   <g id="patch_13">
    <path clip-path="url(#pb690a17030)" d="M 203.7312 239.711861 
C 221.018162 239.711861 237.599422 232.843679 249.82315 220.61995 
C 262.046879 208.396222 268.915061 191.814962 268.915061 174.528 
C 268.915061 157.241038 262.046879 140.659778 249.82315 128.43605 
C 237.599422 116.212321 221.018162 109.344139 203.7312 109.344139 
C 186.444238 109.344139 169.862978 116.212321 157.63925 128.43605 
C 145.415521 140.659778 138.547339 157.241038 138.547339 174.528 
C 138.547339 191.814962 145.415521 208.396222 157.63925 220.61995 
C 169.862978 232.843679 186.444238 239.711861 203.7312 239.711861 
z
" style="fill:none;stroke:#000000;stroke-dasharray:1,1.65;stroke-dashoffset:0;stroke-linejoin:miter;"/>
   </g>
   <g id="patch_14">
    <path clip-path="url(#pb690a17030)" d="M 203.7312 254.3616 
C 217.845945 254.3616 231.384488 245.949828 241.36512 230.97888 
C 251.345752 216.007932 256.9536 195.700118 256.9536 174.528 
C 256.9536 153.355882 251.345752 133.048068 241.36512 118.07712 
C 231.384488 103.106172 217.845945 94.6944 203.7312 94.6944 
C 189.616455 94.6944 176.077912 103.106172 166.09728 118.07712 
C 156.116648 133.048068 150.5088 153.355882 150.5088 174.528 
C 150.5088 195.700118 156.116648 216.007932 166.09728 230.97888 
C 176.077912 245.949828 189.616455 254.3616 203.7312 254.3616 
z
" style="fill:none;stroke:#000000;stroke-linejoin:miter;"/>
   </g>
   <g id="matplotlib.axis_1">
    <g id="xtick_1">
     <g id="line2d_1">
      <defs>
       <path d="M 0 0 
L 0 3.5 
" id="mf53e7c0a1d" style="stroke:#000000;stroke-width:0.8;"/>
      </defs>
      <g>
       <use style="stroke:#000000;stroke-width:0.8;" x="44.064" xlink:href="#mf53e7c0a1d" y="307.584"/>
      </g>
     </g>
     <g id="text_1">
      <!-- 0 -->
      <defs>
       <path d="M 31.78125 66.40625 
Q 24.171875 66.40625 20.328125 58.90625 
Q 16.5 51.421875 16.5 36.375 
Q 16.5 21.390625 20.328125 13.890625 
Q 24.171875 6.390625 31.78125 6.390625 
Q 39.453125 6.390625 43.28125 13.890625 
Q 47.125 21.390625 47.125 36.375 
Q 47.125 51.421875 43.28125 58.90625 
Q 39.453125 66.40625 31.78125 66.40625 
z
M 31.78125 74.21875 
Q 44.046875 74.21875 50.515625 64.515625 
Q 56.984375 54.828125 56.984375 36.375 
Q 56.984375 17.96875 50.515625 8.265625 
Q 44.046875 -1.421875 31.78125 -1.421875 
Q 19.53125 -1.421875 13.0625 8.265625 
Q 6.59375 17.96875 6.59375 36.375 
Q 6.59375 54.828125 13.0625 64.515625 
Q 19.53125 74.21875 31.78125 74.21875 
z
" id="DejaVuSans-48"/>
      </defs>
      <g transform="translate(40.88275 322.182437)scale(0.1 -0.1)">
       <use xlink:href="#DejaVuSans-48"/>
      </g>
     </g>
    </g>
    <g id="xtick_2">
     <g id="line2d_2">
      <g>
       <use style="stroke:#000000;stroke-width:0.8;" x="97.2864" xlink:href="#mf53e7c0a1d" y="307.584"/>
      </g>
     </g>
     <g id="text_2">
      <!-- 1 -->
      <defs>
       <path d="M 12.40625 8.296875 
L 28.515625 8.296875 
L 28.515625 63.921875 
L 10.984375 60.40625 
L 10.984375 69.390625 
L 28.421875 72.90625 
L 38.28125 72.90625 
L 38.28125 8.296875 
L 54.390625 8.296875 
L 54.390625 0 
L 12.40625 0 
z
" id="DejaVuSans-49"/>
      </defs>
      <g transform="translate(94.10515 322.182437)scale(0.1 -0.1)">
       <use xlink:href="#DejaVuSans-49"/>
      </g>
     </g>
    </g>
    <g id="xtick_3">
     <g id="line2d_3">
      <g>
       <use style="stroke:#000000;stroke-width:0.8;" x="150.5088" xlink:href="#mf53e7c0a1d" y="307.584"/>
      </g>
     </g>
     <g id="text_3">
      <!-- 2 -->
      <defs>
       <path d="M 19.1875 8.296875 
L 53.609375 8.296875 
L 53.609375 0 
L 7.328125 0 
L 7.328125 8.296875 
Q 12.9375 14.109375 22.625 23.890625 
Q 32.328125 33.6875 34.8125 36.53125 
Q 39.546875 41.84375 41.421875 45.53125 
Q 43.3125 49.21875 43.3125 52.78125 
Q 43.3125 58.59375 39.234375 62.25 
Q 35.15625 65.921875 28.609375 65.921875 
Q 23.96875 65.921875 18.8125 64.3125 
Q 13.671875 62.703125 7.8125 59.421875 
L 7.8125 69.390625 
Q 13.765625 71.78125 18.9375 73 
Q 24.125 74.21875 28.421875 74.21875 
Q 39.75 74.21875 46.484375 68.546875 
Q 53.21875 62.890625 53.21875 53.421875 
Q 53.21875 48.921875 51.53125 44.890625 
Q 49.859375 40.875 45.40625 35.40625 
Q 44.1875 33.984375 37.640625 27.21875 
Q 31.109375 20.453125 19.1875 8.296875 
z
" id="DejaVuSans-50"/>
      </defs>
      <g transform="translate(147.32755 322.182437)scale(0.1 -0.1)">
       <use xlink:href="#DejaVuSans-50"/>
      </g>
     </g>
    </g>
    <g id="xtick_4">
     <g id="line2d_4">
      <g>
       <use style="stroke:#000000;stroke-width:0.8;" x="203.7312" xlink:href="#mf53e7c0a1d" y="307.584"/>
      </g>
     </g>
     <g id="text_4">
      <!-- 3 -->
      <defs>
       <path d="M 40.578125 39.3125 
Q 47.65625 37.796875 51.625 33 
Q 55.609375 28.21875 55.609375 21.1875 
Q 55.609375 10.40625 48.1875 4.484375 
Q 40.765625 -1.421875 27.09375 -1.421875 
Q 22.515625 -1.421875 17.65625 -0.515625 
Q 12.796875 0.390625 7.625 2.203125 
L 7.625 11.71875 
Q 11.71875 9.328125 16.59375 8.109375 
Q 21.484375 6.890625 26.8125 6.890625 
Q 36.078125 6.890625 40.9375 10.546875 
Q 45.796875 14.203125 45.796875 21.1875 
Q 45.796875 27.640625 41.28125 31.265625 
Q 36.765625 34.90625 28.71875 34.90625 
L 20.21875 34.90625 
L 20.21875 43.015625 
L 29.109375 43.015625 
Q 36.375 43.015625 40.234375 45.921875 
Q 44.09375 48.828125 44.09375 54.296875 
Q 44.09375 59.90625 40.109375 62.90625 
Q 36.140625 65.921875 28.71875 65.921875 
Q 24.65625 65.921875 20.015625 65.03125 
Q 15.375 64.15625 9.8125 62.3125 
L 9.8125 71.09375 
Q 15.4375 72.65625 20.34375 73.4375 
Q 25.25 74.21875 29.59375 74.21875 
Q 40.828125 74.21875 47.359375 69.109375 
Q 53.90625 64.015625 53.90625 55.328125 
Q 53.90625 49.265625 50.4375 45.09375 
Q 46.96875 40.921875 40.578125 39.3125 
z
" id="DejaVuSans-51"/>
      </defs>
      <g transform="translate(200.54995 322.182437)scale(0.1 -0.1)">
       <use xlink:href="#DejaVuSans-51"/>
      </g>
     </g>
    </g>
    <g id="xtick_5">
     <g id="line2d_5">
      <g>
       <use style="stroke:#000000;stroke-width:0.8;" x="256.9536" xlink:href="#mf53e7c0a1d" y="307.584"/>
      </g>
     </g>
     <g id="text_5">
      <!-- 4 -->
      <defs>
       <path d="M 37.796875 64.3125 
L 12.890625 25.390625 
L 37.796875 25.390625 
z
M 35.203125 72.90625 
L 47.609375 72.90625 
L 47.609375 25.390625 
L 58.015625 25.390625 
L 58.015625 17.1875 
L 47.609375 17.1875 
L 47.609375 0 
L 37.796875 0 
L 37.796875 17.1875 
L 4.890625 17.1875 
L 4.890625 26.703125 
z
" id="DejaVuSans-52"/>
      </defs>
      <g transform="translate(253.77235 322.182437)scale(0.1 -0.1)">
       <use xlink:href="#DejaVuSans-52"/>
      </g>
     </g>
    </g>
    <g id="xtick_6">
     <g id="line2d_6">
      <g>
       <use style="stroke:#000000;stroke-width:0.8;" x="310.176" xlink:href="#mf53e7c0a1d" y="307.584"/>
      </g>
     </g>
     <g id="text_6">
      <!-- 5 -->
      <defs>
       <path d="M 10.796875 72.90625 
L 49.515625 72.90625 
L 49.515625 64.59375 
L 19.828125 64.59375 
L 19.828125 46.734375 
Q 21.96875 47.46875 24.109375 47.828125 
Q 26.265625 48.1875 28.421875 48.1875 
Q 40.625 48.1875 47.75 41.5 
Q 54.890625 34.8125 54.890625 23.390625 
Q 54.890625 11.625 47.5625 5.09375 
Q 40.234375 -1.421875 26.90625 -1.421875 
Q 22.3125 -1.421875 17.546875 -0.640625 
Q 12.796875 0.140625 7.71875 1.703125 
L 7.71875 11.625 
Q 12.109375 9.234375 16.796875 8.0625 
Q 21.484375 6.890625 26.703125 6.890625 
Q 35.15625 6.890625 40.078125 11.328125 
Q 45.015625 15.765625 45.015625 23.390625 
Q 45.015625 31 40.078125 35.4375 
Q 35.15625 39.890625 26.703125 39.890625 
Q 22.75 39.890625 18.8125 39.015625 
Q 14.890625 38.140625 10.796875 36.28125 
z
" id="DejaVuSans-53"/>
      </defs>
      <g transform="translate(306.99475 322.182437)scale(0.1 -0.1)">
       <use xlink:href="#DejaVuSans-53"/>
      </g>
     </g>
    </g>
    <g id="text_7">
     <!-- R -->
     <defs>
      <path d="M 44.390625 34.1875 
Q 47.5625 33.109375 50.5625 29.59375 
Q 53.5625 26.078125 56.59375 19.921875 
L 66.609375 0 
L 56 0 
L 46.6875 18.703125 
Q 43.0625 26.03125 39.671875 28.421875 
Q 36.28125 30.8125 30.421875 30.8125 
L 19.671875 30.8125 
L 19.671875 0 
L 9.8125 0 
L 9.8125 72.90625 
L 32.078125 72.90625 
Q 44.578125 72.90625 50.734375 67.671875 
Q 56.890625 62.453125 56.890625 51.90625 
Q 56.890625 45.015625 53.6875 40.46875 
Q 50.484375 35.9375 44.390625 34.1875 
z
M 19.671875 64.796875 
L 19.671875 38.921875 
L 32.078125 38.921875 
Q 39.203125 38.921875 42.84375 42.21875 
Q 46.484375 45.515625 46.484375 51.90625 
Q 46.484375 58.296875 42.84375 61.546875 
Q 39.203125 64.796875 32.078125 64.796875 
z
" id="DejaVuSans-82"/>
     </defs>
     <g transform="translate(173.645781 335.860562)scale(0.1 -0.1)">
      <use xlink:href="#DejaVuSans-82"/>
     </g>
    </g>
   </g>
   <g id="matplotlib.axis_2">
    <g id="ytick_1">
     <g id="line2d_7">
      <defs>
       <path d="M 0 0 
L -3.5 0 
" id="mb37428e424" style="stroke:#000000;stroke-width:0.8;"/>
      </defs>
      <g>
       <use style="stroke:#000000;stroke-width:0.8;" x="44.064" xlink:href="#mb37428e424" y="280.9728"/>
      </g>
     </g>
     <g id="text_8">
      <!-- −2 -->
      <defs>
       <path d="M 10.59375 35.5 
L 73.1875 35.5 
L 73.1875 27.203125 
L 10.59375 27.203125 
z
" id="DejaVuSans-8722"/>
      </defs>
      <g transform="translate(22.321812 284.772019)scale(0.1 -0.1)">
       <use xlink:href="#DejaVuSans-8722"/>
       <use x="83.789062" xlink:href="#DejaVuSans-50"/>
      </g>
     </g>
    </g>
    <g id="ytick_2">
     <g id="line2d_8">
      <g>
       <use style="stroke:#000000;stroke-width:0.8;" x="44.064" xlink:href="#mb37428e424" y="227.7504"/>
      </g>
     </g>
     <g id="text_9">
      <!-- −1 -->
      <g transform="translate(22.321812 231.549619)scale(0.1 -0.1)">
       <use xlink:href="#DejaVuSans-8722"/>
       <use x="83.789062" xlink:href="#DejaVuSans-49"/>
      </g>
     </g>
    </g>
    <g id="ytick_3">
     <g id="line2d_9">
      <g>
       <use style="stroke:#000000;stroke-width:0.8;" x="44.064" xlink:href="#mb37428e424" y="174.528"/>
      </g>
     </g>
     <g id="text_10">
      <!-- 0 -->
      <g transform="translate(30.7015 178.327219)scale(0.1 -0.1)">
       <use xlink:href="#DejaVuSans-48"/>
      </g>
     </g>
    </g>
    <g id="ytick_4">
     <g id="line2d_10">
      <g>
       <use style="stroke:#000000;stroke-width:0.8;" x="44.064" xlink:href="#mb37428e424" y="121.3056"/>
      </g>
     </g>
     <g id="text_11">
      <!-- 1 -->
      <g transform="translate(30.7015 125.104819)scale(0.1 -0.1)">
       <use xlink:href="#DejaVuSans-49"/>
      </g>
     </g>
    </g>
    <g id="ytick_5">
     <g id="line2d_11">
      <g>
       <use style="stroke:#000000;stroke-width:0.8;" x="44.064" xlink:href="#mb37428e424" y="68.0832"/>
      </g>
     </g>
     <g id="text_12">
      <!-- 2 -->
      <g transform="translate(30.7015 71.882419)scale(0.1 -0.1)">
       <use xlink:href="#DejaVuSans-50"/>
      </g>
     </g>
    </g>
    <g id="text_13">
     <!-- Z -->
     <defs>
      <path d="M 5.609375 72.90625 
L 62.890625 72.90625 
L 62.890625 65.375 
L 16.796875 8.296875 
L 64.015625 8.296875 
L 64.015625 0 
L 4.5 0 
L 4.5 7.515625 
L 50.59375 64.59375 
L 5.609375 64.59375 
z
" id="DejaVuSans-90"/>
     </defs>
     <g transform="translate(16.242125 177.953)rotate(-90)scale(0.1 -0.1)">
      <use xlink:href="#DejaVuSans-90"/>
     </g>
    </g>
   </g>
   <g id="patch_15">
    <path d="M 44.064 307.584 
L 44.064 41.472 
" style="fill:none;stroke:#000000;stroke-linecap:square;stroke-linejoin:miter;stroke-width:0.8;"/>
   </g>
   <g id="patch_16">
    <path d="M 310.176 307.584 
L 310.176 41.472 
" style="fill:none;stroke:#000000;stroke-linecap:square;stroke-linejoin:miter;stroke-width:0.8;"/>
   </g>
   <g id="patch_17">
    <path d="M 44.064 307.584 
L 310.176 307.584 
" style="fill:none;stroke:#000000;stroke-linecap:square;stroke-linejoin:miter;stroke-width:0.8;"/>
   </g>
   <g id="patch_18">
    <path d="M 44.064 41.472 
L 310.176 41.472 
" style="fill:none;stroke:#000000;stroke-linecap:square;stroke-linejoin:miter;stroke-width:0.8;"/>
   </g>
  </g>
 </g>
 <defs>
  <clipPath id="pb690a17030">
   <rect height="266.112" width="266.112" x="44.064" y="41.472"/>
  </clipPath>
 </defs>
</svg>
