<?xml version="1.0" encoding="utf-8" standalone="no"?>
<!DOCTYPE svg PUBLIC "-//W3C//DTD SVG 1.1//EN"
  "http://www.w3.org/Graphics/SVG/1.1/DTD/svg11.dtd">
<!-- Created with matplotlib (https://matplotlib.org/) -->
<svg height="345.6pt" version="1.1" viewBox="0 0 460.8 345.6" width="460.8pt" xmlns="http://www.w3.org/2000/svg" xmlns:xlink="http://www.w3.org/1999/xlink">
 <defs>
  <style type="text/css">
*{stroke-linecap:butt;stroke-linejoin:round;}
  </style>
 </defs>
 <g id="figure_1">
  <g id="patch_1">
   <path d="M 0 345.6 
L 460.8 345.6 
L 460.8 0 
L 0 0 
z
" style="fill:#ffffff;"/>
  </g>
  <g id="axes_1">
   <g id="patch_2">
    <path d="M 57.6 307.584 
L 414.72 307.584 
L 414.72 41.472 
L 57.6 41.472 
z
" style="fill:#ffffff;"/>
   </g>
   <g id="matplotlib.axis_1">
    <g id="xtick_1">
     <g id="line2d_1">
      <defs>
       <path d="M 0 0 
L 0 3.5 
" id="mb67fc9edab" style="stroke:#000000;stroke-width:0.8;"/>
      </defs>
      <g>
       <use style="stroke:#000000;stroke-width:0.8;" x="72.193058" xlink:href="#mb67fc9edab" y="307.584"/>
      </g>
     </g>
     <g id="text_1">
      <!-- 0.0 -->
      <defs>
       <path d="M 31.78125 66.40625 
Q 24.171875 66.40625 20.328125 58.90625 
Q 16.5 51.421875 16.5 36.375 
Q 16.5 21.390625 20.328125 13.890625 
Q 24.171875 6.390625 31.78125 6.390625 
Q 39.453125 6.390625 43.28125 13.890625 
Q 47.125 21.390625 47.125 36.375 
Q 47.125 51.421875 43.28125 58.90625 
Q 39.453125 66.40625 31.78125 66.40625 
z
M 31.78125 74.21875 
Q 44.046875 74.21875 50.515625 64.515625 
Q 56.984375 54.828125 56.984375 36.375 
Q 56.984375 17.96875 50.515625 8.265625 
Q 44.046875 -1.421875 31.78125 -1.421875 
Q 19.53125 -1.421875 13.0625 8.265625 
Q 6.59375 17.96875 6.59375 36.375 
Q 6.59375 54.828125 13.0625 64.515625 
Q 19.53125 74.21875 31.78125 74.21875 
z
" id="DejaVuSans-48"/>
       <path d="M 10.6875 12.40625 
L 21 12.40625 
L 21 0 
L 10.6875 0 
z
" id="DejaVuSans-46"/>
      </defs>
      <g transform="translate(64.241495 322.182437)scale(0.1 -0.1)">
       <use xlink:href="#DejaVuSans-48"/>
       <use x="63.623047" xlink:href="#DejaVuSans-46"/>
       <use x="95.410156" xlink:href="#DejaVuSans-48"/>
      </g>
     </g>
    </g>
    <g id="xtick_2">
     <g id="line2d_2">
      <g>
       <use style="stroke:#000000;stroke-width:0.8;" x="125.744437" xlink:href="#mb67fc9edab" y="307.584"/>
      </g>
     </g>
     <g id="text_2">
      <!-- 0.2 -->
      <defs>
       <path d="M 19.1875 8.296875 
L 53.609375 8.296875 
L 53.609375 0 
L 7.328125 0 
L 7.328125 8.296875 
Q 12.9375 14.109375 22.625 23.890625 
Q 32.328125 33.6875 34.8125 36.53125 
Q 39.546875 41.84375 41.421875 45.53125 
Q 43.3125 49.21875 43.3125 52.78125 
Q 43.3125 58.59375 39.234375 62.25 
Q 35.15625 65.921875 28.609375 65.921875 
Q 23.96875 65.921875 18.8125 64.3125 
Q 13.671875 62.703125 7.8125 59.421875 
L 7.8125 69.390625 
Q 13.765625 71.78125 18.9375 73 
Q 24.125 74.21875 28.421875 74.21875 
Q 39.75 74.21875 46.484375 68.546875 
Q 53.21875 62.890625 53.21875 53.421875 
Q 53.21875 48.921875 51.53125 44.890625 
Q 49.859375 40.875 45.40625 35.40625 
Q 44.1875 33.984375 37.640625 27.21875 
Q 31.109375 20.453125 19.1875 8.296875 
z
" id="DejaVuSans-50"/>
      </defs>
      <g transform="translate(117.792874 322.182437)scale(0.1 -0.1)">
       <use xlink:href="#DejaVuSans-48"/>
       <use x="63.623047" xlink:href="#DejaVuSans-46"/>
       <use x="95.410156" xlink:href="#DejaVuSans-50"/>
      </g>
     </g>
    </g>
    <g id="xtick_3">
     <g id="line2d_3">
      <g>
       <use style="stroke:#000000;stroke-width:0.8;" x="179.295816" xlink:href="#mb67fc9edab" y="307.584"/>
      </g>
     </g>
     <g id="text_3">
      <!-- 0.4 -->
      <defs>
       <path d="M 37.796875 64.3125 
L 12.890625 25.390625 
L 37.796875 25.390625 
z
M 35.203125 72.90625 
L 47.609375 72.90625 
L 47.609375 25.390625 
L 58.015625 25.390625 
L 58.015625 17.1875 
L 47.609375 17.1875 
L 47.609375 0 
L 37.796875 0 
L 37.796875 17.1875 
L 4.890625 17.1875 
L 4.890625 26.703125 
z
" id="DejaVuSans-52"/>
      </defs>
      <g transform="translate(171.344253 322.182437)scale(0.1 -0.1)">
       <use xlink:href="#DejaVuSans-48"/>
       <use x="63.623047" xlink:href="#DejaVuSans-46"/>
       <use x="95.410156" xlink:href="#DejaVuSans-52"/>
      </g>
     </g>
    </g>
    <g id="xtick_4">
     <g id="line2d_4">
      <g>
       <use style="stroke:#000000;stroke-width:0.8;" x="232.847195" xlink:href="#mb67fc9edab" y="307.584"/>
      </g>
     </g>
     <g id="text_4">
      <!-- 0.6 -->
      <defs>
       <path d="M 33.015625 40.375 
Q 26.375 40.375 22.484375 35.828125 
Q 18.609375 31.296875 18.609375 23.390625 
Q 18.609375 15.53125 22.484375 10.953125 
Q 26.375 6.390625 33.015625 6.390625 
Q 39.65625 6.390625 43.53125 10.953125 
Q 47.40625 15.53125 47.40625 23.390625 
Q 47.40625 31.296875 43.53125 35.828125 
Q 39.65625 40.375 33.015625 40.375 
z
M 52.59375 71.296875 
L 52.59375 62.3125 
Q 48.875 64.0625 45.09375 64.984375 
Q 41.3125 65.921875 37.59375 65.921875 
Q 27.828125 65.921875 22.671875 59.328125 
Q 17.53125 52.734375 16.796875 39.40625 
Q 19.671875 43.65625 24.015625 45.921875 
Q 28.375 48.1875 33.59375 48.1875 
Q 44.578125 48.1875 50.953125 41.515625 
Q 57.328125 34.859375 57.328125 23.390625 
Q 57.328125 12.15625 50.6875 5.359375 
Q 44.046875 -1.421875 33.015625 -1.421875 
Q 20.359375 -1.421875 13.671875 8.265625 
Q 6.984375 17.96875 6.984375 36.375 
Q 6.984375 53.65625 15.1875 63.9375 
Q 23.390625 74.21875 37.203125 74.21875 
Q 40.921875 74.21875 44.703125 73.484375 
Q 48.484375 72.75 52.59375 71.296875 
z
" id="DejaVuSans-54"/>
      </defs>
      <g transform="translate(224.895633 322.182437)scale(0.1 -0.1)">
       <use xlink:href="#DejaVuSans-48"/>
       <use x="63.623047" xlink:href="#DejaVuSans-46"/>
       <use x="95.410156" xlink:href="#DejaVuSans-54"/>
      </g>
     </g>
    </g>
    <g id="xtick_5">
     <g id="line2d_5">
      <g>
       <use style="stroke:#000000;stroke-width:0.8;" x="286.398574" xlink:href="#mb67fc9edab" y="307.584"/>
      </g>
     </g>
     <g id="text_5">
      <!-- 0.8 -->
      <defs>
       <path d="M 31.78125 34.625 
Q 24.75 34.625 20.71875 30.859375 
Q 16.703125 27.09375 16.703125 20.515625 
Q 16.703125 13.921875 20.71875 10.15625 
Q 24.75 6.390625 31.78125 6.390625 
Q 38.8125 6.390625 42.859375 10.171875 
Q 46.921875 13.96875 46.921875 20.515625 
Q 46.921875 27.09375 42.890625 30.859375 
Q 38.875 34.625 31.78125 34.625 
z
M 21.921875 38.8125 
Q 15.578125 40.375 12.03125 44.71875 
Q 8.5 49.078125 8.5 55.328125 
Q 8.5 64.0625 14.71875 69.140625 
Q 20.953125 74.21875 31.78125 74.21875 
Q 42.671875 74.21875 48.875 69.140625 
Q 55.078125 64.0625 55.078125 55.328125 
Q 55.078125 49.078125 51.53125 44.71875 
Q 48 40.375 41.703125 38.8125 
Q 48.828125 37.15625 52.796875 32.3125 
Q 56.78125 27.484375 56.78125 20.515625 
Q 56.78125 9.90625 50.3125 4.234375 
Q 43.84375 -1.421875 31.78125 -1.421875 
Q 19.734375 -1.421875 13.25 4.234375 
Q 6.78125 9.90625 6.78125 20.515625 
Q 6.78125 27.484375 10.78125 32.3125 
Q 14.796875 37.15625 21.921875 38.8125 
z
M 18.3125 54.390625 
Q 18.3125 48.734375 21.84375 45.5625 
Q 25.390625 42.390625 31.78125 42.390625 
Q 38.140625 42.390625 41.71875 45.5625 
Q 45.3125 48.734375 45.3125 54.390625 
Q 45.3125 60.0625 41.71875 63.234375 
Q 38.140625 66.40625 31.78125 66.40625 
Q 25.390625 66.40625 21.84375 63.234375 
Q 18.3125 60.0625 18.3125 54.390625 
z
" id="DejaVuSans-56"/>
      </defs>
      <g transform="translate(278.447012 322.182437)scale(0.1 -0.1)">
       <use xlink:href="#DejaVuSans-48"/>
       <use x="63.623047" xlink:href="#DejaVuSans-46"/>
       <use x="95.410156" xlink:href="#DejaVuSans-56"/>
      </g>
     </g>
    </g>
    <g id="xtick_6">
     <g id="line2d_6">
      <g>
       <use style="stroke:#000000;stroke-width:0.8;" x="339.949953" xlink:href="#mb67fc9edab" y="307.584"/>
      </g>
     </g>
     <g id="text_6">
      <!-- 1.0 -->
      <defs>
       <path d="M 12.40625 8.296875 
L 28.515625 8.296875 
L 28.515625 63.921875 
L 10.984375 60.40625 
L 10.984375 69.390625 
L 28.421875 72.90625 
L 38.28125 72.90625 
L 38.28125 8.296875 
L 54.390625 8.296875 
L 54.390625 0 
L 12.40625 0 
z
" id="DejaVuSans-49"/>
      </defs>
      <g transform="translate(331.998391 322.182437)scale(0.1 -0.1)">
       <use xlink:href="#DejaVuSans-49"/>
       <use x="63.623047" xlink:href="#DejaVuSans-46"/>
       <use x="95.410156" xlink:href="#DejaVuSans-48"/>
      </g>
     </g>
    </g>
    <g id="xtick_7">
     <g id="line2d_7">
      <g>
       <use style="stroke:#000000;stroke-width:0.8;" x="393.501332" xlink:href="#mb67fc9edab" y="307.584"/>
      </g>
     </g>
     <g id="text_7">
      <!-- 1.2 -->
      <g transform="translate(385.54977 322.182437)scale(0.1 -0.1)">
       <use xlink:href="#DejaVuSans-49"/>
       <use x="63.623047" xlink:href="#DejaVuSans-46"/>
       <use x="95.410156" xlink:href="#DejaVuSans-50"/>
      </g>
     </g>
    </g>
    <g id="text_8">
     <!-- rho [m] -->
     <defs>
      <path d="M 41.109375 46.296875 
Q 39.59375 47.171875 37.8125 47.578125 
Q 36.03125 48 33.890625 48 
Q 26.265625 48 22.1875 43.046875 
Q 18.109375 38.09375 18.109375 28.8125 
L 18.109375 0 
L 9.078125 0 
L 9.078125 54.6875 
L 18.109375 54.6875 
L 18.109375 46.1875 
Q 20.953125 51.171875 25.484375 53.578125 
Q 30.03125 56 36.53125 56 
Q 37.453125 56 38.578125 55.875 
Q 39.703125 55.765625 41.0625 55.515625 
z
" id="DejaVuSans-114"/>
      <path d="M 54.890625 33.015625 
L 54.890625 0 
L 45.90625 0 
L 45.90625 32.71875 
Q 45.90625 40.484375 42.875 44.328125 
Q 39.84375 48.1875 33.796875 48.1875 
Q 26.515625 48.1875 22.3125 43.546875 
Q 18.109375 38.921875 18.109375 30.90625 
L 18.109375 0 
L 9.078125 0 
L 9.078125 75.984375 
L 18.109375 75.984375 
L 18.109375 46.1875 
Q 21.34375 51.125 25.703125 53.5625 
Q 30.078125 56 35.796875 56 
Q 45.21875 56 50.046875 50.171875 
Q 54.890625 44.34375 54.890625 33.015625 
z
" id="DejaVuSans-104"/>
      <path d="M 30.609375 48.390625 
Q 23.390625 48.390625 19.1875 42.75 
Q 14.984375 37.109375 14.984375 27.296875 
Q 14.984375 17.484375 19.15625 11.84375 
Q 23.34375 6.203125 30.609375 6.203125 
Q 37.796875 6.203125 41.984375 11.859375 
Q 46.1875 17.53125 46.1875 27.296875 
Q 46.1875 37.015625 41.984375 42.703125 
Q 37.796875 48.390625 30.609375 48.390625 
z
M 30.609375 56 
Q 42.328125 56 49.015625 48.375 
Q 55.71875 40.765625 55.71875 27.296875 
Q 55.71875 13.875 49.015625 6.21875 
Q 42.328125 -1.421875 30.609375 -1.421875 
Q 18.84375 -1.421875 12.171875 6.21875 
Q 5.515625 13.875 5.515625 27.296875 
Q 5.515625 40.765625 12.171875 48.375 
Q 18.84375 56 30.609375 56 
z
" id="DejaVuSans-111"/>
      <path id="DejaVuSans-32"/>
      <path d="M 8.59375 75.984375 
L 29.296875 75.984375 
L 29.296875 69 
L 17.578125 69 
L 17.578125 -6.203125 
L 29.296875 -6.203125 
L 29.296875 -13.1875 
L 8.59375 -13.1875 
z
" id="DejaVuSans-91"/>
      <path d="M 52 44.1875 
Q 55.375 50.25 60.0625 53.125 
Q 64.75 56 71.09375 56 
Q 79.640625 56 84.28125 50.015625 
Q 88.921875 44.046875 88.921875 33.015625 
L 88.921875 0 
L 79.890625 0 
L 79.890625 32.71875 
Q 79.890625 40.578125 77.09375 44.375 
Q 74.3125 48.1875 68.609375 48.1875 
Q 61.625 48.1875 57.5625 43.546875 
Q 53.515625 38.921875 53.515625 30.90625 
L 53.515625 0 
L 44.484375 0 
L 44.484375 32.71875 
Q 44.484375 40.625 41.703125 44.40625 
Q 38.921875 48.1875 33.109375 48.1875 
Q 26.21875 48.1875 22.15625 43.53125 
Q 18.109375 38.875 18.109375 30.90625 
L 18.109375 0 
L 9.078125 0 
L 9.078125 54.6875 
L 18.109375 54.6875 
L 18.109375 46.1875 
Q 21.1875 51.21875 25.484375 53.609375 
Q 29.78125 56 35.6875 56 
Q 41.65625 56 45.828125 52.96875 
Q 50 49.953125 52 44.1875 
z
" id="DejaVuSans-109"/>
      <path d="M 30.421875 75.984375 
L 30.421875 -13.1875 
L 9.71875 -13.1875 
L 9.71875 -6.203125 
L 21.390625 -6.203125 
L 21.390625 69 
L 9.71875 69 
L 9.71875 75.984375 
z
" id="DejaVuSans-93"/>
     </defs>
     <g transform="translate(217.602969 335.860562)scale(0.1 -0.1)">
      <use xlink:href="#DejaVuSans-114"/>
      <use x="39.363281" xlink:href="#DejaVuSans-104"/>
      <use x="102.742188" xlink:href="#DejaVuSans-111"/>
      <use x="163.923828" xlink:href="#DejaVuSans-32"/>
      <use x="195.710938" xlink:href="#DejaVuSans-91"/>
      <use x="234.724609" xlink:href="#DejaVuSans-109"/>
      <use x="332.136719" xlink:href="#DejaVuSans-93"/>
     </g>
    </g>
   </g>
   <g id="matplotlib.axis_2">
    <g id="ytick_1">
     <g id="line2d_8">
      <defs>
       <path d="M 0 0 
L -3.5 0 
" id="mecfaf6c3d4" style="stroke:#000000;stroke-width:0.8;"/>
      </defs>
      <g>
       <use style="stroke:#000000;stroke-width:0.8;" x="57.6" xlink:href="#mecfaf6c3d4" y="295.488006"/>
      </g>
     </g>
     <g id="text_9">
      <!-- 0.0 -->
      <g transform="translate(34.696875 299.287225)scale(0.1 -0.1)">
       <use xlink:href="#DejaVuSans-48"/>
       <use x="63.623047" xlink:href="#DejaVuSans-46"/>
       <use x="95.410156" xlink:href="#DejaVuSans-48"/>
      </g>
     </g>
    </g>
    <g id="ytick_2">
     <g id="line2d_9">
      <g>
       <use style="stroke:#000000;stroke-width:0.8;" x="57.6" xlink:href="#mecfaf6c3d4" y="245.769534"/>
      </g>
     </g>
     <g id="text_10">
      <!-- 0.2 -->
      <g transform="translate(34.696875 249.568753)scale(0.1 -0.1)">
       <use xlink:href="#DejaVuSans-48"/>
       <use x="63.623047" xlink:href="#DejaVuSans-46"/>
       <use x="95.410156" xlink:href="#DejaVuSans-50"/>
      </g>
     </g>
    </g>
    <g id="ytick_3">
     <g id="line2d_10">
      <g>
       <use style="stroke:#000000;stroke-width:0.8;" x="57.6" xlink:href="#mecfaf6c3d4" y="196.051062"/>
      </g>
     </g>
     <g id="text_11">
      <!-- 0.4 -->
      <g transform="translate(34.696875 199.850281)scale(0.1 -0.1)">
       <use xlink:href="#DejaVuSans-48"/>
       <use x="63.623047" xlink:href="#DejaVuSans-46"/>
       <use x="95.410156" xlink:href="#DejaVuSans-52"/>
      </g>
     </g>
    </g>
    <g id="ytick_4">
     <g id="line2d_11">
      <g>
       <use style="stroke:#000000;stroke-width:0.8;" x="57.6" xlink:href="#mecfaf6c3d4" y="146.332591"/>
      </g>
     </g>
     <g id="text_12">
      <!-- 0.6 -->
      <g transform="translate(34.696875 150.131809)scale(0.1 -0.1)">
       <use xlink:href="#DejaVuSans-48"/>
       <use x="63.623047" xlink:href="#DejaVuSans-46"/>
       <use x="95.410156" xlink:href="#DejaVuSans-54"/>
      </g>
     </g>
    </g>
    <g id="ytick_5">
     <g id="line2d_12">
      <g>
       <use style="stroke:#000000;stroke-width:0.8;" x="57.6" xlink:href="#mecfaf6c3d4" y="96.614119"/>
      </g>
     </g>
     <g id="text_13">
      <!-- 0.8 -->
      <g transform="translate(34.696875 100.413338)scale(0.1 -0.1)">
       <use xlink:href="#DejaVuSans-48"/>
       <use x="63.623047" xlink:href="#DejaVuSans-46"/>
       <use x="95.410156" xlink:href="#DejaVuSans-56"/>
      </g>
     </g>
    </g>
    <g id="ytick_6">
     <g id="line2d_13">
      <g>
       <use style="stroke:#000000;stroke-width:0.8;" x="57.6" xlink:href="#mecfaf6c3d4" y="46.895647"/>
      </g>
     </g>
     <g id="text_14">
      <!-- 1.0 -->
      <g transform="translate(34.696875 50.694866)scale(0.1 -0.1)">
       <use xlink:href="#DejaVuSans-49"/>
       <use x="63.623047" xlink:href="#DejaVuSans-46"/>
       <use x="95.410156" xlink:href="#DejaVuSans-48"/>
      </g>
     </g>
    </g>
    <g id="text_15">
     <!-- sobols_total -->
     <defs>
      <path d="M 44.28125 53.078125 
L 44.28125 44.578125 
Q 40.484375 46.53125 36.375 47.5 
Q 32.28125 48.484375 27.875 48.484375 
Q 21.1875 48.484375 17.84375 46.4375 
Q 14.5 44.390625 14.5 40.28125 
Q 14.5 37.15625 16.890625 35.375 
Q 19.28125 33.59375 26.515625 31.984375 
L 29.59375 31.296875 
Q 39.15625 29.25 43.1875 25.515625 
Q 47.21875 21.78125 47.21875 15.09375 
Q 47.21875 7.46875 41.1875 3.015625 
Q 35.15625 -1.421875 24.609375 -1.421875 
Q 20.21875 -1.421875 15.453125 -0.5625 
Q 10.6875 0.296875 5.421875 2 
L 5.421875 11.28125 
Q 10.40625 8.6875 15.234375 7.390625 
Q 20.0625 6.109375 24.8125 6.109375 
Q 31.15625 6.109375 34.5625 8.28125 
Q 37.984375 10.453125 37.984375 14.40625 
Q 37.984375 18.0625 35.515625 20.015625 
Q 33.0625 21.96875 24.703125 23.78125 
L 21.578125 24.515625 
Q 13.234375 26.265625 9.515625 29.90625 
Q 5.8125 33.546875 5.8125 39.890625 
Q 5.8125 47.609375 11.28125 51.796875 
Q 16.75 56 26.8125 56 
Q 31.78125 56 36.171875 55.265625 
Q 40.578125 54.546875 44.28125 53.078125 
z
" id="DejaVuSans-115"/>
      <path d="M 48.6875 27.296875 
Q 48.6875 37.203125 44.609375 42.84375 
Q 40.53125 48.484375 33.40625 48.484375 
Q 26.265625 48.484375 22.1875 42.84375 
Q 18.109375 37.203125 18.109375 27.296875 
Q 18.109375 17.390625 22.1875 11.75 
Q 26.265625 6.109375 33.40625 6.109375 
Q 40.53125 6.109375 44.609375 11.75 
Q 48.6875 17.390625 48.6875 27.296875 
z
M 18.109375 46.390625 
Q 20.953125 51.265625 25.265625 53.625 
Q 29.59375 56 35.59375 56 
Q 45.5625 56 51.78125 48.09375 
Q 58.015625 40.1875 58.015625 27.296875 
Q 58.015625 14.40625 51.78125 6.484375 
Q 45.5625 -1.421875 35.59375 -1.421875 
Q 29.59375 -1.421875 25.265625 0.953125 
Q 20.953125 3.328125 18.109375 8.203125 
L 18.109375 0 
L 9.078125 0 
L 9.078125 75.984375 
L 18.109375 75.984375 
z
" id="DejaVuSans-98"/>
      <path d="M 9.421875 75.984375 
L 18.40625 75.984375 
L 18.40625 0 
L 9.421875 0 
z
" id="DejaVuSans-108"/>
      <path d="M 50.984375 -16.609375 
L 50.984375 -23.578125 
L -0.984375 -23.578125 
L -0.984375 -16.609375 
z
" id="DejaVuSans-95"/>
      <path d="M 18.3125 70.21875 
L 18.3125 54.6875 
L 36.8125 54.6875 
L 36.8125 47.703125 
L 18.3125 47.703125 
L 18.3125 18.015625 
Q 18.3125 11.328125 20.140625 9.421875 
Q 21.96875 7.515625 27.59375 7.515625 
L 36.8125 7.515625 
L 36.8125 0 
L 27.59375 0 
Q 17.1875 0 13.234375 3.875 
Q 9.28125 7.765625 9.28125 18.015625 
L 9.28125 47.703125 
L 2.6875 47.703125 
L 2.6875 54.6875 
L 9.28125 54.6875 
L 9.28125 70.21875 
z
" id="DejaVuSans-116"/>
      <path d="M 34.28125 27.484375 
Q 23.390625 27.484375 19.1875 25 
Q 14.984375 22.515625 14.984375 16.5 
Q 14.984375 11.71875 18.140625 8.90625 
Q 21.296875 6.109375 26.703125 6.109375 
Q 34.1875 6.109375 38.703125 11.40625 
Q 43.21875 16.703125 43.21875 25.484375 
L 43.21875 27.484375 
z
M 52.203125 31.203125 
L 52.203125 0 
L 43.21875 0 
L 43.21875 8.296875 
Q 40.140625 3.328125 35.546875 0.953125 
Q 30.953125 -1.421875 24.3125 -1.421875 
Q 15.921875 -1.421875 10.953125 3.296875 
Q 6 8.015625 6 15.921875 
Q 6 25.140625 12.171875 29.828125 
Q 18.359375 34.515625 30.609375 34.515625 
L 43.21875 34.515625 
L 43.21875 35.40625 
Q 43.21875 41.609375 39.140625 45 
Q 35.0625 48.390625 27.6875 48.390625 
Q 23 48.390625 18.546875 47.265625 
Q 14.109375 46.140625 10.015625 43.890625 
L 10.015625 52.203125 
Q 14.9375 54.109375 19.578125 55.046875 
Q 24.21875 56 28.609375 56 
Q 40.484375 56 46.34375 49.84375 
Q 52.203125 43.703125 52.203125 31.203125 
z
" id="DejaVuSans-97"/>
     </defs>
     <g transform="translate(28.339062 204.352219)rotate(-90)scale(0.1 -0.1)">
      <use xlink:href="#DejaVuSans-115"/>
      <use x="52.099609" xlink:href="#DejaVuSans-111"/>
      <use x="113.28125" xlink:href="#DejaVuSans-98"/>
      <use x="176.757812" xlink:href="#DejaVuSans-111"/>
      <use x="237.939453" xlink:href="#DejaVuSans-108"/>
      <use x="265.722656" xlink:href="#DejaVuSans-115"/>
      <use x="317.822266" xlink:href="#DejaVuSans-95"/>
      <use x="367.822266" xlink:href="#DejaVuSans-116"/>
      <use x="407.03125" xlink:href="#DejaVuSans-111"/>
      <use x="468.212891" xlink:href="#DejaVuSans-116"/>
      <use x="507.421875" xlink:href="#DejaVuSans-97"/>
      <use x="568.701172" xlink:href="#DejaVuSans-108"/>
     </g>
    </g>
   </g>
   <g id="line2d_14">
    <path clip-path="url(#p77dd4fc972)" d="M 73.832727 284.292779 
L 77.112066 284.269927 
L 80.391405 284.222583 
L 83.670744 284.149489 
L 86.950083 284.049556 
L 90.229421 283.921855 
L 93.50876 283.765602 
L 96.788099 283.580144 
L 100.067438 283.364943 
L 103.346777 283.119559 
L 106.626116 282.843638 
L 109.905455 282.536895 
L 113.184793 282.199103 
L 116.464132 281.830084 
L 119.743471 281.429703 
L 123.02281 280.997864 
L 126.302149 280.534514 
L 129.581488 280.039652 
L 132.860826 279.513337 
L 136.140165 278.955711 
L 139.419504 278.36702 
L 142.698843 277.747637 
L 145.978182 277.098092 
L 149.257521 276.419094 
L 152.53686 275.711561 
L 155.816198 274.976633 
L 159.095537 274.215696 
L 162.374876 273.430385 
L 165.654215 272.62259 
L 168.933554 271.794451 
L 172.212893 270.948347 
L 175.492231 270.086878 
L 178.77157 269.212845 
L 182.050909 268.329216 
L 185.330248 267.439097 
L 188.609587 266.545698 
L 191.888926 265.652288 
L 195.168264 264.762163 
L 198.447603 263.878597 
L 201.726942 263.004806 
L 205.006281 262.143908 
L 208.28562 261.298882 
L 211.564959 260.47254 
L 214.844298 259.667488 
L 218.123636 258.886105 
L 221.402975 258.130525 
L 224.682314 257.402613 
L 227.961653 256.703966 
L 231.240992 256.0359 
L 234.520331 255.399462 
L 237.799669 254.795429 
L 241.079008 254.224322 
L 244.358347 253.686428 
L 247.637686 253.181809 
L 250.917025 252.710334 
L 254.196364 252.271693 
L 257.475702 251.865431 
L 260.755041 251.490964 
L 264.03438 251.147612 
L 267.313719 250.83462 
L 270.593058 250.551183 
L 273.872397 250.296471 
L 277.151736 250.069649 
L 280.431074 249.869902 
L 283.710413 249.696455 
L 286.989752 249.548594 
L 290.269091 249.425686 
L 293.54843 249.327201 
L 296.827769 249.252732 
L 300.107107 249.20202 
L 303.386446 249.174975 
L 306.665785 249.171709 
L 309.945124 249.192561 
L 313.224463 249.238141 
L 316.503802 249.309367 
L 319.78314 249.407523 
L 323.062479 249.534318 
L 326.341818 249.691973 
L 329.621157 249.883312 
L 332.900496 250.111886 
L 336.179835 250.382133 
L 339.459174 250.699567 
L 342.738512 251.071028 
L 346.017851 251.504992 
L 349.29719 252.011978 
L 352.576529 252.605044 
L 355.855868 253.300437 
L 359.135207 254.118393 
L 362.414545 255.084131 
L 365.693884 256.229054 
L 368.973223 257.592146 
L 372.252562 259.22155 
L 375.531901 261.176363 
L 378.81124 263.529292 
L 382.090579 266.373001 
L 385.369917 269.839897 
L 388.649256 274.157455 
L 391.928595 279.738696 
L 395.207934 286.983827 
L 398.487273 294.178794 
" style="fill:none;stroke:#1f77b4;stroke-linecap:square;stroke-width:1.5;"/>
   </g>
   <g id="line2d_15">
    <path clip-path="url(#p77dd4fc972)" d="M 73.832727 265.05224 
L 77.112066 265.225683 
L 80.391405 265.567322 
L 83.670744 266.068529 
L 86.950083 266.717329 
L 90.229421 267.498763 
L 93.50876 268.395372 
L 96.788099 269.387769 
L 100.067438 270.455283 
L 103.346777 271.576658 
L 106.626116 272.730765 
L 109.905455 273.897307 
L 113.184793 275.057464 
L 116.464132 276.194454 
L 119.743471 277.293982 
L 123.02281 278.344531 
L 126.302149 279.337514 
L 129.581488 280.26726 
L 132.860826 281.130857 
L 136.140165 281.927869 
L 139.419504 282.659969 
L 142.698843 283.330506 
L 145.978182 283.944057 
L 149.257521 284.505989 
L 152.53686 285.022062 
L 155.816198 285.498086 
L 159.095537 285.939655 
L 162.374876 286.351952 
L 165.654215 286.73962 
L 168.933554 287.106699 
L 172.212893 287.456612 
L 175.492231 287.792188 
L 178.77157 288.11571 
L 182.050909 288.428978 
L 185.330248 288.733374 
L 188.609587 289.029935 
L 191.888926 289.319407 
L 195.168264 289.602303 
L 198.447603 289.878951 
L 201.726942 290.149527 
L 205.006281 290.41409 
L 208.28562 290.672607 
L 211.564959 290.924976 
L 214.844298 291.171039 
L 218.123636 291.410605 
L 221.402975 291.643457 
L 224.682314 291.869368 
L 227.961653 292.088112 
L 231.240992 292.299473 
L 234.520331 292.503254 
L 237.799669 292.699281 
L 241.079008 292.887414 
L 244.358347 293.067547 
L 247.637686 293.239612 
L 250.917025 293.40358 
L 254.196364 293.559463 
L 257.475702 293.707308 
L 260.755041 293.847204 
L 264.03438 293.97927 
L 267.313719 294.103657 
L 270.593058 294.220547 
L 273.872397 294.330144 
L 277.151736 294.432672 
L 280.431074 294.528374 
L 283.710413 294.617507 
L 286.989752 294.700337 
L 290.269091 294.777137 
L 293.54843 294.848189 
L 296.827769 294.913771 
L 300.107107 294.974166 
L 303.386446 295.029652 
L 306.665785 295.080505 
L 309.945124 295.126996 
L 313.224463 295.169387 
L 316.503802 295.207937 
L 319.78314 295.242893 
L 323.062479 295.274494 
L 326.341818 295.302972 
L 329.621157 295.328548 
L 332.900496 295.351431 
L 336.179835 295.371823 
L 339.459174 295.389916 
L 342.738512 295.405889 
L 346.017851 295.419914 
L 349.29719 295.432153 
L 352.576529 295.442758 
L 355.855868 295.451871 
L 359.135207 295.459628 
L 362.414545 295.466155 
L 365.693884 295.471572 
L 368.973223 295.475991 
L 372.252562 295.479522 
L 375.531901 295.482267 
L 378.81124 295.484331 
L 382.090579 295.485816 
L 385.369917 295.486827 
L 388.649256 295.487467 
L 391.928595 295.487827 
L 395.207934 295.487975 
L 398.487273 295.488 
" style="fill:none;stroke:#ff7f0e;stroke-linecap:square;stroke-width:1.5;"/>
   </g>
   <g id="line2d_16">
    <path clip-path="url(#p77dd4fc972)" d="M 73.832727 125.41602 
L 77.112066 125.434541 
L 80.391405 125.484469 
L 83.670744 125.577253 
L 86.950083 125.72425 
L 90.229421 125.936689 
L 93.50876 126.225646 
L 96.788099 126.602024 
L 100.067438 127.076548 
L 103.346777 127.659739 
L 106.626116 128.361886 
L 109.905455 129.192991 
L 113.184793 130.1627 
L 116.464132 131.280202 
L 119.743471 132.554116 
L 123.02281 133.992352 
L 126.302149 135.601964 
L 129.581488 137.388995 
L 132.860826 139.358324 
L 136.140165 141.513515 
L 139.419504 143.85669 
L 142.698843 146.388414 
L 145.978182 149.107607 
L 149.257521 152.011489 
L 152.53686 155.095552 
L 155.816198 158.353562 
L 159.095537 161.7776 
L 162.374876 165.358126 
L 165.654215 169.084077 
L 168.933554 172.94298 
L 172.212893 176.921099 
L 175.492231 181.003586 
L 178.77157 185.174657 
L 182.050909 189.417767 
L 185.330248 193.715802 
L 188.609587 198.051277 
L 191.888926 202.406528 
L 195.168264 206.763915 
L 198.447603 211.106024 
L 201.726942 215.415857 
L 205.006281 219.677024 
L 208.28562 223.873922 
L 211.564959 227.991898 
L 214.844298 232.017396 
L 218.123636 235.938082 
L 221.402975 239.742942 
L 224.682314 243.42236 
L 227.961653 246.968158 
L 231.240992 250.373619 
L 234.520331 253.633473 
L 237.799669 256.743867 
L 241.079008 259.702305 
L 244.358347 262.507574 
L 247.637686 265.159654 
L 250.917025 267.659614 
L 254.196364 270.009501 
L 257.475702 272.212227 
L 260.755041 274.271451 
L 264.03438 276.191469 
L 267.313719 277.977096 
L 270.593058 279.633567 
L 273.872397 281.166439 
L 277.151736 282.581495 
L 280.431074 283.884671 
L 283.710413 285.081974 
L 286.989752 286.179426 
L 290.269091 287.183002 
L 293.54843 288.098587 
L 296.827769 288.931932 
L 300.107107 289.688624 
L 303.386446 290.37406 
L 306.665785 290.993425 
L 309.945124 291.551675 
L 313.224463 292.05353 
L 316.503802 292.503467 
L 319.78314 292.905713 
L 323.062479 293.264249 
L 326.341818 293.582811 
L 329.621157 293.864894 
L 332.900496 294.113759 
L 336.179835 294.33244 
L 339.459174 294.523752 
L 342.738512 294.690304 
L 346.017851 294.834503 
L 349.29719 294.958573 
L 352.576529 295.064558 
L 355.855868 295.154339 
L 359.135207 295.229647 
L 362.414545 295.292068 
L 365.693884 295.343068 
L 368.973223 295.383996 
L 372.252562 295.416112 
L 375.531901 295.440599 
L 378.81124 295.458589 
L 382.090579 295.471182 
L 385.369917 295.479453 
L 388.649256 295.484425 
L 391.928595 295.486977 
L 395.207934 295.487836 
L 398.487273 295.487928 
" style="fill:none;stroke:#2ca02c;stroke-linecap:square;stroke-width:1.5;"/>
   </g>
   <g id="line2d_17">
    <path clip-path="url(#p77dd4fc972)" d="M 73.832727 249.739702 
L 77.112066 249.64628 
L 80.391405 249.452745 
L 83.670744 249.153945 
L 86.950083 248.74543 
L 90.229421 248.223404 
L 93.50876 247.584663 
L 96.788099 246.826532 
L 100.067438 245.946809 
L 103.346777 244.943693 
L 106.626116 243.815726 
L 109.905455 242.561739 
L 113.184793 241.180797 
L 116.464132 239.672167 
L 119.743471 238.035285 
L 123.02281 236.26975 
L 126.302149 234.375335 
L 129.581488 232.352017 
L 132.860826 230.20003 
L 136.140165 227.919941 
L 139.419504 225.512736 
L 142.698843 222.979928 
L 145.978182 220.323661 
L 149.257521 217.546822 
L 152.53686 214.653134 
L 155.816198 211.647249 
L 159.095537 208.534803 
L 162.374876 205.322463 
L 165.654215 202.017932 
L 168.933554 198.629937 
L 172.212893 195.168183 
L 175.492231 191.643278 
L 178.77157 188.066647 
L 182.050909 184.450407 
L 185.330248 180.80724 
L 188.609587 177.150245 
L 191.888926 173.492779 
L 195.168264 169.848292 
L 198.447603 166.230162 
L 201.726942 162.651528 
L 205.006281 159.125126 
L 208.28562 155.663134 
L 211.564959 152.277036 
L 214.844298 148.97749 
L 218.123636 145.774226 
L 221.402975 142.675962 
L 224.682314 139.690336 
L 227.961653 136.823876 
L 231.240992 134.08198 
L 234.520331 131.468927 
L 237.799669 128.987908 
L 241.079008 126.64107 
L 244.358347 124.42959 
L 247.637686 122.353743 
L 250.917025 120.412997 
L 254.196364 118.60611 
L 257.475702 116.931224 
L 260.755041 115.385976 
L 264.03438 113.967595 
L 267.313719 112.673011 
L 270.593058 111.498947 
L 273.872397 110.442021 
L 277.151736 109.49884 
L 280.431074 108.666085 
L 283.710413 107.940605 
L 286.989752 107.319494 
L 290.269091 106.800186 
L 293.54843 106.380531 
L 296.827769 106.058887 
L 300.107107 105.834216 
L 303.386446 105.706179 
L 306.665785 105.675257 
L 309.945124 105.742875 
L 313.224463 105.911558 
L 316.503802 106.185106 
L 319.78314 106.568815 
L 323.062479 107.069742 
L 326.341818 107.697027 
L 329.621157 108.4623 
L 332.900496 109.380191 
L 336.179835 110.468957 
L 339.459174 111.751292 
L 342.738512 113.255338 
L 346.017851 115.015979 
L 349.29719 117.076484 
L 352.576529 119.490586 
L 355.855868 122.325128 
L 359.135207 125.663367 
L 362.414545 129.609069 
L 365.693884 134.291447 
L 368.973223 139.87092 
L 372.252562 146.545591 
L 375.531901 154.558667 
L 378.81124 164.209334 
L 382.090579 175.878859 
L 385.369917 190.111807 
L 388.649256 207.843343 
L 391.928595 230.771061 
L 395.207934 260.540167 
L 398.487273 290.107348 
" style="fill:none;stroke:#d62728;stroke-linecap:square;stroke-width:1.5;"/>
   </g>
   <g id="line2d_18">
    <path clip-path="url(#p77dd4fc972)" d="M 73.832727 295.34786 
L 77.112066 295.347398 
L 80.391405 295.346441 
L 83.670744 295.34496 
L 86.950083 295.342925 
L 90.229421 295.340307 
L 93.50876 295.337073 
L 96.788099 295.333189 
L 100.067438 295.328619 
L 103.346777 295.323325 
L 106.626116 295.317263 
L 109.905455 295.310389 
L 113.184793 295.302651 
L 116.464132 295.293995 
L 119.743471 295.28436 
L 123.02281 295.273683 
L 126.302149 295.261891 
L 129.581488 295.248908 
L 132.860826 295.234652 
L 136.140165 295.219033 
L 139.419504 295.201958 
L 142.698843 295.183324 
L 145.978182 295.163027 
L 149.257521 295.140954 
L 152.53686 295.116989 
L 155.816198 295.091011 
L 159.095537 295.062893 
L 162.374876 295.032508 
L 165.654215 294.999721 
L 168.933554 294.964397 
L 172.212893 294.926397 
L 175.492231 294.885578 
L 178.77157 294.841794 
L 182.050909 294.794896 
L 185.330248 294.744732 
L 188.609587 294.691144 
L 191.888926 294.633971 
L 195.168264 294.573044 
L 198.447603 294.508187 
L 201.726942 294.439217 
L 205.006281 294.365938 
L 208.28562 294.288144 
L 211.564959 294.205612 
L 214.844298 294.118103 
L 218.123636 294.025357 
L 221.402975 293.927088 
L 224.682314 293.822986 
L 227.961653 293.712706 
L 231.240992 293.595869 
L 234.520331 293.472053 
L 237.799669 293.34079 
L 241.079008 293.201559 
L 244.358347 293.053779 
L 247.637686 292.896801 
L 250.917025 292.729902 
L 254.196364 292.552272 
L 257.475702 292.363007 
L 260.755041 292.161093 
L 264.03438 291.945393 
L 267.313719 291.714633 
L 270.593058 291.46738 
L 273.872397 291.202023 
L 277.151736 290.916743 
L 280.431074 290.60949 
L 283.710413 290.277941 
L 286.989752 289.919464 
L 290.269091 289.531064 
L 293.54843 289.109331 
L 296.827769 288.650366 
L 300.107107 288.149697 
L 303.386446 287.602185 
L 306.665785 287.001899 
L 309.945124 286.341972 
L 313.224463 285.614421 
L 316.503802 284.809936 
L 319.78314 283.917606 
L 323.062479 282.924598 
L 326.341818 281.815743 
L 329.621157 280.573037 
L 332.900496 279.175 
L 336.179835 277.595883 
L 339.459174 275.804667 
L 342.738512 273.763786 
L 346.017851 271.427523 
L 349.29719 268.739959 
L 352.576529 265.63238 
L 355.855868 262.019988 
L 359.135207 257.797793 
L 362.414545 252.835521 
L 365.693884 246.971482 
L 368.973223 240.005411 
L 372.252562 231.690424 
L 375.531901 221.723796 
L 378.81124 209.733457 
L 382.090579 195.245592 
L 385.369917 177.583913 
L 388.649256 155.587788 
L 391.928595 127.151253 
L 395.207934 90.233531 
L 398.487273 53.568 
" style="fill:none;stroke:#9467bd;stroke-linecap:square;stroke-width:1.5;"/>
   </g>
   <g id="patch_3">
    <path d="M 57.6 307.584 
L 57.6 41.472 
" style="fill:none;stroke:#000000;stroke-linecap:square;stroke-linejoin:miter;stroke-width:0.8;"/>
   </g>
   <g id="patch_4">
    <path d="M 414.72 307.584 
L 414.72 41.472 
" style="fill:none;stroke:#000000;stroke-linecap:square;stroke-linejoin:miter;stroke-width:0.8;"/>
   </g>
   <g id="patch_5">
    <path d="M 57.6 307.584 
L 414.72 307.584 
" style="fill:none;stroke:#000000;stroke-linecap:square;stroke-linejoin:miter;stroke-width:0.8;"/>
   </g>
   <g id="patch_6">
    <path d="M 57.6 41.472 
L 414.72 41.472 
" style="fill:none;stroke:#000000;stroke-linecap:square;stroke-linejoin:miter;stroke-width:0.8;"/>
   </g>
   <g id="text_16">
    <!-- /Users/dpc/src/EasyVVUQ/fusion/fusion_pce.4y92ftid -->
    <defs>
     <path d="M 25.390625 72.90625 
L 33.6875 72.90625 
L 8.296875 -9.28125 
L 0 -9.28125 
z
" id="DejaVuSans-47"/>
     <path d="M 8.6875 72.90625 
L 18.609375 72.90625 
L 18.609375 28.609375 
Q 18.609375 16.890625 22.84375 11.734375 
Q 27.09375 6.59375 36.625 6.59375 
Q 46.09375 6.59375 50.34375 11.734375 
Q 54.59375 16.890625 54.59375 28.609375 
L 54.59375 72.90625 
L 64.5 72.90625 
L 64.5 27.390625 
Q 64.5 13.140625 57.4375 5.859375 
Q 50.390625 -1.421875 36.625 -1.421875 
Q 22.796875 -1.421875 15.734375 5.859375 
Q 8.6875 13.140625 8.6875 27.390625 
z
" id="DejaVuSans-85"/>
     <path d="M 56.203125 29.59375 
L 56.203125 25.203125 
L 14.890625 25.203125 
Q 15.484375 15.921875 20.484375 11.0625 
Q 25.484375 6.203125 34.421875 6.203125 
Q 39.59375 6.203125 44.453125 7.46875 
Q 49.3125 8.734375 54.109375 11.28125 
L 54.109375 2.78125 
Q 49.265625 0.734375 44.1875 -0.34375 
Q 39.109375 -1.421875 33.890625 -1.421875 
Q 20.796875 -1.421875 13.15625 6.1875 
Q 5.515625 13.8125 5.515625 26.8125 
Q 5.515625 40.234375 12.765625 48.109375 
Q 20.015625 56 32.328125 56 
Q 43.359375 56 49.78125 48.890625 
Q 56.203125 41.796875 56.203125 29.59375 
z
M 47.21875 32.234375 
Q 47.125 39.59375 43.09375 43.984375 
Q 39.0625 48.390625 32.421875 48.390625 
Q 24.90625 48.390625 20.390625 44.140625 
Q 15.875 39.890625 15.1875 32.171875 
z
" id="DejaVuSans-101"/>
     <path d="M 45.40625 46.390625 
L 45.40625 75.984375 
L 54.390625 75.984375 
L 54.390625 0 
L 45.40625 0 
L 45.40625 8.203125 
Q 42.578125 3.328125 38.25 0.953125 
Q 33.9375 -1.421875 27.875 -1.421875 
Q 17.96875 -1.421875 11.734375 6.484375 
Q 5.515625 14.40625 5.515625 27.296875 
Q 5.515625 40.1875 11.734375 48.09375 
Q 17.96875 56 27.875 56 
Q 33.9375 56 38.25 53.625 
Q 42.578125 51.265625 45.40625 46.390625 
z
M 14.796875 27.296875 
Q 14.796875 17.390625 18.875 11.75 
Q 22.953125 6.109375 30.078125 6.109375 
Q 37.203125 6.109375 41.296875 11.75 
Q 45.40625 17.390625 45.40625 27.296875 
Q 45.40625 37.203125 41.296875 42.84375 
Q 37.203125 48.484375 30.078125 48.484375 
Q 22.953125 48.484375 18.875 42.84375 
Q 14.796875 37.203125 14.796875 27.296875 
z
" id="DejaVuSans-100"/>
     <path d="M 18.109375 8.203125 
L 18.109375 -20.796875 
L 9.078125 -20.796875 
L 9.078125 54.6875 
L 18.109375 54.6875 
L 18.109375 46.390625 
Q 20.953125 51.265625 25.265625 53.625 
Q 29.59375 56 35.59375 56 
Q 45.5625 56 51.78125 48.09375 
Q 58.015625 40.1875 58.015625 27.296875 
Q 58.015625 14.40625 51.78125 6.484375 
Q 45.5625 -1.421875 35.59375 -1.421875 
Q 29.59375 -1.421875 25.265625 0.953125 
Q 20.953125 3.328125 18.109375 8.203125 
z
M 48.6875 27.296875 
Q 48.6875 37.203125 44.609375 42.84375 
Q 40.53125 48.484375 33.40625 48.484375 
Q 26.265625 48.484375 22.1875 42.84375 
Q 18.109375 37.203125 18.109375 27.296875 
Q 18.109375 17.390625 22.1875 11.75 
Q 26.265625 6.109375 33.40625 6.109375 
Q 40.53125 6.109375 44.609375 11.75 
Q 48.6875 17.390625 48.6875 27.296875 
z
" id="DejaVuSans-112"/>
     <path d="M 48.78125 52.59375 
L 48.78125 44.1875 
Q 44.96875 46.296875 41.140625 47.34375 
Q 37.3125 48.390625 33.40625 48.390625 
Q 24.65625 48.390625 19.8125 42.84375 
Q 14.984375 37.3125 14.984375 27.296875 
Q 14.984375 17.28125 19.8125 11.734375 
Q 24.65625 6.203125 33.40625 6.203125 
Q 37.3125 6.203125 41.140625 7.25 
Q 44.96875 8.296875 48.78125 10.40625 
L 48.78125 2.09375 
Q 45.015625 0.34375 40.984375 -0.53125 
Q 36.96875 -1.421875 32.421875 -1.421875 
Q 20.0625 -1.421875 12.78125 6.34375 
Q 5.515625 14.109375 5.515625 27.296875 
Q 5.515625 40.671875 12.859375 48.328125 
Q 20.21875 56 33.015625 56 
Q 37.15625 56 41.109375 55.140625 
Q 45.0625 54.296875 48.78125 52.59375 
z
" id="DejaVuSans-99"/>
     <path d="M 9.8125 72.90625 
L 55.90625 72.90625 
L 55.90625 64.59375 
L 19.671875 64.59375 
L 19.671875 43.015625 
L 54.390625 43.015625 
L 54.390625 34.71875 
L 19.671875 34.71875 
L 19.671875 8.296875 
L 56.78125 8.296875 
L 56.78125 0 
L 9.8125 0 
z
" id="DejaVuSans-69"/>
     <path d="M 32.171875 -5.078125 
Q 28.375 -14.84375 24.75 -17.8125 
Q 21.140625 -20.796875 15.09375 -20.796875 
L 7.90625 -20.796875 
L 7.90625 -13.28125 
L 13.1875 -13.28125 
Q 16.890625 -13.28125 18.9375 -11.515625 
Q 21 -9.765625 23.484375 -3.21875 
L 25.09375 0.875 
L 2.984375 54.6875 
L 12.5 54.6875 
L 29.59375 11.921875 
L 46.6875 54.6875 
L 56.203125 54.6875 
z
" id="DejaVuSans-121"/>
     <path d="M 28.609375 0 
L 0.78125 72.90625 
L 11.078125 72.90625 
L 34.1875 11.53125 
L 57.328125 72.90625 
L 67.578125 72.90625 
L 39.796875 0 
z
" id="DejaVuSans-86"/>
     <path d="M 39.40625 66.21875 
Q 28.65625 66.21875 22.328125 58.203125 
Q 16.015625 50.203125 16.015625 36.375 
Q 16.015625 22.609375 22.328125 14.59375 
Q 28.65625 6.59375 39.40625 6.59375 
Q 50.140625 6.59375 56.421875 14.59375 
Q 62.703125 22.609375 62.703125 36.375 
Q 62.703125 50.203125 56.421875 58.203125 
Q 50.140625 66.21875 39.40625 66.21875 
z
M 53.21875 1.3125 
L 66.21875 -12.890625 
L 54.296875 -12.890625 
L 43.5 -1.21875 
Q 41.890625 -1.3125 41.03125 -1.359375 
Q 40.1875 -1.421875 39.40625 -1.421875 
Q 24.03125 -1.421875 14.8125 8.859375 
Q 5.609375 19.140625 5.609375 36.375 
Q 5.609375 53.65625 14.8125 63.9375 
Q 24.03125 74.21875 39.40625 74.21875 
Q 54.734375 74.21875 63.90625 63.9375 
Q 73.09375 53.65625 73.09375 36.375 
Q 73.09375 23.6875 67.984375 14.640625 
Q 62.890625 5.609375 53.21875 1.3125 
z
" id="DejaVuSans-81"/>
     <path d="M 37.109375 75.984375 
L 37.109375 68.5 
L 28.515625 68.5 
Q 23.6875 68.5 21.796875 66.546875 
Q 19.921875 64.59375 19.921875 59.515625 
L 19.921875 54.6875 
L 34.71875 54.6875 
L 34.71875 47.703125 
L 19.921875 47.703125 
L 19.921875 0 
L 10.890625 0 
L 10.890625 47.703125 
L 2.296875 47.703125 
L 2.296875 54.6875 
L 10.890625 54.6875 
L 10.890625 58.5 
Q 10.890625 67.625 15.140625 71.796875 
Q 19.390625 75.984375 28.609375 75.984375 
z
" id="DejaVuSans-102"/>
     <path d="M 8.5 21.578125 
L 8.5 54.6875 
L 17.484375 54.6875 
L 17.484375 21.921875 
Q 17.484375 14.15625 20.5 10.265625 
Q 23.53125 6.390625 29.59375 6.390625 
Q 36.859375 6.390625 41.078125 11.03125 
Q 45.3125 15.671875 45.3125 23.6875 
L 45.3125 54.6875 
L 54.296875 54.6875 
L 54.296875 0 
L 45.3125 0 
L 45.3125 8.40625 
Q 42.046875 3.421875 37.71875 1 
Q 33.40625 -1.421875 27.6875 -1.421875 
Q 18.265625 -1.421875 13.375 4.4375 
Q 8.5 10.296875 8.5 21.578125 
z
M 31.109375 56 
z
" id="DejaVuSans-117"/>
     <path d="M 9.421875 54.6875 
L 18.40625 54.6875 
L 18.40625 0 
L 9.421875 0 
z
M 9.421875 75.984375 
L 18.40625 75.984375 
L 18.40625 64.59375 
L 9.421875 64.59375 
z
" id="DejaVuSans-105"/>
     <path d="M 54.890625 33.015625 
L 54.890625 0 
L 45.90625 0 
L 45.90625 32.71875 
Q 45.90625 40.484375 42.875 44.328125 
Q 39.84375 48.1875 33.796875 48.1875 
Q 26.515625 48.1875 22.3125 43.546875 
Q 18.109375 38.921875 18.109375 30.90625 
L 18.109375 0 
L 9.078125 0 
L 9.078125 54.6875 
L 18.109375 54.6875 
L 18.109375 46.1875 
Q 21.34375 51.125 25.703125 53.5625 
Q 30.078125 56 35.796875 56 
Q 45.21875 56 50.046875 50.171875 
Q 54.890625 44.34375 54.890625 33.015625 
z
" id="DejaVuSans-110"/>
     <path d="M 10.984375 1.515625 
L 10.984375 10.5 
Q 14.703125 8.734375 18.5 7.8125 
Q 22.3125 6.890625 25.984375 6.890625 
Q 35.75 6.890625 40.890625 13.453125 
Q 46.046875 20.015625 46.78125 33.40625 
Q 43.953125 29.203125 39.59375 26.953125 
Q 35.25 24.703125 29.984375 24.703125 
Q 19.046875 24.703125 12.671875 31.3125 
Q 6.296875 37.9375 6.296875 49.421875 
Q 6.296875 60.640625 12.9375 67.421875 
Q 19.578125 74.21875 30.609375 74.21875 
Q 43.265625 74.21875 49.921875 64.515625 
Q 56.59375 54.828125 56.59375 36.375 
Q 56.59375 19.140625 48.40625 8.859375 
Q 40.234375 -1.421875 26.421875 -1.421875 
Q 22.703125 -1.421875 18.890625 -0.6875 
Q 15.09375 0.046875 10.984375 1.515625 
z
M 30.609375 32.421875 
Q 37.25 32.421875 41.125 36.953125 
Q 45.015625 41.5 45.015625 49.421875 
Q 45.015625 57.28125 41.125 61.84375 
Q 37.25 66.40625 30.609375 66.40625 
Q 23.96875 66.40625 20.09375 61.84375 
Q 16.21875 57.28125 16.21875 49.421875 
Q 16.21875 41.5 20.09375 36.953125 
Q 23.96875 32.421875 30.609375 32.421875 
z
" id="DejaVuSans-57"/>
    </defs>
    <g transform="translate(79.182187 35.472)scale(0.12 -0.12)">
     <use xlink:href="#DejaVuSans-47"/>
     <use x="33.691406" xlink:href="#DejaVuSans-85"/>
     <use x="106.884766" xlink:href="#DejaVuSans-115"/>
     <use x="158.984375" xlink:href="#DejaVuSans-101"/>
     <use x="220.507812" xlink:href="#DejaVuSans-114"/>
     <use x="261.621094" xlink:href="#DejaVuSans-115"/>
     <use x="313.720703" xlink:href="#DejaVuSans-47"/>
     <use x="347.412109" xlink:href="#DejaVuSans-100"/>
     <use x="410.888672" xlink:href="#DejaVuSans-112"/>
     <use x="474.365234" xlink:href="#DejaVuSans-99"/>
     <use x="529.345703" xlink:href="#DejaVuSans-47"/>
     <use x="563.037109" xlink:href="#DejaVuSans-115"/>
     <use x="615.136719" xlink:href="#DejaVuSans-114"/>
     <use x="654" xlink:href="#DejaVuSans-99"/>
     <use x="708.980469" xlink:href="#DejaVuSans-47"/>
     <use x="742.671875" xlink:href="#DejaVuSans-69"/>
     <use x="805.855469" xlink:href="#DejaVuSans-97"/>
     <use x="867.134766" xlink:href="#DejaVuSans-115"/>
     <use x="919.234375" xlink:href="#DejaVuSans-121"/>
     <use x="978.414062" xlink:href="#DejaVuSans-86"/>
     <use x="1046.822266" xlink:href="#DejaVuSans-86"/>
     <use x="1115.230469" xlink:href="#DejaVuSans-85"/>
     <use x="1188.423828" xlink:href="#DejaVuSans-81"/>
     <use x="1267.134766" xlink:href="#DejaVuSans-47"/>
     <use x="1300.826172" xlink:href="#DejaVuSans-102"/>
     <use x="1336.03125" xlink:href="#DejaVuSans-117"/>
     <use x="1399.410156" xlink:href="#DejaVuSans-115"/>
     <use x="1451.509766" xlink:href="#DejaVuSans-105"/>
     <use x="1479.292969" xlink:href="#DejaVuSans-111"/>
     <use x="1540.474609" xlink:href="#DejaVuSans-110"/>
     <use x="1603.853516" xlink:href="#DejaVuSans-47"/>
     <use x="1637.544922" xlink:href="#DejaVuSans-102"/>
     <use x="1672.75" xlink:href="#DejaVuSans-117"/>
     <use x="1736.128906" xlink:href="#DejaVuSans-115"/>
     <use x="1788.228516" xlink:href="#DejaVuSans-105"/>
     <use x="1816.011719" xlink:href="#DejaVuSans-111"/>
     <use x="1877.193359" xlink:href="#DejaVuSans-110"/>
     <use x="1940.572266" xlink:href="#DejaVuSans-95"/>
     <use x="1990.572266" xlink:href="#DejaVuSans-112"/>
     <use x="2054.048828" xlink:href="#DejaVuSans-99"/>
     <use x="2109.029297" xlink:href="#DejaVuSans-101"/>
     <use x="2170.552734" xlink:href="#DejaVuSans-46"/>
     <use x="2202.339844" xlink:href="#DejaVuSans-52"/>
     <use x="2265.962891" xlink:href="#DejaVuSans-121"/>
     <use x="2325.142578" xlink:href="#DejaVuSans-57"/>
     <use x="2388.765625" xlink:href="#DejaVuSans-50"/>
     <use x="2452.388672" xlink:href="#DejaVuSans-102"/>
     <use x="2485.84375" xlink:href="#DejaVuSans-116"/>
     <use x="2525.052734" xlink:href="#DejaVuSans-105"/>
     <use x="2552.835938" xlink:href="#DejaVuSans-100"/>
    </g>
   </g>
   <g id="legend_1">
    <g id="patch_7">
     <path d="M 64.6 123.418875 
L 129.584375 123.418875 
Q 131.584375 123.418875 131.584375 121.418875 
L 131.584375 48.472 
Q 131.584375 46.472 129.584375 46.472 
L 64.6 46.472 
Q 62.6 46.472 62.6 48.472 
L 62.6 121.418875 
Q 62.6 123.418875 64.6 123.418875 
z
" style="fill:#ffffff;opacity:0.8;stroke:#cccccc;stroke-linejoin:miter;"/>
    </g>
    <g id="line2d_19">
     <path d="M 66.6 54.570438 
L 86.6 54.570438 
" style="fill:none;stroke:#1f77b4;stroke-linecap:square;stroke-width:1.5;"/>
    </g>
    <g id="line2d_20"/>
    <g id="text_17">
     <!-- Qe_tot -->
     <g transform="translate(94.6 58.070438)scale(0.1 -0.1)">
      <use xlink:href="#DejaVuSans-81"/>
      <use x="78.710938" xlink:href="#DejaVuSans-101"/>
      <use x="140.234375" xlink:href="#DejaVuSans-95"/>
      <use x="190.234375" xlink:href="#DejaVuSans-116"/>
      <use x="229.443359" xlink:href="#DejaVuSans-111"/>
      <use x="290.625" xlink:href="#DejaVuSans-116"/>
     </g>
    </g>
    <g id="line2d_21">
     <path d="M 66.6 69.526688 
L 86.6 69.526688 
" style="fill:none;stroke:#ff7f0e;stroke-linecap:square;stroke-width:1.5;"/>
    </g>
    <g id="line2d_22"/>
    <g id="text_18">
     <!-- H0 -->
     <defs>
      <path d="M 9.8125 72.90625 
L 19.671875 72.90625 
L 19.671875 43.015625 
L 55.515625 43.015625 
L 55.515625 72.90625 
L 65.375 72.90625 
L 65.375 0 
L 55.515625 0 
L 55.515625 34.71875 
L 19.671875 34.71875 
L 19.671875 0 
L 9.8125 0 
z
" id="DejaVuSans-72"/>
     </defs>
     <g transform="translate(94.6 73.026688)scale(0.1 -0.1)">
      <use xlink:href="#DejaVuSans-72"/>
      <use x="75.195312" xlink:href="#DejaVuSans-48"/>
     </g>
    </g>
    <g id="line2d_23">
     <path d="M 66.6 84.204813 
L 86.6 84.204813 
" style="fill:none;stroke:#2ca02c;stroke-linecap:square;stroke-width:1.5;"/>
    </g>
    <g id="line2d_24"/>
    <g id="text_19">
     <!-- Hw -->
     <defs>
      <path d="M 4.203125 54.6875 
L 13.1875 54.6875 
L 24.421875 12.015625 
L 35.59375 54.6875 
L 46.1875 54.6875 
L 57.421875 12.015625 
L 68.609375 54.6875 
L 77.59375 54.6875 
L 63.28125 0 
L 52.6875 0 
L 40.921875 44.828125 
L 29.109375 0 
L 18.5 0 
z
" id="DejaVuSans-119"/>
     </defs>
     <g transform="translate(94.6 87.704813)scale(0.1 -0.1)">
      <use xlink:href="#DejaVuSans-72"/>
      <use x="75.195312" xlink:href="#DejaVuSans-119"/>
     </g>
    </g>
    <g id="line2d_25">
     <path d="M 66.6 98.882938 
L 86.6 98.882938 
" style="fill:none;stroke:#d62728;stroke-linecap:square;stroke-width:1.5;"/>
    </g>
    <g id="line2d_26"/>
    <g id="text_20">
     <!-- chi -->
     <g transform="translate(94.6 102.382938)scale(0.1 -0.1)">
      <use xlink:href="#DejaVuSans-99"/>
      <use x="54.980469" xlink:href="#DejaVuSans-104"/>
      <use x="118.359375" xlink:href="#DejaVuSans-105"/>
     </g>
    </g>
    <g id="line2d_27">
     <path d="M 66.6 113.561063 
L 86.6 113.561063 
" style="fill:none;stroke:#9467bd;stroke-linecap:square;stroke-width:1.5;"/>
    </g>
    <g id="line2d_28"/>
    <g id="text_21">
     <!-- Te_bc -->
     <defs>
      <path d="M -0.296875 72.90625 
L 61.375 72.90625 
L 61.375 64.59375 
L 35.5 64.59375 
L 35.5 0 
L 25.59375 0 
L 25.59375 64.59375 
L -0.296875 64.59375 
z
" id="DejaVuSans-84"/>
     </defs>
     <g transform="translate(94.6 117.061063)scale(0.1 -0.1)">
      <use xlink:href="#DejaVuSans-84"/>
      <use x="44.083984" xlink:href="#DejaVuSans-101"/>
      <use x="105.607422" xlink:href="#DejaVuSans-95"/>
      <use x="155.607422" xlink:href="#DejaVuSans-98"/>
      <use x="219.083984" xlink:href="#DejaVuSans-99"/>
     </g>
    </g>
   </g>
  </g>
 </g>
 <defs>
  <clipPath id="p77dd4fc972">
   <rect height="266.112" width="357.12" x="57.6" y="41.472"/>
  </clipPath>
 </defs>
</svg>
