<?xml version="1.0" encoding="utf-8" standalone="no"?>
<!DOCTYPE svg PUBLIC "-//W3C//DTD SVG 1.1//EN"
  "http://www.w3.org/Graphics/SVG/1.1/DTD/svg11.dtd">
<!-- Created with matplotlib (https://matplotlib.org/) -->
<svg height="345.6pt" version="1.1" viewBox="0 0 460.8 345.6" width="460.8pt" xmlns="http://www.w3.org/2000/svg" xmlns:xlink="http://www.w3.org/1999/xlink">
 <defs>
  <style type="text/css">
*{stroke-linecap:butt;stroke-linejoin:round;}
  </style>
 </defs>
 <g id="figure_1">
  <g id="patch_1">
   <path d="M 0 345.6 
L 460.8 345.6 
L 460.8 0 
L 0 0 
z
" style="fill:#ffffff;"/>
  </g>
  <g id="axes_1">
   <g id="patch_2">
    <path d="M 57.6 307.584 
L 414.72 307.584 
L 414.72 41.472 
L 57.6 41.472 
z
" style="fill:#ffffff;"/>
   </g>
   <g id="matplotlib.axis_1">
    <g id="xtick_1">
     <g id="line2d_1">
      <defs>
       <path d="M 0 0 
L 0 3.5 
" id="mb1406a2091" style="stroke:#000000;stroke-width:0.8;"/>
      </defs>
      <g>
       <use style="stroke:#000000;stroke-width:0.8;" x="72.193058" xlink:href="#mb1406a2091" y="307.584"/>
      </g>
     </g>
     <g id="text_1">
      <!-- 0.0 -->
      <defs>
       <path d="M 31.78125 66.40625 
Q 24.171875 66.40625 20.328125 58.90625 
Q 16.5 51.421875 16.5 36.375 
Q 16.5 21.390625 20.328125 13.890625 
Q 24.171875 6.390625 31.78125 6.390625 
Q 39.453125 6.390625 43.28125 13.890625 
Q 47.125 21.390625 47.125 36.375 
Q 47.125 51.421875 43.28125 58.90625 
Q 39.453125 66.40625 31.78125 66.40625 
z
M 31.78125 74.21875 
Q 44.046875 74.21875 50.515625 64.515625 
Q 56.984375 54.828125 56.984375 36.375 
Q 56.984375 17.96875 50.515625 8.265625 
Q 44.046875 -1.421875 31.78125 -1.421875 
Q 19.53125 -1.421875 13.0625 8.265625 
Q 6.59375 17.96875 6.59375 36.375 
Q 6.59375 54.828125 13.0625 64.515625 
Q 19.53125 74.21875 31.78125 74.21875 
z
" id="DejaVuSans-48"/>
       <path d="M 10.6875 12.40625 
L 21 12.40625 
L 21 0 
L 10.6875 0 
z
" id="DejaVuSans-46"/>
      </defs>
      <g transform="translate(64.241495 322.182437)scale(0.1 -0.1)">
       <use xlink:href="#DejaVuSans-48"/>
       <use x="63.623047" xlink:href="#DejaVuSans-46"/>
       <use x="95.410156" xlink:href="#DejaVuSans-48"/>
      </g>
     </g>
    </g>
    <g id="xtick_2">
     <g id="line2d_2">
      <g>
       <use style="stroke:#000000;stroke-width:0.8;" x="125.744437" xlink:href="#mb1406a2091" y="307.584"/>
      </g>
     </g>
     <g id="text_2">
      <!-- 0.2 -->
      <defs>
       <path d="M 19.1875 8.296875 
L 53.609375 8.296875 
L 53.609375 0 
L 7.328125 0 
L 7.328125 8.296875 
Q 12.9375 14.109375 22.625 23.890625 
Q 32.328125 33.6875 34.8125 36.53125 
Q 39.546875 41.84375 41.421875 45.53125 
Q 43.3125 49.21875 43.3125 52.78125 
Q 43.3125 58.59375 39.234375 62.25 
Q 35.15625 65.921875 28.609375 65.921875 
Q 23.96875 65.921875 18.8125 64.3125 
Q 13.671875 62.703125 7.8125 59.421875 
L 7.8125 69.390625 
Q 13.765625 71.78125 18.9375 73 
Q 24.125 74.21875 28.421875 74.21875 
Q 39.75 74.21875 46.484375 68.546875 
Q 53.21875 62.890625 53.21875 53.421875 
Q 53.21875 48.921875 51.53125 44.890625 
Q 49.859375 40.875 45.40625 35.40625 
Q 44.1875 33.984375 37.640625 27.21875 
Q 31.109375 20.453125 19.1875 8.296875 
z
" id="DejaVuSans-50"/>
      </defs>
      <g transform="translate(117.792874 322.182437)scale(0.1 -0.1)">
       <use xlink:href="#DejaVuSans-48"/>
       <use x="63.623047" xlink:href="#DejaVuSans-46"/>
       <use x="95.410156" xlink:href="#DejaVuSans-50"/>
      </g>
     </g>
    </g>
    <g id="xtick_3">
     <g id="line2d_3">
      <g>
       <use style="stroke:#000000;stroke-width:0.8;" x="179.295816" xlink:href="#mb1406a2091" y="307.584"/>
      </g>
     </g>
     <g id="text_3">
      <!-- 0.4 -->
      <defs>
       <path d="M 37.796875 64.3125 
L 12.890625 25.390625 
L 37.796875 25.390625 
z
M 35.203125 72.90625 
L 47.609375 72.90625 
L 47.609375 25.390625 
L 58.015625 25.390625 
L 58.015625 17.1875 
L 47.609375 17.1875 
L 47.609375 0 
L 37.796875 0 
L 37.796875 17.1875 
L 4.890625 17.1875 
L 4.890625 26.703125 
z
" id="DejaVuSans-52"/>
      </defs>
      <g transform="translate(171.344253 322.182437)scale(0.1 -0.1)">
       <use xlink:href="#DejaVuSans-48"/>
       <use x="63.623047" xlink:href="#DejaVuSans-46"/>
       <use x="95.410156" xlink:href="#DejaVuSans-52"/>
      </g>
     </g>
    </g>
    <g id="xtick_4">
     <g id="line2d_4">
      <g>
       <use style="stroke:#000000;stroke-width:0.8;" x="232.847195" xlink:href="#mb1406a2091" y="307.584"/>
      </g>
     </g>
     <g id="text_4">
      <!-- 0.6 -->
      <defs>
       <path d="M 33.015625 40.375 
Q 26.375 40.375 22.484375 35.828125 
Q 18.609375 31.296875 18.609375 23.390625 
Q 18.609375 15.53125 22.484375 10.953125 
Q 26.375 6.390625 33.015625 6.390625 
Q 39.65625 6.390625 43.53125 10.953125 
Q 47.40625 15.53125 47.40625 23.390625 
Q 47.40625 31.296875 43.53125 35.828125 
Q 39.65625 40.375 33.015625 40.375 
z
M 52.59375 71.296875 
L 52.59375 62.3125 
Q 48.875 64.0625 45.09375 64.984375 
Q 41.3125 65.921875 37.59375 65.921875 
Q 27.828125 65.921875 22.671875 59.328125 
Q 17.53125 52.734375 16.796875 39.40625 
Q 19.671875 43.65625 24.015625 45.921875 
Q 28.375 48.1875 33.59375 48.1875 
Q 44.578125 48.1875 50.953125 41.515625 
Q 57.328125 34.859375 57.328125 23.390625 
Q 57.328125 12.15625 50.6875 5.359375 
Q 44.046875 -1.421875 33.015625 -1.421875 
Q 20.359375 -1.421875 13.671875 8.265625 
Q 6.984375 17.96875 6.984375 36.375 
Q 6.984375 53.65625 15.1875 63.9375 
Q 23.390625 74.21875 37.203125 74.21875 
Q 40.921875 74.21875 44.703125 73.484375 
Q 48.484375 72.75 52.59375 71.296875 
z
" id="DejaVuSans-54"/>
      </defs>
      <g transform="translate(224.895633 322.182437)scale(0.1 -0.1)">
       <use xlink:href="#DejaVuSans-48"/>
       <use x="63.623047" xlink:href="#DejaVuSans-46"/>
       <use x="95.410156" xlink:href="#DejaVuSans-54"/>
      </g>
     </g>
    </g>
    <g id="xtick_5">
     <g id="line2d_5">
      <g>
       <use style="stroke:#000000;stroke-width:0.8;" x="286.398574" xlink:href="#mb1406a2091" y="307.584"/>
      </g>
     </g>
     <g id="text_5">
      <!-- 0.8 -->
      <defs>
       <path d="M 31.78125 34.625 
Q 24.75 34.625 20.71875 30.859375 
Q 16.703125 27.09375 16.703125 20.515625 
Q 16.703125 13.921875 20.71875 10.15625 
Q 24.75 6.390625 31.78125 6.390625 
Q 38.8125 6.390625 42.859375 10.171875 
Q 46.921875 13.96875 46.921875 20.515625 
Q 46.921875 27.09375 42.890625 30.859375 
Q 38.875 34.625 31.78125 34.625 
z
M 21.921875 38.8125 
Q 15.578125 40.375 12.03125 44.71875 
Q 8.5 49.078125 8.5 55.328125 
Q 8.5 64.0625 14.71875 69.140625 
Q 20.953125 74.21875 31.78125 74.21875 
Q 42.671875 74.21875 48.875 69.140625 
Q 55.078125 64.0625 55.078125 55.328125 
Q 55.078125 49.078125 51.53125 44.71875 
Q 48 40.375 41.703125 38.8125 
Q 48.828125 37.15625 52.796875 32.3125 
Q 56.78125 27.484375 56.78125 20.515625 
Q 56.78125 9.90625 50.3125 4.234375 
Q 43.84375 -1.421875 31.78125 -1.421875 
Q 19.734375 -1.421875 13.25 4.234375 
Q 6.78125 9.90625 6.78125 20.515625 
Q 6.78125 27.484375 10.78125 32.3125 
Q 14.796875 37.15625 21.921875 38.8125 
z
M 18.3125 54.390625 
Q 18.3125 48.734375 21.84375 45.5625 
Q 25.390625 42.390625 31.78125 42.390625 
Q 38.140625 42.390625 41.71875 45.5625 
Q 45.3125 48.734375 45.3125 54.390625 
Q 45.3125 60.0625 41.71875 63.234375 
Q 38.140625 66.40625 31.78125 66.40625 
Q 25.390625 66.40625 21.84375 63.234375 
Q 18.3125 60.0625 18.3125 54.390625 
z
" id="DejaVuSans-56"/>
      </defs>
      <g transform="translate(278.447012 322.182437)scale(0.1 -0.1)">
       <use xlink:href="#DejaVuSans-48"/>
       <use x="63.623047" xlink:href="#DejaVuSans-46"/>
       <use x="95.410156" xlink:href="#DejaVuSans-56"/>
      </g>
     </g>
    </g>
    <g id="xtick_6">
     <g id="line2d_6">
      <g>
       <use style="stroke:#000000;stroke-width:0.8;" x="339.949953" xlink:href="#mb1406a2091" y="307.584"/>
      </g>
     </g>
     <g id="text_6">
      <!-- 1.0 -->
      <defs>
       <path d="M 12.40625 8.296875 
L 28.515625 8.296875 
L 28.515625 63.921875 
L 10.984375 60.40625 
L 10.984375 69.390625 
L 28.421875 72.90625 
L 38.28125 72.90625 
L 38.28125 8.296875 
L 54.390625 8.296875 
L 54.390625 0 
L 12.40625 0 
z
" id="DejaVuSans-49"/>
      </defs>
      <g transform="translate(331.998391 322.182437)scale(0.1 -0.1)">
       <use xlink:href="#DejaVuSans-49"/>
       <use x="63.623047" xlink:href="#DejaVuSans-46"/>
       <use x="95.410156" xlink:href="#DejaVuSans-48"/>
      </g>
     </g>
    </g>
    <g id="xtick_7">
     <g id="line2d_7">
      <g>
       <use style="stroke:#000000;stroke-width:0.8;" x="393.501332" xlink:href="#mb1406a2091" y="307.584"/>
      </g>
     </g>
     <g id="text_7">
      <!-- 1.2 -->
      <g transform="translate(385.54977 322.182437)scale(0.1 -0.1)">
       <use xlink:href="#DejaVuSans-49"/>
       <use x="63.623047" xlink:href="#DejaVuSans-46"/>
       <use x="95.410156" xlink:href="#DejaVuSans-50"/>
      </g>
     </g>
    </g>
    <g id="text_8">
     <!-- rho [m] -->
     <defs>
      <path d="M 41.109375 46.296875 
Q 39.59375 47.171875 37.8125 47.578125 
Q 36.03125 48 33.890625 48 
Q 26.265625 48 22.1875 43.046875 
Q 18.109375 38.09375 18.109375 28.8125 
L 18.109375 0 
L 9.078125 0 
L 9.078125 54.6875 
L 18.109375 54.6875 
L 18.109375 46.1875 
Q 20.953125 51.171875 25.484375 53.578125 
Q 30.03125 56 36.53125 56 
Q 37.453125 56 38.578125 55.875 
Q 39.703125 55.765625 41.0625 55.515625 
z
" id="DejaVuSans-114"/>
      <path d="M 54.890625 33.015625 
L 54.890625 0 
L 45.90625 0 
L 45.90625 32.71875 
Q 45.90625 40.484375 42.875 44.328125 
Q 39.84375 48.1875 33.796875 48.1875 
Q 26.515625 48.1875 22.3125 43.546875 
Q 18.109375 38.921875 18.109375 30.90625 
L 18.109375 0 
L 9.078125 0 
L 9.078125 75.984375 
L 18.109375 75.984375 
L 18.109375 46.1875 
Q 21.34375 51.125 25.703125 53.5625 
Q 30.078125 56 35.796875 56 
Q 45.21875 56 50.046875 50.171875 
Q 54.890625 44.34375 54.890625 33.015625 
z
" id="DejaVuSans-104"/>
      <path d="M 30.609375 48.390625 
Q 23.390625 48.390625 19.1875 42.75 
Q 14.984375 37.109375 14.984375 27.296875 
Q 14.984375 17.484375 19.15625 11.84375 
Q 23.34375 6.203125 30.609375 6.203125 
Q 37.796875 6.203125 41.984375 11.859375 
Q 46.1875 17.53125 46.1875 27.296875 
Q 46.1875 37.015625 41.984375 42.703125 
Q 37.796875 48.390625 30.609375 48.390625 
z
M 30.609375 56 
Q 42.328125 56 49.015625 48.375 
Q 55.71875 40.765625 55.71875 27.296875 
Q 55.71875 13.875 49.015625 6.21875 
Q 42.328125 -1.421875 30.609375 -1.421875 
Q 18.84375 -1.421875 12.171875 6.21875 
Q 5.515625 13.875 5.515625 27.296875 
Q 5.515625 40.765625 12.171875 48.375 
Q 18.84375 56 30.609375 56 
z
" id="DejaVuSans-111"/>
      <path id="DejaVuSans-32"/>
      <path d="M 8.59375 75.984375 
L 29.296875 75.984375 
L 29.296875 69 
L 17.578125 69 
L 17.578125 -6.203125 
L 29.296875 -6.203125 
L 29.296875 -13.1875 
L 8.59375 -13.1875 
z
" id="DejaVuSans-91"/>
      <path d="M 52 44.1875 
Q 55.375 50.25 60.0625 53.125 
Q 64.75 56 71.09375 56 
Q 79.640625 56 84.28125 50.015625 
Q 88.921875 44.046875 88.921875 33.015625 
L 88.921875 0 
L 79.890625 0 
L 79.890625 32.71875 
Q 79.890625 40.578125 77.09375 44.375 
Q 74.3125 48.1875 68.609375 48.1875 
Q 61.625 48.1875 57.5625 43.546875 
Q 53.515625 38.921875 53.515625 30.90625 
L 53.515625 0 
L 44.484375 0 
L 44.484375 32.71875 
Q 44.484375 40.625 41.703125 44.40625 
Q 38.921875 48.1875 33.109375 48.1875 
Q 26.21875 48.1875 22.15625 43.53125 
Q 18.109375 38.875 18.109375 30.90625 
L 18.109375 0 
L 9.078125 0 
L 9.078125 54.6875 
L 18.109375 54.6875 
L 18.109375 46.1875 
Q 21.1875 51.21875 25.484375 53.609375 
Q 29.78125 56 35.6875 56 
Q 41.65625 56 45.828125 52.96875 
Q 50 49.953125 52 44.1875 
z
" id="DejaVuSans-109"/>
      <path d="M 30.421875 75.984375 
L 30.421875 -13.1875 
L 9.71875 -13.1875 
L 9.71875 -6.203125 
L 21.390625 -6.203125 
L 21.390625 69 
L 9.71875 69 
L 9.71875 75.984375 
z
" id="DejaVuSans-93"/>
     </defs>
     <g transform="translate(217.602969 335.860562)scale(0.1 -0.1)">
      <use xlink:href="#DejaVuSans-114"/>
      <use x="39.363281" xlink:href="#DejaVuSans-104"/>
      <use x="102.742188" xlink:href="#DejaVuSans-111"/>
      <use x="163.923828" xlink:href="#DejaVuSans-32"/>
      <use x="195.710938" xlink:href="#DejaVuSans-91"/>
      <use x="234.724609" xlink:href="#DejaVuSans-109"/>
      <use x="332.136719" xlink:href="#DejaVuSans-93"/>
     </g>
    </g>
   </g>
   <g id="matplotlib.axis_2">
    <g id="ytick_1">
     <g id="line2d_8">
      <defs>
       <path d="M 0 0 
L -3.5 0 
" id="m1d1f0ab2cd" style="stroke:#000000;stroke-width:0.8;"/>
      </defs>
      <g>
       <use style="stroke:#000000;stroke-width:0.8;" x="57.6" xlink:href="#m1d1f0ab2cd" y="295.488002"/>
      </g>
     </g>
     <g id="text_9">
      <!-- 0.0 -->
      <g transform="translate(34.696875 299.287221)scale(0.1 -0.1)">
       <use xlink:href="#DejaVuSans-48"/>
       <use x="63.623047" xlink:href="#DejaVuSans-46"/>
       <use x="95.410156" xlink:href="#DejaVuSans-48"/>
      </g>
     </g>
    </g>
    <g id="ytick_2">
     <g id="line2d_9">
      <g>
       <use style="stroke:#000000;stroke-width:0.8;" x="57.6" xlink:href="#m1d1f0ab2cd" y="245.769531"/>
      </g>
     </g>
     <g id="text_10">
      <!-- 0.2 -->
      <g transform="translate(34.696875 249.56875)scale(0.1 -0.1)">
       <use xlink:href="#DejaVuSans-48"/>
       <use x="63.623047" xlink:href="#DejaVuSans-46"/>
       <use x="95.410156" xlink:href="#DejaVuSans-50"/>
      </g>
     </g>
    </g>
    <g id="ytick_3">
     <g id="line2d_10">
      <g>
       <use style="stroke:#000000;stroke-width:0.8;" x="57.6" xlink:href="#m1d1f0ab2cd" y="196.05106"/>
      </g>
     </g>
     <g id="text_11">
      <!-- 0.4 -->
      <g transform="translate(34.696875 199.850279)scale(0.1 -0.1)">
       <use xlink:href="#DejaVuSans-48"/>
       <use x="63.623047" xlink:href="#DejaVuSans-46"/>
       <use x="95.410156" xlink:href="#DejaVuSans-52"/>
      </g>
     </g>
    </g>
    <g id="ytick_4">
     <g id="line2d_11">
      <g>
       <use style="stroke:#000000;stroke-width:0.8;" x="57.6" xlink:href="#m1d1f0ab2cd" y="146.332589"/>
      </g>
     </g>
     <g id="text_12">
      <!-- 0.6 -->
      <g transform="translate(34.696875 150.131808)scale(0.1 -0.1)">
       <use xlink:href="#DejaVuSans-48"/>
       <use x="63.623047" xlink:href="#DejaVuSans-46"/>
       <use x="95.410156" xlink:href="#DejaVuSans-54"/>
      </g>
     </g>
    </g>
    <g id="ytick_5">
     <g id="line2d_12">
      <g>
       <use style="stroke:#000000;stroke-width:0.8;" x="57.6" xlink:href="#m1d1f0ab2cd" y="96.614118"/>
      </g>
     </g>
     <g id="text_13">
      <!-- 0.8 -->
      <g transform="translate(34.696875 100.413337)scale(0.1 -0.1)">
       <use xlink:href="#DejaVuSans-48"/>
       <use x="63.623047" xlink:href="#DejaVuSans-46"/>
       <use x="95.410156" xlink:href="#DejaVuSans-56"/>
      </g>
     </g>
    </g>
    <g id="ytick_6">
     <g id="line2d_13">
      <g>
       <use style="stroke:#000000;stroke-width:0.8;" x="57.6" xlink:href="#m1d1f0ab2cd" y="46.895647"/>
      </g>
     </g>
     <g id="text_14">
      <!-- 1.0 -->
      <g transform="translate(34.696875 50.694866)scale(0.1 -0.1)">
       <use xlink:href="#DejaVuSans-49"/>
       <use x="63.623047" xlink:href="#DejaVuSans-46"/>
       <use x="95.410156" xlink:href="#DejaVuSans-48"/>
      </g>
     </g>
    </g>
    <g id="text_15">
     <!-- sobols_first -->
     <defs>
      <path d="M 44.28125 53.078125 
L 44.28125 44.578125 
Q 40.484375 46.53125 36.375 47.5 
Q 32.28125 48.484375 27.875 48.484375 
Q 21.1875 48.484375 17.84375 46.4375 
Q 14.5 44.390625 14.5 40.28125 
Q 14.5 37.15625 16.890625 35.375 
Q 19.28125 33.59375 26.515625 31.984375 
L 29.59375 31.296875 
Q 39.15625 29.25 43.1875 25.515625 
Q 47.21875 21.78125 47.21875 15.09375 
Q 47.21875 7.46875 41.1875 3.015625 
Q 35.15625 -1.421875 24.609375 -1.421875 
Q 20.21875 -1.421875 15.453125 -0.5625 
Q 10.6875 0.296875 5.421875 2 
L 5.421875 11.28125 
Q 10.40625 8.6875 15.234375 7.390625 
Q 20.0625 6.109375 24.8125 6.109375 
Q 31.15625 6.109375 34.5625 8.28125 
Q 37.984375 10.453125 37.984375 14.40625 
Q 37.984375 18.0625 35.515625 20.015625 
Q 33.0625 21.96875 24.703125 23.78125 
L 21.578125 24.515625 
Q 13.234375 26.265625 9.515625 29.90625 
Q 5.8125 33.546875 5.8125 39.890625 
Q 5.8125 47.609375 11.28125 51.796875 
Q 16.75 56 26.8125 56 
Q 31.78125 56 36.171875 55.265625 
Q 40.578125 54.546875 44.28125 53.078125 
z
" id="DejaVuSans-115"/>
      <path d="M 48.6875 27.296875 
Q 48.6875 37.203125 44.609375 42.84375 
Q 40.53125 48.484375 33.40625 48.484375 
Q 26.265625 48.484375 22.1875 42.84375 
Q 18.109375 37.203125 18.109375 27.296875 
Q 18.109375 17.390625 22.1875 11.75 
Q 26.265625 6.109375 33.40625 6.109375 
Q 40.53125 6.109375 44.609375 11.75 
Q 48.6875 17.390625 48.6875 27.296875 
z
M 18.109375 46.390625 
Q 20.953125 51.265625 25.265625 53.625 
Q 29.59375 56 35.59375 56 
Q 45.5625 56 51.78125 48.09375 
Q 58.015625 40.1875 58.015625 27.296875 
Q 58.015625 14.40625 51.78125 6.484375 
Q 45.5625 -1.421875 35.59375 -1.421875 
Q 29.59375 -1.421875 25.265625 0.953125 
Q 20.953125 3.328125 18.109375 8.203125 
L 18.109375 0 
L 9.078125 0 
L 9.078125 75.984375 
L 18.109375 75.984375 
z
" id="DejaVuSans-98"/>
      <path d="M 9.421875 75.984375 
L 18.40625 75.984375 
L 18.40625 0 
L 9.421875 0 
z
" id="DejaVuSans-108"/>
      <path d="M 50.984375 -16.609375 
L 50.984375 -23.578125 
L -0.984375 -23.578125 
L -0.984375 -16.609375 
z
" id="DejaVuSans-95"/>
      <path d="M 37.109375 75.984375 
L 37.109375 68.5 
L 28.515625 68.5 
Q 23.6875 68.5 21.796875 66.546875 
Q 19.921875 64.59375 19.921875 59.515625 
L 19.921875 54.6875 
L 34.71875 54.6875 
L 34.71875 47.703125 
L 19.921875 47.703125 
L 19.921875 0 
L 10.890625 0 
L 10.890625 47.703125 
L 2.296875 47.703125 
L 2.296875 54.6875 
L 10.890625 54.6875 
L 10.890625 58.5 
Q 10.890625 67.625 15.140625 71.796875 
Q 19.390625 75.984375 28.609375 75.984375 
z
" id="DejaVuSans-102"/>
      <path d="M 9.421875 54.6875 
L 18.40625 54.6875 
L 18.40625 0 
L 9.421875 0 
z
M 9.421875 75.984375 
L 18.40625 75.984375 
L 18.40625 64.59375 
L 9.421875 64.59375 
z
" id="DejaVuSans-105"/>
      <path d="M 18.3125 70.21875 
L 18.3125 54.6875 
L 36.8125 54.6875 
L 36.8125 47.703125 
L 18.3125 47.703125 
L 18.3125 18.015625 
Q 18.3125 11.328125 20.140625 9.421875 
Q 21.96875 7.515625 27.59375 7.515625 
L 36.8125 7.515625 
L 36.8125 0 
L 27.59375 0 
Q 17.1875 0 13.234375 3.875 
Q 9.28125 7.765625 9.28125 18.015625 
L 9.28125 47.703125 
L 2.6875 47.703125 
L 2.6875 54.6875 
L 9.28125 54.6875 
L 9.28125 70.21875 
z
" id="DejaVuSans-116"/>
     </defs>
     <g transform="translate(28.339062 202.688938)rotate(-90)scale(0.1 -0.1)">
      <use xlink:href="#DejaVuSans-115"/>
      <use x="52.099609" xlink:href="#DejaVuSans-111"/>
      <use x="113.28125" xlink:href="#DejaVuSans-98"/>
      <use x="176.757812" xlink:href="#DejaVuSans-111"/>
      <use x="237.939453" xlink:href="#DejaVuSans-108"/>
      <use x="265.722656" xlink:href="#DejaVuSans-115"/>
      <use x="317.822266" xlink:href="#DejaVuSans-95"/>
      <use x="367.822266" xlink:href="#DejaVuSans-102"/>
      <use x="403.027344" xlink:href="#DejaVuSans-105"/>
      <use x="430.810547" xlink:href="#DejaVuSans-114"/>
      <use x="471.923828" xlink:href="#DejaVuSans-115"/>
      <use x="524.023438" xlink:href="#DejaVuSans-116"/>
     </g>
    </g>
   </g>
   <g id="line2d_14">
    <path clip-path="url(#p4d9535afd7)" d="M 73.832727 285.080189 
L 77.112066 285.057307 
L 80.391405 285.009898 
L 83.670744 284.936695 
L 86.950083 284.836598 
L 90.229421 284.708665 
L 93.50876 284.552098 
L 96.788099 284.366229 
L 100.067438 284.150504 
L 103.346777 283.904469 
L 106.626116 283.627756 
L 109.905455 283.320067 
L 113.184793 282.981169 
L 116.464132 282.610878 
L 119.743471 282.209056 
L 123.02281 281.775608 
L 126.302149 281.310485 
L 129.581488 280.813691 
L 132.860826 280.285295 
L 136.140165 279.725449 
L 139.419504 279.134409 
L 142.698843 278.512562 
L 145.978182 277.860449 
L 149.257521 277.178791 
L 152.53686 276.468516 
L 155.816198 275.730777 
L 159.095537 274.966966 
L 162.374876 274.17873 
L 165.654215 273.367964 
L 168.933554 272.536816 
L 172.212893 271.687672 
L 175.492231 270.823137 
L 178.77157 269.946015 
L 182.050909 269.059282 
L 185.330248 268.166048 
L 188.609587 267.269528 
L 191.888926 266.372996 
L 195.168264 265.479753 
L 198.447603 264.593079 
L 201.726942 263.716196 
L 205.006281 262.852226 
L 208.28562 262.004158 
L 211.564959 261.174806 
L 214.844298 260.366784 
L 218.123636 259.582478 
L 221.402975 258.824025 
L 224.682314 258.093299 
L 227.961653 257.391897 
L 231.240992 256.721144 
L 234.520331 256.082086 
L 237.799669 255.475505 
L 241.079008 254.901925 
L 244.358347 254.36163 
L 247.637686 253.854685 
L 250.917025 253.380955 
L 254.196364 252.940132 
L 257.475702 252.531753 
L 260.755041 252.155234 
L 264.03438 251.809889 
L 267.313719 251.494957 
L 270.593058 251.209626 
L 273.872397 250.953059 
L 277.151736 250.724413 
L 280.431074 250.522864 
L 283.710413 250.347626 
L 286.989752 250.197975 
L 290.269091 250.073265 
L 293.54843 249.972954 
L 296.827769 249.89662 
L 300.107107 249.843988 
L 303.386446 249.814952 
L 306.665785 249.809602 
L 309.945124 249.828258 
L 313.224463 249.871503 
L 316.503802 249.940229 
L 319.78314 250.035686 
L 323.062479 250.159549 
L 326.341818 250.313994 
L 329.621157 250.501795 
L 332.900496 250.726445 
L 336.179835 250.992312 
L 339.459174 251.304825 
L 342.738512 251.670722 
L 346.017851 252.098361 
L 349.29719 252.598107 
L 352.576529 253.182839 
L 355.855868 253.868578 
L 359.135207 254.675282 
L 362.414545 255.627826 
L 365.693884 256.757185 
L 368.973223 258.101817 
L 372.252562 259.70921 
L 375.531901 261.637666 
L 378.81124 263.958909 
L 382.090579 266.764356 
L 385.369917 270.184628 
L 388.649256 274.444142 
L 391.928595 279.950364 
L 395.207934 287.098119 
L 398.487273 294.196387 
" style="fill:none;stroke:#1f77b4;stroke-linecap:square;stroke-width:1.5;"/>
   </g>
   <g id="line2d_15">
    <path clip-path="url(#p4d9535afd7)" d="M 73.832727 271.052863 
L 77.112066 271.150838 
L 80.391405 271.342459 
L 83.670744 271.622916 
L 86.950083 271.98663 
L 90.229421 272.427355 
L 93.50876 272.938271 
L 96.788099 273.512071 
L 100.067438 274.141055 
L 103.346777 274.817214 
L 106.626116 275.532344 
L 109.905455 276.278158 
L 113.184793 277.046417 
L 116.464132 277.829075 
L 119.743471 278.618423 
L 123.02281 279.407236 
L 126.302149 280.188905 
L 129.581488 280.957559 
L 132.860826 281.708142 
L 136.140165 282.436481 
L 139.419504 283.139299 
L 142.698843 283.814203 
L 145.978182 284.459638 
L 149.257521 285.074812 
L 152.53686 285.659602 
L 155.816198 286.214442 
L 159.095537 286.740214 
L 162.374876 287.238126 
L 165.654215 287.709612 
L 168.933554 288.156229 
L 172.212893 288.579577 
L 175.492231 288.981233 
L 178.77157 289.362696 
L 182.050909 289.725355 
L 185.330248 290.070466 
L 188.609587 290.399142 
L 191.888926 290.712356 
L 195.168264 291.010944 
L 198.447603 291.295621 
L 201.726942 291.566996 
L 205.006281 291.825586 
L 208.28562 292.071837 
L 211.564959 292.306139 
L 214.844298 292.52884 
L 218.123636 292.740255 
L 221.402975 292.940683 
L 224.682314 293.130411 
L 227.961653 293.309721 
L 231.240992 293.478897 
L 234.520331 293.638226 
L 237.799669 293.788004 
L 241.079008 293.928534 
L 244.358347 294.060126 
L 247.637686 294.183103 
L 250.917025 294.297794 
L 254.196364 294.404536 
L 257.475702 294.503672 
L 260.755041 294.595549 
L 264.03438 294.68052 
L 267.313719 294.758936 
L 270.593058 294.831148 
L 273.872397 294.897505 
L 277.151736 294.958352 
L 280.431074 295.014028 
L 283.710413 295.064861 
L 286.989752 295.111174 
L 290.269091 295.153278 
L 293.54843 295.191472 
L 296.827769 295.226043 
L 300.107107 295.257265 
L 303.386446 295.285397 
L 306.665785 295.310687 
L 309.945124 295.333368 
L 313.224463 295.353657 
L 316.503802 295.37176 
L 319.78314 295.387868 
L 323.062479 295.402159 
L 326.341818 295.414798 
L 329.621157 295.425939 
L 332.900496 295.435724 
L 336.179835 295.444282 
L 339.459174 295.451735 
L 342.738512 295.458192 
L 346.017851 295.463754 
L 349.29719 295.468515 
L 352.576529 295.472558 
L 355.855868 295.475962 
L 359.135207 295.478796 
L 362.414545 295.481126 
L 365.693884 295.48301 
L 368.973223 295.484504 
L 372.252562 295.485659 
L 375.531901 295.486521 
L 378.81124 295.487137 
L 382.090579 295.487551 
L 385.369917 295.487806 
L 388.649256 295.487943 
L 391.928595 295.487997 
L 395.207934 295.488 
L 398.487273 295.487997 
" style="fill:none;stroke:#ff7f0e;stroke-linecap:square;stroke-width:1.5;"/>
   </g>
   <g id="line2d_16">
    <path clip-path="url(#p4d9535afd7)" d="M 73.832727 133.762981 
L 77.112066 133.70865 
L 80.391405 133.613491 
L 83.670744 133.49243 
L 86.950083 133.362828 
L 90.229421 133.244182 
L 93.50876 133.15772 
L 96.788099 133.125911 
L 100.067438 133.171908 
L 103.346777 133.318939 
L 106.626116 133.589672 
L 109.905455 134.005599 
L 113.184793 134.586455 
L 116.464132 135.349715 
L 119.743471 136.31019 
L 123.02281 137.479749 
L 126.302149 138.867157 
L 129.581488 140.478059 
L 132.860826 142.315067 
L 136.140165 144.377948 
L 139.419504 146.66388 
L 142.698843 149.167751 
L 145.978182 151.882465 
L 149.257521 154.799245 
L 152.53686 157.907895 
L 155.816198 161.197036 
L 159.095537 164.654284 
L 162.374876 168.266398 
L 165.654215 172.019387 
L 168.933554 175.898588 
L 172.212893 179.888742 
L 175.492231 183.97405 
L 178.77157 188.13825 
L 182.050909 192.364689 
L 185.330248 196.63643 
L 188.609587 200.936365 
L 191.888926 205.247348 
L 195.168264 209.552354 
L 198.447603 213.834635 
L 201.726942 218.077894 
L 205.006281 222.266463 
L 208.28562 226.385461 
L 211.564959 230.420958 
L 214.844298 234.360116 
L 218.123636 238.191303 
L 221.402975 241.904195 
L 224.682314 245.489841 
L 227.961653 248.940703 
L 231.240992 252.250672 
L 234.520331 255.415049 
L 237.799669 258.430512 
L 241.079008 261.295051 
L 244.358347 264.007895 
L 247.637686 266.569414 
L 250.917025 268.981021 
L 254.196364 271.24506 
L 257.475702 273.364692 
L 260.755041 275.343784 
L 264.03438 277.186791 
L 267.313719 278.898657 
L 270.593058 280.484705 
L 273.872397 281.950547 
L 277.151736 283.301996 
L 280.431074 284.544987 
L 283.710413 285.685506 
L 286.989752 286.729534 
L 290.269091 287.682987 
L 293.54843 288.551675 
L 296.827769 289.341263 
L 300.107107 290.057242 
L 303.386446 290.704903 
L 306.665785 291.289317 
L 309.945124 291.815325 
L 313.224463 292.287526 
L 316.503802 292.710272 
L 319.78314 293.087665 
L 323.062479 293.423562 
L 326.341818 293.721574 
L 329.621157 293.985073 
L 332.900496 294.217197 
L 336.179835 294.420862 
L 339.459174 294.59877 
L 342.738512 294.753414 
L 346.017851 294.887097 
L 349.29719 295.001936 
L 352.576529 295.099878 
L 355.855868 295.182708 
L 359.135207 295.252063 
L 362.414545 295.309447 
L 365.693884 295.356239 
L 368.973223 295.393712 
L 372.252562 295.423047 
L 375.531901 295.445352 
L 378.81124 295.461685 
L 382.090579 295.473069 
L 385.369917 295.480503 
L 388.649256 295.484928 
L 391.928595 295.487159 
L 395.207934 295.487871 
L 398.487273 295.487929 
" style="fill:none;stroke:#2ca02c;stroke-linecap:square;stroke-width:1.5;"/>
   </g>
   <g id="line2d_17">
    <path clip-path="url(#p4d9535afd7)" d="M 73.832727 252.511206 
L 77.112066 252.416688 
L 80.391405 252.220866 
L 83.670744 251.918501 
L 86.950083 251.505052 
L 90.229421 250.97663 
L 93.50876 250.329938 
L 96.788099 249.562213 
L 100.067438 248.671164 
L 103.346777 247.654912 
L 106.626116 246.51193 
L 109.905455 245.240991 
L 113.184793 243.841118 
L 116.464132 242.311546 
L 119.743471 240.651697 
L 123.02281 238.861171 
L 126.302149 236.939756 
L 129.581488 234.887455 
L 132.860826 232.704544 
L 136.140165 230.391637 
L 139.419504 227.94978 
L 142.698843 225.380553 
L 145.978182 222.686174 
L 149.257521 219.869608 
L 152.53686 216.934667 
L 155.816198 213.886093 
L 159.095537 210.729624 
L 162.374876 207.472031 
L 165.654215 204.12113 
L 168.933554 200.685768 
L 172.212893 197.175776 
L 175.492231 193.601899 
L 178.77157 189.9757 
L 182.050909 186.309444 
L 185.330248 182.615965 
L 188.609587 178.908517 
L 191.888926 175.200617 
L 195.168264 171.505876 
L 198.447603 167.837834 
L 201.726942 164.209787 
L 205.006281 160.634626 
L 208.28562 157.124681 
L 211.564959 153.691577 
L 214.844298 150.346107 
L 218.123636 147.098125 
L 221.402975 143.95646 
L 224.682314 140.928849 
L 227.961653 138.021905 
L 231.240992 135.241098 
L 234.520331 132.590761 
L 237.799669 130.074128 
L 241.079008 127.693375 
L 244.358347 125.449689 
L 247.637686 123.343348 
L 250.917025 121.373807 
L 254.196364 119.539801 
L 257.475702 117.839439 
L 260.755041 116.270316 
L 264.03438 114.829611 
L 267.313719 113.514197 
L 270.593058 112.320735 
L 273.872397 111.245777 
L 277.151736 110.285859 
L 280.431074 109.43759 
L 283.710413 108.697743 
L 286.989752 108.063339 
L 290.269091 107.531732 
L 293.54843 107.100697 
L 296.827769 106.768515 
L 300.107107 106.53407 
L 303.386446 106.396949 
L 306.665785 106.357556 
L 309.945124 106.417241 
L 313.224463 106.578452 
L 316.503802 106.844913 
L 319.78314 107.221843 
L 323.062479 107.716216 
L 326.341818 108.337092 
L 329.621157 109.096012 
L 332.900496 110.007509 
L 336.179835 111.089741 
L 339.459174 112.365285 
L 342.738512 113.862155 
L 346.017851 115.615087 
L 349.29719 117.667176 
L 352.576529 120.071952 
L 355.855868 122.896012 
L 359.135207 126.222317 
L 362.414545 130.154271 
L 365.693884 134.820645 
L 368.973223 140.381314 
L 372.252562 147.033717 
L 375.531901 155.02025 
L 378.81124 164.639105 
L 382.090579 176.27029 
L 385.369917 190.456571 
L 388.649256 208.130044 
L 391.928595 230.98274 
L 395.207934 260.65447 
L 398.487273 290.124945 
" style="fill:none;stroke:#d62728;stroke-linecap:square;stroke-width:1.5;"/>
   </g>
   <g id="line2d_18">
    <path clip-path="url(#p4d9535afd7)" d="M 73.832727 295.347857 
L 77.112066 295.347394 
L 80.391405 295.346437 
L 83.670744 295.344956 
L 86.950083 295.342922 
L 90.229421 295.340304 
L 93.50876 295.337069 
L 96.788099 295.333186 
L 100.067438 295.328616 
L 103.346777 295.323321 
L 106.626116 295.31726 
L 109.905455 295.310385 
L 113.184793 295.302647 
L 116.464132 295.293991 
L 119.743471 295.284357 
L 123.02281 295.273679 
L 126.302149 295.261888 
L 129.581488 295.248905 
L 132.860826 295.234649 
L 136.140165 295.21903 
L 139.419504 295.201954 
L 142.698843 295.183321 
L 145.978182 295.163024 
L 149.257521 295.140951 
L 152.53686 295.116986 
L 155.816198 295.091007 
L 159.095537 295.06289 
L 162.374876 295.032504 
L 165.654215 294.999718 
L 168.933554 294.964394 
L 172.212893 294.926394 
L 175.492231 294.885574 
L 178.77157 294.84179 
L 182.050909 294.794893 
L 185.330248 294.744729 
L 188.609587 294.691141 
L 191.888926 294.633968 
L 195.168264 294.573041 
L 198.447603 294.508184 
L 201.726942 294.439214 
L 205.006281 294.365935 
L 208.28562 294.288141 
L 211.564959 294.205609 
L 214.844298 294.1181 
L 218.123636 294.025354 
L 221.402975 293.927085 
L 224.682314 293.822983 
L 227.961653 293.712703 
L 231.240992 293.595866 
L 234.520331 293.472051 
L 237.799669 293.340788 
L 241.079008 293.201556 
L 244.358347 293.053776 
L 247.637686 292.896798 
L 250.917025 292.729899 
L 254.196364 292.55227 
L 257.475702 292.363005 
L 260.755041 292.16109 
L 264.03438 291.945391 
L 267.313719 291.714631 
L 270.593058 291.467378 
L 273.872397 291.20202 
L 277.151736 290.916741 
L 280.431074 290.609488 
L 283.710413 290.277939 
L 286.989752 289.919461 
L 290.269091 289.531062 
L 293.54843 289.109329 
L 296.827769 288.650363 
L 300.107107 288.149695 
L 303.386446 287.602183 
L 306.665785 287.001897 
L 309.945124 286.34197 
L 313.224463 285.614419 
L 316.503802 284.809934 
L 319.78314 283.917604 
L 323.062479 282.924596 
L 326.341818 281.815742 
L 329.621157 280.573035 
L 332.900496 279.174998 
L 336.179835 277.595882 
L 339.459174 275.804665 
L 342.738512 273.763784 
L 346.017851 271.427521 
L 349.29719 268.739958 
L 352.576529 265.632378 
L 355.855868 262.019986 
L 359.135207 257.797791 
L 362.414545 252.83552 
L 365.693884 246.971481 
L 368.973223 240.00541 
L 372.252562 231.690423 
L 375.531901 221.723795 
L 378.81124 209.733456 
L 382.090579 195.245591 
L 385.369917 177.583912 
L 388.649256 155.587788 
L 391.928595 127.151252 
L 395.207934 90.233531 
L 398.487273 53.568 
" style="fill:none;stroke:#9467bd;stroke-linecap:square;stroke-width:1.5;"/>
   </g>
   <g id="patch_3">
    <path d="M 57.6 307.584 
L 57.6 41.472 
" style="fill:none;stroke:#000000;stroke-linecap:square;stroke-linejoin:miter;stroke-width:0.8;"/>
   </g>
   <g id="patch_4">
    <path d="M 414.72 307.584 
L 414.72 41.472 
" style="fill:none;stroke:#000000;stroke-linecap:square;stroke-linejoin:miter;stroke-width:0.8;"/>
   </g>
   <g id="patch_5">
    <path d="M 57.6 307.584 
L 414.72 307.584 
" style="fill:none;stroke:#000000;stroke-linecap:square;stroke-linejoin:miter;stroke-width:0.8;"/>
   </g>
   <g id="patch_6">
    <path d="M 57.6 41.472 
L 414.72 41.472 
" style="fill:none;stroke:#000000;stroke-linecap:square;stroke-linejoin:miter;stroke-width:0.8;"/>
   </g>
   <g id="text_16">
    <!-- /Users/dpc/src/EasyVVUQ/fusion/fusion_pce.4y92ftid -->
    <defs>
     <path d="M 25.390625 72.90625 
L 33.6875 72.90625 
L 8.296875 -9.28125 
L 0 -9.28125 
z
" id="DejaVuSans-47"/>
     <path d="M 8.6875 72.90625 
L 18.609375 72.90625 
L 18.609375 28.609375 
Q 18.609375 16.890625 22.84375 11.734375 
Q 27.09375 6.59375 36.625 6.59375 
Q 46.09375 6.59375 50.34375 11.734375 
Q 54.59375 16.890625 54.59375 28.609375 
L 54.59375 72.90625 
L 64.5 72.90625 
L 64.5 27.390625 
Q 64.5 13.140625 57.4375 5.859375 
Q 50.390625 -1.421875 36.625 -1.421875 
Q 22.796875 -1.421875 15.734375 5.859375 
Q 8.6875 13.140625 8.6875 27.390625 
z
" id="DejaVuSans-85"/>
     <path d="M 56.203125 29.59375 
L 56.203125 25.203125 
L 14.890625 25.203125 
Q 15.484375 15.921875 20.484375 11.0625 
Q 25.484375 6.203125 34.421875 6.203125 
Q 39.59375 6.203125 44.453125 7.46875 
Q 49.3125 8.734375 54.109375 11.28125 
L 54.109375 2.78125 
Q 49.265625 0.734375 44.1875 -0.34375 
Q 39.109375 -1.421875 33.890625 -1.421875 
Q 20.796875 -1.421875 13.15625 6.1875 
Q 5.515625 13.8125 5.515625 26.8125 
Q 5.515625 40.234375 12.765625 48.109375 
Q 20.015625 56 32.328125 56 
Q 43.359375 56 49.78125 48.890625 
Q 56.203125 41.796875 56.203125 29.59375 
z
M 47.21875 32.234375 
Q 47.125 39.59375 43.09375 43.984375 
Q 39.0625 48.390625 32.421875 48.390625 
Q 24.90625 48.390625 20.390625 44.140625 
Q 15.875 39.890625 15.1875 32.171875 
z
" id="DejaVuSans-101"/>
     <path d="M 45.40625 46.390625 
L 45.40625 75.984375 
L 54.390625 75.984375 
L 54.390625 0 
L 45.40625 0 
L 45.40625 8.203125 
Q 42.578125 3.328125 38.25 0.953125 
Q 33.9375 -1.421875 27.875 -1.421875 
Q 17.96875 -1.421875 11.734375 6.484375 
Q 5.515625 14.40625 5.515625 27.296875 
Q 5.515625 40.1875 11.734375 48.09375 
Q 17.96875 56 27.875 56 
Q 33.9375 56 38.25 53.625 
Q 42.578125 51.265625 45.40625 46.390625 
z
M 14.796875 27.296875 
Q 14.796875 17.390625 18.875 11.75 
Q 22.953125 6.109375 30.078125 6.109375 
Q 37.203125 6.109375 41.296875 11.75 
Q 45.40625 17.390625 45.40625 27.296875 
Q 45.40625 37.203125 41.296875 42.84375 
Q 37.203125 48.484375 30.078125 48.484375 
Q 22.953125 48.484375 18.875 42.84375 
Q 14.796875 37.203125 14.796875 27.296875 
z
" id="DejaVuSans-100"/>
     <path d="M 18.109375 8.203125 
L 18.109375 -20.796875 
L 9.078125 -20.796875 
L 9.078125 54.6875 
L 18.109375 54.6875 
L 18.109375 46.390625 
Q 20.953125 51.265625 25.265625 53.625 
Q 29.59375 56 35.59375 56 
Q 45.5625 56 51.78125 48.09375 
Q 58.015625 40.1875 58.015625 27.296875 
Q 58.015625 14.40625 51.78125 6.484375 
Q 45.5625 -1.421875 35.59375 -1.421875 
Q 29.59375 -1.421875 25.265625 0.953125 
Q 20.953125 3.328125 18.109375 8.203125 
z
M 48.6875 27.296875 
Q 48.6875 37.203125 44.609375 42.84375 
Q 40.53125 48.484375 33.40625 48.484375 
Q 26.265625 48.484375 22.1875 42.84375 
Q 18.109375 37.203125 18.109375 27.296875 
Q 18.109375 17.390625 22.1875 11.75 
Q 26.265625 6.109375 33.40625 6.109375 
Q 40.53125 6.109375 44.609375 11.75 
Q 48.6875 17.390625 48.6875 27.296875 
z
" id="DejaVuSans-112"/>
     <path d="M 48.78125 52.59375 
L 48.78125 44.1875 
Q 44.96875 46.296875 41.140625 47.34375 
Q 37.3125 48.390625 33.40625 48.390625 
Q 24.65625 48.390625 19.8125 42.84375 
Q 14.984375 37.3125 14.984375 27.296875 
Q 14.984375 17.28125 19.8125 11.734375 
Q 24.65625 6.203125 33.40625 6.203125 
Q 37.3125 6.203125 41.140625 7.25 
Q 44.96875 8.296875 48.78125 10.40625 
L 48.78125 2.09375 
Q 45.015625 0.34375 40.984375 -0.53125 
Q 36.96875 -1.421875 32.421875 -1.421875 
Q 20.0625 -1.421875 12.78125 6.34375 
Q 5.515625 14.109375 5.515625 27.296875 
Q 5.515625 40.671875 12.859375 48.328125 
Q 20.21875 56 33.015625 56 
Q 37.15625 56 41.109375 55.140625 
Q 45.0625 54.296875 48.78125 52.59375 
z
" id="DejaVuSans-99"/>
     <path d="M 9.8125 72.90625 
L 55.90625 72.90625 
L 55.90625 64.59375 
L 19.671875 64.59375 
L 19.671875 43.015625 
L 54.390625 43.015625 
L 54.390625 34.71875 
L 19.671875 34.71875 
L 19.671875 8.296875 
L 56.78125 8.296875 
L 56.78125 0 
L 9.8125 0 
z
" id="DejaVuSans-69"/>
     <path d="M 34.28125 27.484375 
Q 23.390625 27.484375 19.1875 25 
Q 14.984375 22.515625 14.984375 16.5 
Q 14.984375 11.71875 18.140625 8.90625 
Q 21.296875 6.109375 26.703125 6.109375 
Q 34.1875 6.109375 38.703125 11.40625 
Q 43.21875 16.703125 43.21875 25.484375 
L 43.21875 27.484375 
z
M 52.203125 31.203125 
L 52.203125 0 
L 43.21875 0 
L 43.21875 8.296875 
Q 40.140625 3.328125 35.546875 0.953125 
Q 30.953125 -1.421875 24.3125 -1.421875 
Q 15.921875 -1.421875 10.953125 3.296875 
Q 6 8.015625 6 15.921875 
Q 6 25.140625 12.171875 29.828125 
Q 18.359375 34.515625 30.609375 34.515625 
L 43.21875 34.515625 
L 43.21875 35.40625 
Q 43.21875 41.609375 39.140625 45 
Q 35.0625 48.390625 27.6875 48.390625 
Q 23 48.390625 18.546875 47.265625 
Q 14.109375 46.140625 10.015625 43.890625 
L 10.015625 52.203125 
Q 14.9375 54.109375 19.578125 55.046875 
Q 24.21875 56 28.609375 56 
Q 40.484375 56 46.34375 49.84375 
Q 52.203125 43.703125 52.203125 31.203125 
z
" id="DejaVuSans-97"/>
     <path d="M 32.171875 -5.078125 
Q 28.375 -14.84375 24.75 -17.8125 
Q 21.140625 -20.796875 15.09375 -20.796875 
L 7.90625 -20.796875 
L 7.90625 -13.28125 
L 13.1875 -13.28125 
Q 16.890625 -13.28125 18.9375 -11.515625 
Q 21 -9.765625 23.484375 -3.21875 
L 25.09375 0.875 
L 2.984375 54.6875 
L 12.5 54.6875 
L 29.59375 11.921875 
L 46.6875 54.6875 
L 56.203125 54.6875 
z
" id="DejaVuSans-121"/>
     <path d="M 28.609375 0 
L 0.78125 72.90625 
L 11.078125 72.90625 
L 34.1875 11.53125 
L 57.328125 72.90625 
L 67.578125 72.90625 
L 39.796875 0 
z
" id="DejaVuSans-86"/>
     <path d="M 39.40625 66.21875 
Q 28.65625 66.21875 22.328125 58.203125 
Q 16.015625 50.203125 16.015625 36.375 
Q 16.015625 22.609375 22.328125 14.59375 
Q 28.65625 6.59375 39.40625 6.59375 
Q 50.140625 6.59375 56.421875 14.59375 
Q 62.703125 22.609375 62.703125 36.375 
Q 62.703125 50.203125 56.421875 58.203125 
Q 50.140625 66.21875 39.40625 66.21875 
z
M 53.21875 1.3125 
L 66.21875 -12.890625 
L 54.296875 -12.890625 
L 43.5 -1.21875 
Q 41.890625 -1.3125 41.03125 -1.359375 
Q 40.1875 -1.421875 39.40625 -1.421875 
Q 24.03125 -1.421875 14.8125 8.859375 
Q 5.609375 19.140625 5.609375 36.375 
Q 5.609375 53.65625 14.8125 63.9375 
Q 24.03125 74.21875 39.40625 74.21875 
Q 54.734375 74.21875 63.90625 63.9375 
Q 73.09375 53.65625 73.09375 36.375 
Q 73.09375 23.6875 67.984375 14.640625 
Q 62.890625 5.609375 53.21875 1.3125 
z
" id="DejaVuSans-81"/>
     <path d="M 8.5 21.578125 
L 8.5 54.6875 
L 17.484375 54.6875 
L 17.484375 21.921875 
Q 17.484375 14.15625 20.5 10.265625 
Q 23.53125 6.390625 29.59375 6.390625 
Q 36.859375 6.390625 41.078125 11.03125 
Q 45.3125 15.671875 45.3125 23.6875 
L 45.3125 54.6875 
L 54.296875 54.6875 
L 54.296875 0 
L 45.3125 0 
L 45.3125 8.40625 
Q 42.046875 3.421875 37.71875 1 
Q 33.40625 -1.421875 27.6875 -1.421875 
Q 18.265625 -1.421875 13.375 4.4375 
Q 8.5 10.296875 8.5 21.578125 
z
M 31.109375 56 
z
" id="DejaVuSans-117"/>
     <path d="M 54.890625 33.015625 
L 54.890625 0 
L 45.90625 0 
L 45.90625 32.71875 
Q 45.90625 40.484375 42.875 44.328125 
Q 39.84375 48.1875 33.796875 48.1875 
Q 26.515625 48.1875 22.3125 43.546875 
Q 18.109375 38.921875 18.109375 30.90625 
L 18.109375 0 
L 9.078125 0 
L 9.078125 54.6875 
L 18.109375 54.6875 
L 18.109375 46.1875 
Q 21.34375 51.125 25.703125 53.5625 
Q 30.078125 56 35.796875 56 
Q 45.21875 56 50.046875 50.171875 
Q 54.890625 44.34375 54.890625 33.015625 
z
" id="DejaVuSans-110"/>
     <path d="M 10.984375 1.515625 
L 10.984375 10.5 
Q 14.703125 8.734375 18.5 7.8125 
Q 22.3125 6.890625 25.984375 6.890625 
Q 35.75 6.890625 40.890625 13.453125 
Q 46.046875 20.015625 46.78125 33.40625 
Q 43.953125 29.203125 39.59375 26.953125 
Q 35.25 24.703125 29.984375 24.703125 
Q 19.046875 24.703125 12.671875 31.3125 
Q 6.296875 37.9375 6.296875 49.421875 
Q 6.296875 60.640625 12.9375 67.421875 
Q 19.578125 74.21875 30.609375 74.21875 
Q 43.265625 74.21875 49.921875 64.515625 
Q 56.59375 54.828125 56.59375 36.375 
Q 56.59375 19.140625 48.40625 8.859375 
Q 40.234375 -1.421875 26.421875 -1.421875 
Q 22.703125 -1.421875 18.890625 -0.6875 
Q 15.09375 0.046875 10.984375 1.515625 
z
M 30.609375 32.421875 
Q 37.25 32.421875 41.125 36.953125 
Q 45.015625 41.5 45.015625 49.421875 
Q 45.015625 57.28125 41.125 61.84375 
Q 37.25 66.40625 30.609375 66.40625 
Q 23.96875 66.40625 20.09375 61.84375 
Q 16.21875 57.28125 16.21875 49.421875 
Q 16.21875 41.5 20.09375 36.953125 
Q 23.96875 32.421875 30.609375 32.421875 
z
" id="DejaVuSans-57"/>
    </defs>
    <g transform="translate(79.182187 35.472)scale(0.12 -0.12)">
     <use xlink:href="#DejaVuSans-47"/>
     <use x="33.691406" xlink:href="#DejaVuSans-85"/>
     <use x="106.884766" xlink:href="#DejaVuSans-115"/>
     <use x="158.984375" xlink:href="#DejaVuSans-101"/>
     <use x="220.507812" xlink:href="#DejaVuSans-114"/>
     <use x="261.621094" xlink:href="#DejaVuSans-115"/>
     <use x="313.720703" xlink:href="#DejaVuSans-47"/>
     <use x="347.412109" xlink:href="#DejaVuSans-100"/>
     <use x="410.888672" xlink:href="#DejaVuSans-112"/>
     <use x="474.365234" xlink:href="#DejaVuSans-99"/>
     <use x="529.345703" xlink:href="#DejaVuSans-47"/>
     <use x="563.037109" xlink:href="#DejaVuSans-115"/>
     <use x="615.136719" xlink:href="#DejaVuSans-114"/>
     <use x="654" xlink:href="#DejaVuSans-99"/>
     <use x="708.980469" xlink:href="#DejaVuSans-47"/>
     <use x="742.671875" xlink:href="#DejaVuSans-69"/>
     <use x="805.855469" xlink:href="#DejaVuSans-97"/>
     <use x="867.134766" xlink:href="#DejaVuSans-115"/>
     <use x="919.234375" xlink:href="#DejaVuSans-121"/>
     <use x="978.414062" xlink:href="#DejaVuSans-86"/>
     <use x="1046.822266" xlink:href="#DejaVuSans-86"/>
     <use x="1115.230469" xlink:href="#DejaVuSans-85"/>
     <use x="1188.423828" xlink:href="#DejaVuSans-81"/>
     <use x="1267.134766" xlink:href="#DejaVuSans-47"/>
     <use x="1300.826172" xlink:href="#DejaVuSans-102"/>
     <use x="1336.03125" xlink:href="#DejaVuSans-117"/>
     <use x="1399.410156" xlink:href="#DejaVuSans-115"/>
     <use x="1451.509766" xlink:href="#DejaVuSans-105"/>
     <use x="1479.292969" xlink:href="#DejaVuSans-111"/>
     <use x="1540.474609" xlink:href="#DejaVuSans-110"/>
     <use x="1603.853516" xlink:href="#DejaVuSans-47"/>
     <use x="1637.544922" xlink:href="#DejaVuSans-102"/>
     <use x="1672.75" xlink:href="#DejaVuSans-117"/>
     <use x="1736.128906" xlink:href="#DejaVuSans-115"/>
     <use x="1788.228516" xlink:href="#DejaVuSans-105"/>
     <use x="1816.011719" xlink:href="#DejaVuSans-111"/>
     <use x="1877.193359" xlink:href="#DejaVuSans-110"/>
     <use x="1940.572266" xlink:href="#DejaVuSans-95"/>
     <use x="1990.572266" xlink:href="#DejaVuSans-112"/>
     <use x="2054.048828" xlink:href="#DejaVuSans-99"/>
     <use x="2109.029297" xlink:href="#DejaVuSans-101"/>
     <use x="2170.552734" xlink:href="#DejaVuSans-46"/>
     <use x="2202.339844" xlink:href="#DejaVuSans-52"/>
     <use x="2265.962891" xlink:href="#DejaVuSans-121"/>
     <use x="2325.142578" xlink:href="#DejaVuSans-57"/>
     <use x="2388.765625" xlink:href="#DejaVuSans-50"/>
     <use x="2452.388672" xlink:href="#DejaVuSans-102"/>
     <use x="2485.84375" xlink:href="#DejaVuSans-116"/>
     <use x="2525.052734" xlink:href="#DejaVuSans-105"/>
     <use x="2552.835938" xlink:href="#DejaVuSans-100"/>
    </g>
   </g>
   <g id="legend_1">
    <g id="patch_7">
     <path d="M 64.6 123.418875 
L 129.584375 123.418875 
Q 131.584375 123.418875 131.584375 121.418875 
L 131.584375 48.472 
Q 131.584375 46.472 129.584375 46.472 
L 64.6 46.472 
Q 62.6 46.472 62.6 48.472 
L 62.6 121.418875 
Q 62.6 123.418875 64.6 123.418875 
z
" style="fill:#ffffff;opacity:0.8;stroke:#cccccc;stroke-linejoin:miter;"/>
    </g>
    <g id="line2d_19">
     <path d="M 66.6 54.570438 
L 86.6 54.570438 
" style="fill:none;stroke:#1f77b4;stroke-linecap:square;stroke-width:1.5;"/>
    </g>
    <g id="line2d_20"/>
    <g id="text_17">
     <!-- Qe_tot -->
     <g transform="translate(94.6 58.070438)scale(0.1 -0.1)">
      <use xlink:href="#DejaVuSans-81"/>
      <use x="78.710938" xlink:href="#DejaVuSans-101"/>
      <use x="140.234375" xlink:href="#DejaVuSans-95"/>
      <use x="190.234375" xlink:href="#DejaVuSans-116"/>
      <use x="229.443359" xlink:href="#DejaVuSans-111"/>
      <use x="290.625" xlink:href="#DejaVuSans-116"/>
     </g>
    </g>
    <g id="line2d_21">
     <path d="M 66.6 69.526688 
L 86.6 69.526688 
" style="fill:none;stroke:#ff7f0e;stroke-linecap:square;stroke-width:1.5;"/>
    </g>
    <g id="line2d_22"/>
    <g id="text_18">
     <!-- H0 -->
     <defs>
      <path d="M 9.8125 72.90625 
L 19.671875 72.90625 
L 19.671875 43.015625 
L 55.515625 43.015625 
L 55.515625 72.90625 
L 65.375 72.90625 
L 65.375 0 
L 55.515625 0 
L 55.515625 34.71875 
L 19.671875 34.71875 
L 19.671875 0 
L 9.8125 0 
z
" id="DejaVuSans-72"/>
     </defs>
     <g transform="translate(94.6 73.026688)scale(0.1 -0.1)">
      <use xlink:href="#DejaVuSans-72"/>
      <use x="75.195312" xlink:href="#DejaVuSans-48"/>
     </g>
    </g>
    <g id="line2d_23">
     <path d="M 66.6 84.204813 
L 86.6 84.204813 
" style="fill:none;stroke:#2ca02c;stroke-linecap:square;stroke-width:1.5;"/>
    </g>
    <g id="line2d_24"/>
    <g id="text_19">
     <!-- Hw -->
     <defs>
      <path d="M 4.203125 54.6875 
L 13.1875 54.6875 
L 24.421875 12.015625 
L 35.59375 54.6875 
L 46.1875 54.6875 
L 57.421875 12.015625 
L 68.609375 54.6875 
L 77.59375 54.6875 
L 63.28125 0 
L 52.6875 0 
L 40.921875 44.828125 
L 29.109375 0 
L 18.5 0 
z
" id="DejaVuSans-119"/>
     </defs>
     <g transform="translate(94.6 87.704813)scale(0.1 -0.1)">
      <use xlink:href="#DejaVuSans-72"/>
      <use x="75.195312" xlink:href="#DejaVuSans-119"/>
     </g>
    </g>
    <g id="line2d_25">
     <path d="M 66.6 98.882938 
L 86.6 98.882938 
" style="fill:none;stroke:#d62728;stroke-linecap:square;stroke-width:1.5;"/>
    </g>
    <g id="line2d_26"/>
    <g id="text_20">
     <!-- chi -->
     <g transform="translate(94.6 102.382938)scale(0.1 -0.1)">
      <use xlink:href="#DejaVuSans-99"/>
      <use x="54.980469" xlink:href="#DejaVuSans-104"/>
      <use x="118.359375" xlink:href="#DejaVuSans-105"/>
     </g>
    </g>
    <g id="line2d_27">
     <path d="M 66.6 113.561063 
L 86.6 113.561063 
" style="fill:none;stroke:#9467bd;stroke-linecap:square;stroke-width:1.5;"/>
    </g>
    <g id="line2d_28"/>
    <g id="text_21">
     <!-- Te_bc -->
     <defs>
      <path d="M -0.296875 72.90625 
L 61.375 72.90625 
L 61.375 64.59375 
L 35.5 64.59375 
L 35.5 0 
L 25.59375 0 
L 25.59375 64.59375 
L -0.296875 64.59375 
z
" id="DejaVuSans-84"/>
     </defs>
     <g transform="translate(94.6 117.061063)scale(0.1 -0.1)">
      <use xlink:href="#DejaVuSans-84"/>
      <use x="44.083984" xlink:href="#DejaVuSans-101"/>
      <use x="105.607422" xlink:href="#DejaVuSans-95"/>
      <use x="155.607422" xlink:href="#DejaVuSans-98"/>
      <use x="219.083984" xlink:href="#DejaVuSans-99"/>
     </g>
    </g>
   </g>
  </g>
 </g>
 <defs>
  <clipPath id="p4d9535afd7">
   <rect height="266.112" width="357.12" x="57.6" y="41.472"/>
  </clipPath>
 </defs>
</svg>
