<?xml version="1.0" encoding="utf-8" standalone="no"?>
<!DOCTYPE svg PUBLIC "-//W3C//DTD SVG 1.1//EN"
  "http://www.w3.org/Graphics/SVG/1.1/DTD/svg11.dtd">
<!-- Created with matplotlib (https://matplotlib.org/) -->
<svg height="345.6pt" version="1.1" viewBox="0 0 460.8 345.6" width="460.8pt" xmlns="http://www.w3.org/2000/svg" xmlns:xlink="http://www.w3.org/1999/xlink">
 <defs>
  <style type="text/css">
*{stroke-linecap:butt;stroke-linejoin:round;}
  </style>
 </defs>
 <g id="figure_1">
  <g id="patch_1">
   <path d="M 0 345.6 
L 460.8 345.6 
L 460.8 0 
L 0 0 
z
" style="fill:#ffffff;"/>
  </g>
  <g id="axes_1">
   <g id="patch_2">
    <path d="M 57.6 307.584 
L 414.72 307.584 
L 414.72 41.472 
L 57.6 41.472 
z
" style="fill:#ffffff;"/>
   </g>
   <g id="PolyCollection_1">
    <defs>
     <path d="M 73.832727 -195.78289 
L 73.832727 -132.075142 
L 77.112066 -132.065703 
L 80.391405 -132.046662 
L 83.670744 -132.017274 
L 86.950083 -131.976257 
L 90.229421 -131.921833 
L 93.50876 -131.851783 
L 96.788099 -131.763542 
L 100.067438 -131.654299 
L 103.346777 -131.521113 
L 106.626116 -131.36103 
L 109.905455 -131.171195 
L 113.184793 -130.948948 
L 116.464132 -130.691909 
L 119.743471 -130.398039 
L 123.02281 -130.065682 
L 126.302149 -129.693585 
L 129.581488 -129.280899 
L 132.860826 -128.827169 
L 136.140165 -128.332309 
L 139.419504 -127.796564 
L 142.698843 -127.220481 
L 145.978182 -126.604864 
L 149.257521 -125.950735 
L 152.53686 -125.259305 
L 155.816198 -124.531933 
L 159.095537 -123.7701 
L 162.374876 -122.975384 
L 165.654215 -122.149433 
L 168.933554 -121.293951 
L 172.212893 -120.410672 
L 175.492231 -119.501355 
L 178.77157 -118.567759 
L 182.050909 -117.611642 
L 185.330248 -116.634741 
L 188.609587 -115.638771 
L 191.888926 -114.625411 
L 195.168264 -113.596301 
L 198.447603 -112.553037 
L 201.726942 -111.497162 
L 205.006281 -110.430169 
L 208.28562 -109.353491 
L 211.564959 -108.268505 
L 214.844298 -107.176525 
L 218.123636 -106.078805 
L 221.402975 -104.976535 
L 224.682314 -103.870842 
L 227.961653 -102.762792 
L 231.240992 -101.653384 
L 234.520331 -100.543559 
L 237.799669 -99.434195 
L 241.079008 -98.326109 
L 244.358347 -97.220062 
L 247.637686 -96.116756 
L 250.917025 -95.016837 
L 254.196364 -93.920899 
L 257.475702 -92.829487 
L 260.755041 -91.743092 
L 264.03438 -90.662163 
L 267.313719 -89.587102 
L 270.593058 -88.518271 
L 273.872397 -87.455988 
L 277.151736 -86.400539 
L 280.431074 -85.35217 
L 283.710413 -84.311097 
L 286.989752 -83.277502 
L 290.269091 -82.251541 
L 293.54843 -81.23334 
L 296.827769 -80.223001 
L 300.107107 -79.220602 
L 303.386446 -78.226199 
L 306.665785 -77.239829 
L 309.945124 -76.261506 
L 313.224463 -75.29123 
L 316.503802 -74.328982 
L 319.78314 -73.374727 
L 323.062479 -72.428416 
L 326.341818 -71.489985 
L 329.621157 -70.559357 
L 332.900496 -69.636438 
L 336.179835 -68.721125 
L 339.459174 -67.813297 
L 342.738512 -66.912818 
L 346.017851 -66.019539 
L 349.29719 -65.133289 
L 352.576529 -64.253877 
L 355.855868 -63.381088 
L 359.135207 -62.514674 
L 362.414545 -61.654344 
L 365.693884 -60.799742 
L 368.973223 -59.950402 
L 372.252562 -59.10564 
L 375.531901 -58.264286 
L 378.81124 -57.423989 
L 382.090579 -56.579416 
L 385.369917 -55.717696 
L 388.649256 -54.807964 
L 391.928595 -53.782686 
L 395.207934 -52.520961 
L 398.487273 -50.872568 
L 398.487273 -52.41523 
L 398.487273 -52.41523 
L 395.207934 -54.195375 
L 391.928595 -55.631289 
L 388.649256 -56.83547 
L 385.369917 -57.925967 
L 382.090579 -58.974054 
L 378.81124 -60.012724 
L 375.531901 -61.055189 
L 372.252562 -62.106306 
L 368.973223 -63.167721 
L 365.693884 -64.239921 
L 362.414545 -65.323005 
L 359.135207 -66.416967 
L 355.855868 -67.521792 
L 352.576529 -68.637484 
L 349.29719 -69.764075 
L 346.017851 -70.901622 
L 342.738512 -72.050207 
L 339.459174 -73.209929 
L 336.179835 -74.380904 
L 332.900496 -75.563264 
L 329.621157 -76.757152 
L 326.341818 -77.962724 
L 323.062479 -79.180143 
L 319.78314 -80.409585 
L 316.503802 -81.651232 
L 313.224463 -82.905276 
L 309.945124 -84.171917 
L 306.665785 -85.451361 
L 303.386446 -86.743826 
L 300.107107 -88.049533 
L 296.827769 -89.368715 
L 293.54843 -90.701611 
L 290.269091 -92.048469 
L 286.989752 -93.409546 
L 283.710413 -94.785108 
L 280.431074 -96.175428 
L 277.151736 -97.580791 
L 273.872397 -99.001489 
L 270.593058 -100.437826 
L 267.313719 -101.890113 
L 264.03438 -103.358673 
L 260.755041 -104.843834 
L 257.475702 -106.345937 
L 254.196364 -107.865329 
L 250.917025 -109.402363 
L 247.637686 -110.957399 
L 244.358347 -112.530801 
L 241.079008 -114.122931 
L 237.799669 -115.734155 
L 234.520331 -117.364831 
L 231.240992 -119.015309 
L 227.961653 -120.685926 
L 224.682314 -122.376999 
L 221.402975 -124.088822 
L 218.123636 -125.821652 
L 214.844298 -127.575709 
L 211.564959 -129.351157 
L 208.28562 -131.148099 
L 205.006281 -132.966563 
L 201.726942 -134.806486 
L 198.447603 -136.667699 
L 195.168264 -138.549908 
L 191.888926 -140.452676 
L 188.609587 -142.375398 
L 185.330248 -144.317283 
L 182.050909 -146.277322 
L 178.77157 -148.254267 
L 175.492231 -150.246598 
L 172.212893 -152.252504 
L 168.933554 -154.269846 
L 165.654215 -156.29614 
L 162.374876 -158.328527 
L 159.095537 -160.363755 
L 155.816198 -162.398164 
L 152.53686 -164.42767 
L 149.257521 -166.447761 
L 145.978182 -168.453488 
L 142.698843 -170.439477 
L 139.419504 -172.399931 
L 136.140165 -174.328647 
L 132.860826 -176.219041 
L 129.581488 -178.064177 
L 126.302149 -179.856811 
L 123.02281 -181.589442 
L 119.743471 -183.254389 
L 116.464132 -184.843872 
L 113.184793 -186.350124 
L 109.905455 -187.765518 
L 106.626116 -189.082711 
L 103.346777 -190.294815 
L 100.067438 -191.395567 
L 96.788099 -192.37952 
L 93.50876 -193.242213 
L 90.229421 -193.980347 
L 86.950083 -194.591921 
L 83.670744 -195.076343 
L 80.391405 -195.434491 
L 77.112066 -195.668735 
L 73.832727 -195.78289 
z
" id="mf2a7cee46e" style="stroke:#0000ff;stroke-opacity:0.2;"/>
    </defs>
    <g clip-path="url(#peb12b52f09)">
     <use style="fill:#0000ff;fill-opacity:0.2;stroke:#0000ff;stroke-opacity:0.2;" x="0" xlink:href="#mf2a7cee46e" y="345.6"/>
    </g>
   </g>
   <g id="PolyCollection_2">
    <defs>
     <path d="M 73.832727 -208.702535 
L 73.832727 -127.795803 
L 77.112066 -127.769553 
L 80.391405 -127.715857 
L 83.670744 -127.63395 
L 86.950083 -127.523369 
L 90.229421 -127.383958 
L 93.50876 -127.231279 
L 96.788099 -127.046905 
L 100.067438 -126.798398 
L 103.346777 -126.53246 
L 106.626116 -126.221102 
L 109.905455 -125.928499 
L 113.184793 -125.601193 
L 116.464132 -125.236762 
L 119.743471 -124.893094 
L 123.02281 -124.511062 
L 126.302149 -124.095234 
L 129.581488 -123.644146 
L 132.860826 -123.189791 
L 136.140165 -122.655138 
L 139.419504 -122.118326 
L 142.698843 -121.574252 
L 145.978182 -120.990347 
L 149.257521 -120.418189 
L 152.53686 -119.833819 
L 155.816198 -119.233023 
L 159.095537 -118.588952 
L 162.374876 -117.956961 
L 165.654215 -117.262862 
L 168.933554 -116.55172 
L 172.212893 -115.837762 
L 175.492231 -115.118261 
L 178.77157 -114.372743 
L 182.050909 -113.582828 
L 185.330248 -112.790076 
L 188.609587 -111.92836 
L 191.888926 -111.120557 
L 195.168264 -110.244498 
L 198.447603 -109.382346 
L 201.726942 -108.458373 
L 205.006281 -107.53559 
L 208.28562 -106.608239 
L 211.564959 -105.680239 
L 214.844298 -104.710643 
L 218.123636 -103.679662 
L 221.402975 -102.67662 
L 224.682314 -101.705394 
L 227.961653 -100.674498 
L 231.240992 -99.652746 
L 234.520331 -98.622086 
L 237.799669 -97.557412 
L 241.079008 -96.509832 
L 244.358347 -95.462747 
L 247.637686 -94.406093 
L 250.917025 -93.369709 
L 254.196364 -92.315476 
L 257.475702 -91.261712 
L 260.755041 -90.195305 
L 264.03438 -89.169252 
L 267.313719 -88.123043 
L 270.593058 -87.1002 
L 273.872397 -86.090213 
L 277.151736 -85.065073 
L 280.431074 -84.05723 
L 283.710413 -83.057759 
L 286.989752 -82.073997 
L 290.269091 -81.078038 
L 293.54843 -80.09014 
L 296.827769 -79.10025 
L 300.107107 -78.132492 
L 303.386446 -77.178387 
L 306.665785 -76.235479 
L 309.945124 -75.293053 
L 313.224463 -74.357892 
L 316.503802 -73.429998 
L 319.78314 -72.510411 
L 323.062479 -71.600523 
L 326.341818 -70.694838 
L 329.621157 -69.778865 
L 332.900496 -68.883832 
L 336.179835 -68.003781 
L 339.459174 -67.128174 
L 342.738512 -66.258841 
L 346.017851 -65.39267 
L 349.29719 -64.529003 
L 352.576529 -63.675623 
L 355.855868 -62.824848 
L 359.135207 -61.983802 
L 362.414545 -61.150308 
L 365.693884 -60.32342 
L 368.973223 -59.499363 
L 372.252562 -58.680582 
L 375.531901 -57.85078 
L 378.81124 -57.032316 
L 382.090579 -56.207459 
L 385.369917 -55.37141 
L 388.649256 -54.485795 
L 391.928595 -53.475252 
L 395.207934 -52.225713 
L 398.487273 -50.587033 
L 398.487273 -52.695916 
L 398.487273 -52.695916 
L 395.207934 -54.462694 
L 391.928595 -55.935317 
L 388.649256 -57.175488 
L 385.369917 -58.307151 
L 382.090579 -59.400101 
L 378.81124 -60.480632 
L 375.531901 -61.565411 
L 372.252562 -62.657909 
L 368.973223 -63.771594 
L 365.693884 -64.901117 
L 362.414545 -66.031678 
L 359.135207 -67.186154 
L 355.855868 -68.346725 
L 352.576529 -69.5296 
L 349.29719 -70.72457 
L 346.017851 -71.908209 
L 342.738512 -73.121927 
L 339.459174 -74.335888 
L 336.179835 -75.569523 
L 332.900496 -76.795031 
L 329.621157 -78.056535 
L 326.341818 -79.321128 
L 323.062479 -80.598657 
L 319.78314 -81.882242 
L 316.503802 -83.194034 
L 313.224463 -84.5126 
L 309.945124 -85.848204 
L 306.665785 -87.19775 
L 303.386446 -88.555088 
L 300.107107 -89.920485 
L 296.827769 -91.300319 
L 293.54843 -92.690746 
L 290.269091 -94.102341 
L 286.989752 -95.55405 
L 283.710413 -96.997684 
L 280.431074 -98.458463 
L 277.151736 -99.928163 
L 273.872397 -101.403943 
L 270.593058 -102.888221 
L 267.313719 -104.419733 
L 264.03438 -105.928053 
L 260.755041 -107.51549 
L 257.475702 -109.091518 
L 254.196364 -110.662414 
L 250.917025 -112.284083 
L 247.637686 -113.915333 
L 244.358347 -115.589221 
L 241.079008 -117.306587 
L 237.799669 -118.998146 
L 234.520331 -120.706512 
L 231.240992 -122.448574 
L 227.961653 -124.189195 
L 224.682314 -125.996642 
L 221.402975 -127.834548 
L 218.123636 -129.647952 
L 214.844298 -131.537448 
L 211.564959 -133.393729 
L 208.28562 -135.303593 
L 205.006281 -137.281112 
L 201.726942 -139.273563 
L 198.447603 -141.227292 
L 195.168264 -143.305026 
L 191.888926 -145.414721 
L 188.609587 -147.495455 
L 185.330248 -149.579178 
L 182.050909 -151.735564 
L 178.77157 -153.936873 
L 175.492231 -156.106162 
L 172.212893 -158.361757 
L 168.933554 -160.525755 
L 165.654215 -162.792473 
L 162.374876 -165.123026 
L 159.095537 -167.249461 
L 155.816198 -169.612374 
L 152.53686 -171.977797 
L 149.257521 -174.204818 
L 145.978182 -176.479567 
L 142.698843 -178.721684 
L 139.419504 -180.901309 
L 136.140165 -183.133326 
L 132.860826 -185.307356 
L 129.581488 -187.45656 
L 126.302149 -189.609899 
L 123.02281 -191.608832 
L 119.743471 -193.434914 
L 116.464132 -195.294857 
L 113.184793 -197.223412 
L 109.905455 -198.842432 
L 106.626116 -200.347239 
L 103.346777 -201.870031 
L 100.067438 -203.26154 
L 96.788099 -204.325241 
L 93.50876 -205.539568 
L 90.229421 -206.44618 
L 86.950083 -207.227365 
L 83.670744 -207.827658 
L 80.391405 -208.354505 
L 77.112066 -208.61534 
L 73.832727 -208.702535 
z
" id="md3e13ddd8e" style="stroke:#0000ff;stroke-opacity:0.1;"/>
    </defs>
    <g clip-path="url(#peb12b52f09)">
     <use style="fill:#0000ff;fill-opacity:0.1;stroke:#0000ff;stroke-opacity:0.1;" x="0" xlink:href="#md3e13ddd8e" y="345.6"/>
    </g>
   </g>
   <g id="PolyCollection_3">
    <defs>
     <path d="M 73.832727 -292.032 
L 73.832727 -101.939558 
L 77.112066 -101.987827 
L 80.391405 -102.08293 
L 83.670744 -102.22156 
L 86.950083 -102.398667 
L 90.229421 -102.607646 
L 93.50876 -102.840605 
L 96.788099 -103.088701 
L 100.067438 -103.342513 
L 103.346777 -103.59243 
L 106.626116 -103.829034 
L 109.905455 -104.043454 
L 113.184793 -104.227664 
L 116.464132 -104.374724 
L 119.743471 -104.478947 
L 123.02281 -104.535995 
L 126.302149 -104.542895 
L 129.581488 -104.497999 
L 132.860826 -104.400892 
L 136.140165 -104.252248 
L 139.419504 -104.053672 
L 142.698843 -103.807515 
L 145.978182 -103.516699 
L 149.257521 -103.184536 
L 152.53686 -102.814572 
L 155.816198 -102.410443 
L 159.095537 -101.975759 
L 162.374876 -101.514009 
L 165.654215 -101.028488 
L 168.933554 -100.522248 
L 172.212893 -99.998064 
L 175.492231 -99.45842 
L 178.77157 -98.905504 
L 182.050909 -98.341217 
L 185.330248 -97.767182 
L 188.609587 -97.184769 
L 191.888926 -96.595113 
L 195.168264 -95.99914 
L 198.447603 -95.39759 
L 201.726942 -94.791041 
L 205.006281 -94.179933 
L 208.28562 -93.564589 
L 211.564959 -92.945233 
L 214.844298 -92.322013 
L 218.123636 -91.695012 
L 221.402975 -91.064268 
L 224.682314 -90.42978 
L 227.961653 -89.771504 
L 231.240992 -89.04807 
L 234.520331 -88.320284 
L 237.799669 -87.588487 
L 241.079008 -86.852986 
L 244.358347 -86.114064 
L 247.637686 -85.371986 
L 250.917025 -84.627001 
L 254.196364 -83.879344 
L 257.475702 -83.129244 
L 260.755041 -82.376925 
L 264.03438 -81.622605 
L 267.313719 -80.8665 
L 270.593058 -80.108826 
L 273.872397 -79.349798 
L 277.151736 -78.58963 
L 280.431074 -77.828537 
L 283.710413 -77.066735 
L 286.989752 -76.304439 
L 290.269091 -75.541863 
L 293.54843 -74.779222 
L 296.827769 -74.016729 
L 300.107107 -73.254593 
L 303.386446 -72.493024 
L 306.665785 -71.732226 
L 309.945124 -70.972401 
L 313.224463 -70.213747 
L 316.503802 -69.456455 
L 319.78314 -68.700713 
L 323.062479 -67.946702 
L 326.341818 -67.194596 
L 329.621157 -66.444566 
L 332.900496 -65.696771 
L 336.179835 -64.951367 
L 339.459174 -64.208501 
L 342.738512 -63.468312 
L 346.017851 -62.730931 
L 349.29719 -61.996483 
L 352.576529 -61.24812 
L 355.855868 -60.499123 
L 359.135207 -59.757396 
L 362.414545 -59.022763 
L 365.693884 -58.295036 
L 368.973223 -57.573986 
L 372.252562 -56.859267 
L 375.531901 -56.150207 
L 378.81124 -55.445267 
L 382.090579 -54.740593 
L 385.369917 -54.026397 
L 388.649256 -53.274806 
L 391.928595 -52.432469 
L 395.207934 -51.413669 
L 398.487273 -50.112 
L 398.487273 -53.2296 
L 398.487273 -53.2296 
L 395.207934 -55.485399 
L 391.928595 -57.287808 
L 388.649256 -58.788669 
L 385.369917 -60.134007 
L 382.090579 -61.417291 
L 378.81124 -62.681414 
L 375.531901 -63.943804 
L 372.252562 -65.211184 
L 368.973223 -66.486098 
L 365.693884 -67.769512 
L 362.414545 -69.061793 
L 359.135207 -70.363081 
L 355.855868 -71.673423 
L 352.576529 -72.992828 
L 349.29719 -74.322123 
L 346.017851 -75.673322 
L 342.738512 -77.035949 
L 339.459174 -78.410085 
L 336.179835 -79.823926 
L 332.900496 -81.254355 
L 329.621157 -82.699391 
L 326.341818 -84.159285 
L 323.062479 -85.634285 
L 319.78314 -87.125851 
L 316.503802 -88.649292 
L 313.224463 -90.19119 
L 309.945124 -91.752077 
L 306.665785 -93.332505 
L 303.386446 -94.933046 
L 300.107107 -96.554292 
L 296.827769 -98.196857 
L 293.54843 -99.861373 
L 290.269091 -101.548496 
L 286.989752 -103.258902 
L 283.710413 -104.993291 
L 280.431074 -106.752381 
L 277.151736 -108.536913 
L 273.872397 -110.34765 
L 270.593058 -112.185372 
L 267.313719 -114.05088 
L 264.03438 -115.944992 
L 260.755041 -117.868541 
L 257.475702 -119.822374 
L 254.196364 -121.807347 
L 250.917025 -123.824322 
L 247.637686 -125.874164 
L 244.358347 -127.957734 
L 241.079008 -130.075882 
L 237.799669 -132.229443 
L 234.520331 -134.419222 
L 231.240992 -136.645993 
L 227.961653 -138.910479 
L 224.682314 -141.213348 
L 221.402975 -143.555192 
L 218.123636 -145.936515 
L 214.844298 -148.357719 
L 211.564959 -150.819079 
L 208.28562 -153.320731 
L 205.006281 -155.862644 
L 201.726942 -158.444597 
L 198.447603 -161.066156 
L 195.168264 -163.726645 
L 191.888926 -166.547177 
L 188.609587 -169.543324 
L 185.330248 -172.619773 
L 182.050909 -175.779814 
L 178.77157 -179.026711 
L 175.492231 -182.36364 
L 172.212893 -185.793619 
L 168.933554 -189.319415 
L 165.654215 -192.943428 
L 162.374876 -196.667548 
L 159.095537 -200.492974 
L 155.816198 -204.420012 
L 152.53686 -208.447819 
L 149.257521 -212.574128 
L 145.978182 -216.794932 
L 142.698843 -221.104145 
L 139.419504 -225.493254 
L 136.140165 -229.95097 
L 132.860826 -234.462906 
L 129.581488 -239.011299 
L 126.302149 -243.574818 
L 123.02281 -248.128468 
L 119.743471 -252.643636 
L 116.464132 -257.088295 
L 113.184793 -261.427387 
L 109.905455 -265.623396 
L 106.626116 -269.637113 
L 103.346777 -273.428562 
L 100.067438 -276.958083 
L 96.788099 -280.18751 
L 93.50876 -283.081387 
L 90.229421 -285.608175 
L 86.950083 -287.74137 
L 83.670744 -289.460465 
L 80.391405 -290.751705 
L 77.112066 -291.608574 
L 73.832727 -292.032 
z
" id="mebaee3fa79" style="stroke:#0000ff;stroke-opacity:0.05;"/>
    </defs>
    <g clip-path="url(#peb12b52f09)">
     <use style="fill:#0000ff;fill-opacity:0.05;stroke:#0000ff;stroke-opacity:0.05;" x="0" xlink:href="#mebaee3fa79" y="345.6"/>
    </g>
   </g>
   <g id="matplotlib.axis_1">
    <g id="xtick_1">
     <g id="line2d_1">
      <defs>
       <path d="M 0 0 
L 0 3.5 
" id="mfc2e6934f3" style="stroke:#000000;stroke-width:0.8;"/>
      </defs>
      <g>
       <use style="stroke:#000000;stroke-width:0.8;" x="72.193058" xlink:href="#mfc2e6934f3" y="307.584"/>
      </g>
     </g>
     <g id="text_1">
      <!-- 0.0 -->
      <defs>
       <path d="M 31.78125 66.40625 
Q 24.171875 66.40625 20.328125 58.90625 
Q 16.5 51.421875 16.5 36.375 
Q 16.5 21.390625 20.328125 13.890625 
Q 24.171875 6.390625 31.78125 6.390625 
Q 39.453125 6.390625 43.28125 13.890625 
Q 47.125 21.390625 47.125 36.375 
Q 47.125 51.421875 43.28125 58.90625 
Q 39.453125 66.40625 31.78125 66.40625 
z
M 31.78125 74.21875 
Q 44.046875 74.21875 50.515625 64.515625 
Q 56.984375 54.828125 56.984375 36.375 
Q 56.984375 17.96875 50.515625 8.265625 
Q 44.046875 -1.421875 31.78125 -1.421875 
Q 19.53125 -1.421875 13.0625 8.265625 
Q 6.59375 17.96875 6.59375 36.375 
Q 6.59375 54.828125 13.0625 64.515625 
Q 19.53125 74.21875 31.78125 74.21875 
z
" id="DejaVuSans-48"/>
       <path d="M 10.6875 12.40625 
L 21 12.40625 
L 21 0 
L 10.6875 0 
z
" id="DejaVuSans-46"/>
      </defs>
      <g transform="translate(64.241495 322.182437)scale(0.1 -0.1)">
       <use xlink:href="#DejaVuSans-48"/>
       <use x="63.623047" xlink:href="#DejaVuSans-46"/>
       <use x="95.410156" xlink:href="#DejaVuSans-48"/>
      </g>
     </g>
    </g>
    <g id="xtick_2">
     <g id="line2d_2">
      <g>
       <use style="stroke:#000000;stroke-width:0.8;" x="125.744437" xlink:href="#mfc2e6934f3" y="307.584"/>
      </g>
     </g>
     <g id="text_2">
      <!-- 0.2 -->
      <defs>
       <path d="M 19.1875 8.296875 
L 53.609375 8.296875 
L 53.609375 0 
L 7.328125 0 
L 7.328125 8.296875 
Q 12.9375 14.109375 22.625 23.890625 
Q 32.328125 33.6875 34.8125 36.53125 
Q 39.546875 41.84375 41.421875 45.53125 
Q 43.3125 49.21875 43.3125 52.78125 
Q 43.3125 58.59375 39.234375 62.25 
Q 35.15625 65.921875 28.609375 65.921875 
Q 23.96875 65.921875 18.8125 64.3125 
Q 13.671875 62.703125 7.8125 59.421875 
L 7.8125 69.390625 
Q 13.765625 71.78125 18.9375 73 
Q 24.125 74.21875 28.421875 74.21875 
Q 39.75 74.21875 46.484375 68.546875 
Q 53.21875 62.890625 53.21875 53.421875 
Q 53.21875 48.921875 51.53125 44.890625 
Q 49.859375 40.875 45.40625 35.40625 
Q 44.1875 33.984375 37.640625 27.21875 
Q 31.109375 20.453125 19.1875 8.296875 
z
" id="DejaVuSans-50"/>
      </defs>
      <g transform="translate(117.792874 322.182437)scale(0.1 -0.1)">
       <use xlink:href="#DejaVuSans-48"/>
       <use x="63.623047" xlink:href="#DejaVuSans-46"/>
       <use x="95.410156" xlink:href="#DejaVuSans-50"/>
      </g>
     </g>
    </g>
    <g id="xtick_3">
     <g id="line2d_3">
      <g>
       <use style="stroke:#000000;stroke-width:0.8;" x="179.295816" xlink:href="#mfc2e6934f3" y="307.584"/>
      </g>
     </g>
     <g id="text_3">
      <!-- 0.4 -->
      <defs>
       <path d="M 37.796875 64.3125 
L 12.890625 25.390625 
L 37.796875 25.390625 
z
M 35.203125 72.90625 
L 47.609375 72.90625 
L 47.609375 25.390625 
L 58.015625 25.390625 
L 58.015625 17.1875 
L 47.609375 17.1875 
L 47.609375 0 
L 37.796875 0 
L 37.796875 17.1875 
L 4.890625 17.1875 
L 4.890625 26.703125 
z
" id="DejaVuSans-52"/>
      </defs>
      <g transform="translate(171.344253 322.182437)scale(0.1 -0.1)">
       <use xlink:href="#DejaVuSans-48"/>
       <use x="63.623047" xlink:href="#DejaVuSans-46"/>
       <use x="95.410156" xlink:href="#DejaVuSans-52"/>
      </g>
     </g>
    </g>
    <g id="xtick_4">
     <g id="line2d_4">
      <g>
       <use style="stroke:#000000;stroke-width:0.8;" x="232.847195" xlink:href="#mfc2e6934f3" y="307.584"/>
      </g>
     </g>
     <g id="text_4">
      <!-- 0.6 -->
      <defs>
       <path d="M 33.015625 40.375 
Q 26.375 40.375 22.484375 35.828125 
Q 18.609375 31.296875 18.609375 23.390625 
Q 18.609375 15.53125 22.484375 10.953125 
Q 26.375 6.390625 33.015625 6.390625 
Q 39.65625 6.390625 43.53125 10.953125 
Q 47.40625 15.53125 47.40625 23.390625 
Q 47.40625 31.296875 43.53125 35.828125 
Q 39.65625 40.375 33.015625 40.375 
z
M 52.59375 71.296875 
L 52.59375 62.3125 
Q 48.875 64.0625 45.09375 64.984375 
Q 41.3125 65.921875 37.59375 65.921875 
Q 27.828125 65.921875 22.671875 59.328125 
Q 17.53125 52.734375 16.796875 39.40625 
Q 19.671875 43.65625 24.015625 45.921875 
Q 28.375 48.1875 33.59375 48.1875 
Q 44.578125 48.1875 50.953125 41.515625 
Q 57.328125 34.859375 57.328125 23.390625 
Q 57.328125 12.15625 50.6875 5.359375 
Q 44.046875 -1.421875 33.015625 -1.421875 
Q 20.359375 -1.421875 13.671875 8.265625 
Q 6.984375 17.96875 6.984375 36.375 
Q 6.984375 53.65625 15.1875 63.9375 
Q 23.390625 74.21875 37.203125 74.21875 
Q 40.921875 74.21875 44.703125 73.484375 
Q 48.484375 72.75 52.59375 71.296875 
z
" id="DejaVuSans-54"/>
      </defs>
      <g transform="translate(224.895633 322.182437)scale(0.1 -0.1)">
       <use xlink:href="#DejaVuSans-48"/>
       <use x="63.623047" xlink:href="#DejaVuSans-46"/>
       <use x="95.410156" xlink:href="#DejaVuSans-54"/>
      </g>
     </g>
    </g>
    <g id="xtick_5">
     <g id="line2d_5">
      <g>
       <use style="stroke:#000000;stroke-width:0.8;" x="286.398574" xlink:href="#mfc2e6934f3" y="307.584"/>
      </g>
     </g>
     <g id="text_5">
      <!-- 0.8 -->
      <defs>
       <path d="M 31.78125 34.625 
Q 24.75 34.625 20.71875 30.859375 
Q 16.703125 27.09375 16.703125 20.515625 
Q 16.703125 13.921875 20.71875 10.15625 
Q 24.75 6.390625 31.78125 6.390625 
Q 38.8125 6.390625 42.859375 10.171875 
Q 46.921875 13.96875 46.921875 20.515625 
Q 46.921875 27.09375 42.890625 30.859375 
Q 38.875 34.625 31.78125 34.625 
z
M 21.921875 38.8125 
Q 15.578125 40.375 12.03125 44.71875 
Q 8.5 49.078125 8.5 55.328125 
Q 8.5 64.0625 14.71875 69.140625 
Q 20.953125 74.21875 31.78125 74.21875 
Q 42.671875 74.21875 48.875 69.140625 
Q 55.078125 64.0625 55.078125 55.328125 
Q 55.078125 49.078125 51.53125 44.71875 
Q 48 40.375 41.703125 38.8125 
Q 48.828125 37.15625 52.796875 32.3125 
Q 56.78125 27.484375 56.78125 20.515625 
Q 56.78125 9.90625 50.3125 4.234375 
Q 43.84375 -1.421875 31.78125 -1.421875 
Q 19.734375 -1.421875 13.25 4.234375 
Q 6.78125 9.90625 6.78125 20.515625 
Q 6.78125 27.484375 10.78125 32.3125 
Q 14.796875 37.15625 21.921875 38.8125 
z
M 18.3125 54.390625 
Q 18.3125 48.734375 21.84375 45.5625 
Q 25.390625 42.390625 31.78125 42.390625 
Q 38.140625 42.390625 41.71875 45.5625 
Q 45.3125 48.734375 45.3125 54.390625 
Q 45.3125 60.0625 41.71875 63.234375 
Q 38.140625 66.40625 31.78125 66.40625 
Q 25.390625 66.40625 21.84375 63.234375 
Q 18.3125 60.0625 18.3125 54.390625 
z
" id="DejaVuSans-56"/>
      </defs>
      <g transform="translate(278.447012 322.182437)scale(0.1 -0.1)">
       <use xlink:href="#DejaVuSans-48"/>
       <use x="63.623047" xlink:href="#DejaVuSans-46"/>
       <use x="95.410156" xlink:href="#DejaVuSans-56"/>
      </g>
     </g>
    </g>
    <g id="xtick_6">
     <g id="line2d_6">
      <g>
       <use style="stroke:#000000;stroke-width:0.8;" x="339.949953" xlink:href="#mfc2e6934f3" y="307.584"/>
      </g>
     </g>
     <g id="text_6">
      <!-- 1.0 -->
      <defs>
       <path d="M 12.40625 8.296875 
L 28.515625 8.296875 
L 28.515625 63.921875 
L 10.984375 60.40625 
L 10.984375 69.390625 
L 28.421875 72.90625 
L 38.28125 72.90625 
L 38.28125 8.296875 
L 54.390625 8.296875 
L 54.390625 0 
L 12.40625 0 
z
" id="DejaVuSans-49"/>
      </defs>
      <g transform="translate(331.998391 322.182437)scale(0.1 -0.1)">
       <use xlink:href="#DejaVuSans-49"/>
       <use x="63.623047" xlink:href="#DejaVuSans-46"/>
       <use x="95.410156" xlink:href="#DejaVuSans-48"/>
      </g>
     </g>
    </g>
    <g id="xtick_7">
     <g id="line2d_7">
      <g>
       <use style="stroke:#000000;stroke-width:0.8;" x="393.501332" xlink:href="#mfc2e6934f3" y="307.584"/>
      </g>
     </g>
     <g id="text_7">
      <!-- 1.2 -->
      <g transform="translate(385.54977 322.182437)scale(0.1 -0.1)">
       <use xlink:href="#DejaVuSans-49"/>
       <use x="63.623047" xlink:href="#DejaVuSans-46"/>
       <use x="95.410156" xlink:href="#DejaVuSans-50"/>
      </g>
     </g>
    </g>
    <g id="text_8">
     <!-- rho [m] -->
     <defs>
      <path d="M 41.109375 46.296875 
Q 39.59375 47.171875 37.8125 47.578125 
Q 36.03125 48 33.890625 48 
Q 26.265625 48 22.1875 43.046875 
Q 18.109375 38.09375 18.109375 28.8125 
L 18.109375 0 
L 9.078125 0 
L 9.078125 54.6875 
L 18.109375 54.6875 
L 18.109375 46.1875 
Q 20.953125 51.171875 25.484375 53.578125 
Q 30.03125 56 36.53125 56 
Q 37.453125 56 38.578125 55.875 
Q 39.703125 55.765625 41.0625 55.515625 
z
" id="DejaVuSans-114"/>
      <path d="M 54.890625 33.015625 
L 54.890625 0 
L 45.90625 0 
L 45.90625 32.71875 
Q 45.90625 40.484375 42.875 44.328125 
Q 39.84375 48.1875 33.796875 48.1875 
Q 26.515625 48.1875 22.3125 43.546875 
Q 18.109375 38.921875 18.109375 30.90625 
L 18.109375 0 
L 9.078125 0 
L 9.078125 75.984375 
L 18.109375 75.984375 
L 18.109375 46.1875 
Q 21.34375 51.125 25.703125 53.5625 
Q 30.078125 56 35.796875 56 
Q 45.21875 56 50.046875 50.171875 
Q 54.890625 44.34375 54.890625 33.015625 
z
" id="DejaVuSans-104"/>
      <path d="M 30.609375 48.390625 
Q 23.390625 48.390625 19.1875 42.75 
Q 14.984375 37.109375 14.984375 27.296875 
Q 14.984375 17.484375 19.15625 11.84375 
Q 23.34375 6.203125 30.609375 6.203125 
Q 37.796875 6.203125 41.984375 11.859375 
Q 46.1875 17.53125 46.1875 27.296875 
Q 46.1875 37.015625 41.984375 42.703125 
Q 37.796875 48.390625 30.609375 48.390625 
z
M 30.609375 56 
Q 42.328125 56 49.015625 48.375 
Q 55.71875 40.765625 55.71875 27.296875 
Q 55.71875 13.875 49.015625 6.21875 
Q 42.328125 -1.421875 30.609375 -1.421875 
Q 18.84375 -1.421875 12.171875 6.21875 
Q 5.515625 13.875 5.515625 27.296875 
Q 5.515625 40.765625 12.171875 48.375 
Q 18.84375 56 30.609375 56 
z
" id="DejaVuSans-111"/>
      <path id="DejaVuSans-32"/>
      <path d="M 8.59375 75.984375 
L 29.296875 75.984375 
L 29.296875 69 
L 17.578125 69 
L 17.578125 -6.203125 
L 29.296875 -6.203125 
L 29.296875 -13.1875 
L 8.59375 -13.1875 
z
" id="DejaVuSans-91"/>
      <path d="M 52 44.1875 
Q 55.375 50.25 60.0625 53.125 
Q 64.75 56 71.09375 56 
Q 79.640625 56 84.28125 50.015625 
Q 88.921875 44.046875 88.921875 33.015625 
L 88.921875 0 
L 79.890625 0 
L 79.890625 32.71875 
Q 79.890625 40.578125 77.09375 44.375 
Q 74.3125 48.1875 68.609375 48.1875 
Q 61.625 48.1875 57.5625 43.546875 
Q 53.515625 38.921875 53.515625 30.90625 
L 53.515625 0 
L 44.484375 0 
L 44.484375 32.71875 
Q 44.484375 40.625 41.703125 44.40625 
Q 38.921875 48.1875 33.109375 48.1875 
Q 26.21875 48.1875 22.15625 43.53125 
Q 18.109375 38.875 18.109375 30.90625 
L 18.109375 0 
L 9.078125 0 
L 9.078125 54.6875 
L 18.109375 54.6875 
L 18.109375 46.1875 
Q 21.1875 51.21875 25.484375 53.609375 
Q 29.78125 56 35.6875 56 
Q 41.65625 56 45.828125 52.96875 
Q 50 49.953125 52 44.1875 
z
" id="DejaVuSans-109"/>
      <path d="M 30.421875 75.984375 
L 30.421875 -13.1875 
L 9.71875 -13.1875 
L 9.71875 -6.203125 
L 21.390625 -6.203125 
L 21.390625 69 
L 9.71875 69 
L 9.71875 75.984375 
z
" id="DejaVuSans-93"/>
     </defs>
     <g transform="translate(217.602969 335.860562)scale(0.1 -0.1)">
      <use xlink:href="#DejaVuSans-114"/>
      <use x="39.363281" xlink:href="#DejaVuSans-104"/>
      <use x="102.742188" xlink:href="#DejaVuSans-111"/>
      <use x="163.923828" xlink:href="#DejaVuSans-32"/>
      <use x="195.710938" xlink:href="#DejaVuSans-91"/>
      <use x="234.724609" xlink:href="#DejaVuSans-109"/>
      <use x="332.136719" xlink:href="#DejaVuSans-93"/>
     </g>
    </g>
   </g>
   <g id="matplotlib.axis_2">
    <g id="ytick_1">
     <g id="line2d_8">
      <defs>
       <path d="M 0 0 
L -3.5 0 
" id="m15b7993319" style="stroke:#000000;stroke-width:0.8;"/>
      </defs>
      <g>
       <use style="stroke:#000000;stroke-width:0.8;" x="57.6" xlink:href="#m15b7993319" y="301.5172"/>
      </g>
     </g>
     <g id="text_9">
      <!-- 0 -->
      <g transform="translate(44.2375 305.316419)scale(0.1 -0.1)">
       <use xlink:href="#DejaVuSans-48"/>
      </g>
     </g>
    </g>
    <g id="ytick_2">
     <g id="line2d_9">
      <g>
       <use style="stroke:#000000;stroke-width:0.8;" x="57.6" xlink:href="#m15b7993319" y="268.564664"/>
      </g>
     </g>
     <g id="text_10">
      <!-- 500 -->
      <defs>
       <path d="M 10.796875 72.90625 
L 49.515625 72.90625 
L 49.515625 64.59375 
L 19.828125 64.59375 
L 19.828125 46.734375 
Q 21.96875 47.46875 24.109375 47.828125 
Q 26.265625 48.1875 28.421875 48.1875 
Q 40.625 48.1875 47.75 41.5 
Q 54.890625 34.8125 54.890625 23.390625 
Q 54.890625 11.625 47.5625 5.09375 
Q 40.234375 -1.421875 26.90625 -1.421875 
Q 22.3125 -1.421875 17.546875 -0.640625 
Q 12.796875 0.140625 7.71875 1.703125 
L 7.71875 11.625 
Q 12.109375 9.234375 16.796875 8.0625 
Q 21.484375 6.890625 26.703125 6.890625 
Q 35.15625 6.890625 40.078125 11.328125 
Q 45.015625 15.765625 45.015625 23.390625 
Q 45.015625 31 40.078125 35.4375 
Q 35.15625 39.890625 26.703125 39.890625 
Q 22.75 39.890625 18.8125 39.015625 
Q 14.890625 38.140625 10.796875 36.28125 
z
" id="DejaVuSans-53"/>
      </defs>
      <g transform="translate(31.5125 272.363882)scale(0.1 -0.1)">
       <use xlink:href="#DejaVuSans-53"/>
       <use x="63.623047" xlink:href="#DejaVuSans-48"/>
       <use x="127.246094" xlink:href="#DejaVuSans-48"/>
      </g>
     </g>
    </g>
    <g id="ytick_3">
     <g id="line2d_10">
      <g>
       <use style="stroke:#000000;stroke-width:0.8;" x="57.6" xlink:href="#m15b7993319" y="235.612127"/>
      </g>
     </g>
     <g id="text_11">
      <!-- 1000 -->
      <g transform="translate(25.15 239.411346)scale(0.1 -0.1)">
       <use xlink:href="#DejaVuSans-49"/>
       <use x="63.623047" xlink:href="#DejaVuSans-48"/>
       <use x="127.246094" xlink:href="#DejaVuSans-48"/>
       <use x="190.869141" xlink:href="#DejaVuSans-48"/>
      </g>
     </g>
    </g>
    <g id="ytick_4">
     <g id="line2d_11">
      <g>
       <use style="stroke:#000000;stroke-width:0.8;" x="57.6" xlink:href="#m15b7993319" y="202.65959"/>
      </g>
     </g>
     <g id="text_12">
      <!-- 1500 -->
      <g transform="translate(25.15 206.458809)scale(0.1 -0.1)">
       <use xlink:href="#DejaVuSans-49"/>
       <use x="63.623047" xlink:href="#DejaVuSans-53"/>
       <use x="127.246094" xlink:href="#DejaVuSans-48"/>
       <use x="190.869141" xlink:href="#DejaVuSans-48"/>
      </g>
     </g>
    </g>
    <g id="ytick_5">
     <g id="line2d_12">
      <g>
       <use style="stroke:#000000;stroke-width:0.8;" x="57.6" xlink:href="#m15b7993319" y="169.707053"/>
      </g>
     </g>
     <g id="text_13">
      <!-- 2000 -->
      <g transform="translate(25.15 173.506272)scale(0.1 -0.1)">
       <use xlink:href="#DejaVuSans-50"/>
       <use x="63.623047" xlink:href="#DejaVuSans-48"/>
       <use x="127.246094" xlink:href="#DejaVuSans-48"/>
       <use x="190.869141" xlink:href="#DejaVuSans-48"/>
      </g>
     </g>
    </g>
    <g id="ytick_6">
     <g id="line2d_13">
      <g>
       <use style="stroke:#000000;stroke-width:0.8;" x="57.6" xlink:href="#m15b7993319" y="136.754516"/>
      </g>
     </g>
     <g id="text_14">
      <!-- 2500 -->
      <g transform="translate(25.15 140.553735)scale(0.1 -0.1)">
       <use xlink:href="#DejaVuSans-50"/>
       <use x="63.623047" xlink:href="#DejaVuSans-53"/>
       <use x="127.246094" xlink:href="#DejaVuSans-48"/>
       <use x="190.869141" xlink:href="#DejaVuSans-48"/>
      </g>
     </g>
    </g>
    <g id="ytick_7">
     <g id="line2d_14">
      <g>
       <use style="stroke:#000000;stroke-width:0.8;" x="57.6" xlink:href="#m15b7993319" y="103.80198"/>
      </g>
     </g>
     <g id="text_15">
      <!-- 3000 -->
      <defs>
       <path d="M 40.578125 39.3125 
Q 47.65625 37.796875 51.625 33 
Q 55.609375 28.21875 55.609375 21.1875 
Q 55.609375 10.40625 48.1875 4.484375 
Q 40.765625 -1.421875 27.09375 -1.421875 
Q 22.515625 -1.421875 17.65625 -0.515625 
Q 12.796875 0.390625 7.625 2.203125 
L 7.625 11.71875 
Q 11.71875 9.328125 16.59375 8.109375 
Q 21.484375 6.890625 26.8125 6.890625 
Q 36.078125 6.890625 40.9375 10.546875 
Q 45.796875 14.203125 45.796875 21.1875 
Q 45.796875 27.640625 41.28125 31.265625 
Q 36.765625 34.90625 28.71875 34.90625 
L 20.21875 34.90625 
L 20.21875 43.015625 
L 29.109375 43.015625 
Q 36.375 43.015625 40.234375 45.921875 
Q 44.09375 48.828125 44.09375 54.296875 
Q 44.09375 59.90625 40.109375 62.90625 
Q 36.140625 65.921875 28.71875 65.921875 
Q 24.65625 65.921875 20.015625 65.03125 
Q 15.375 64.15625 9.8125 62.3125 
L 9.8125 71.09375 
Q 15.4375 72.65625 20.34375 73.4375 
Q 25.25 74.21875 29.59375 74.21875 
Q 40.828125 74.21875 47.359375 69.109375 
Q 53.90625 64.015625 53.90625 55.328125 
Q 53.90625 49.265625 50.4375 45.09375 
Q 46.96875 40.921875 40.578125 39.3125 
z
" id="DejaVuSans-51"/>
      </defs>
      <g transform="translate(25.15 107.601198)scale(0.1 -0.1)">
       <use xlink:href="#DejaVuSans-51"/>
       <use x="63.623047" xlink:href="#DejaVuSans-48"/>
       <use x="127.246094" xlink:href="#DejaVuSans-48"/>
       <use x="190.869141" xlink:href="#DejaVuSans-48"/>
      </g>
     </g>
    </g>
    <g id="ytick_8">
     <g id="line2d_15">
      <g>
       <use style="stroke:#000000;stroke-width:0.8;" x="57.6" xlink:href="#m15b7993319" y="70.849443"/>
      </g>
     </g>
     <g id="text_16">
      <!-- 3500 -->
      <g transform="translate(25.15 74.648662)scale(0.1 -0.1)">
       <use xlink:href="#DejaVuSans-51"/>
       <use x="63.623047" xlink:href="#DejaVuSans-53"/>
       <use x="127.246094" xlink:href="#DejaVuSans-48"/>
       <use x="190.869141" xlink:href="#DejaVuSans-48"/>
      </g>
     </g>
    </g>
    <g id="text_17">
     <!-- Te [eV] -->
     <defs>
      <path d="M -0.296875 72.90625 
L 61.375 72.90625 
L 61.375 64.59375 
L 35.5 64.59375 
L 35.5 0 
L 25.59375 0 
L 25.59375 64.59375 
L -0.296875 64.59375 
z
" id="DejaVuSans-84"/>
      <path d="M 56.203125 29.59375 
L 56.203125 25.203125 
L 14.890625 25.203125 
Q 15.484375 15.921875 20.484375 11.0625 
Q 25.484375 6.203125 34.421875 6.203125 
Q 39.59375 6.203125 44.453125 7.46875 
Q 49.3125 8.734375 54.109375 11.28125 
L 54.109375 2.78125 
Q 49.265625 0.734375 44.1875 -0.34375 
Q 39.109375 -1.421875 33.890625 -1.421875 
Q 20.796875 -1.421875 13.15625 6.1875 
Q 5.515625 13.8125 5.515625 26.8125 
Q 5.515625 40.234375 12.765625 48.109375 
Q 20.015625 56 32.328125 56 
Q 43.359375 56 49.78125 48.890625 
Q 56.203125 41.796875 56.203125 29.59375 
z
M 47.21875 32.234375 
Q 47.125 39.59375 43.09375 43.984375 
Q 39.0625 48.390625 32.421875 48.390625 
Q 24.90625 48.390625 20.390625 44.140625 
Q 15.875 39.890625 15.1875 32.171875 
z
" id="DejaVuSans-101"/>
      <path d="M 28.609375 0 
L 0.78125 72.90625 
L 11.078125 72.90625 
L 34.1875 11.53125 
L 57.328125 72.90625 
L 67.578125 72.90625 
L 39.796875 0 
z
" id="DejaVuSans-86"/>
     </defs>
     <g transform="translate(19.070312 191.795969)rotate(-90)scale(0.1 -0.1)">
      <use xlink:href="#DejaVuSans-84"/>
      <use x="44.083984" xlink:href="#DejaVuSans-101"/>
      <use x="105.607422" xlink:href="#DejaVuSans-32"/>
      <use x="137.394531" xlink:href="#DejaVuSans-91"/>
      <use x="176.408203" xlink:href="#DejaVuSans-101"/>
      <use x="237.931641" xlink:href="#DejaVuSans-86"/>
      <use x="306.339844" xlink:href="#DejaVuSans-93"/>
     </g>
    </g>
   </g>
   <g id="line2d_16">
    <path clip-path="url(#peb12b52f09)" d="M 73.832727 181.670984 
L 77.112066 181.732781 
L 80.391405 181.859423 
L 83.670744 182.053192 
L 86.950083 182.315911 
L 90.229421 182.64891 
L 93.50876 183.053002 
L 96.788099 183.528469 
L 100.067438 184.075067 
L 103.346777 184.692036 
L 106.626116 185.378129 
L 109.905455 186.131644 
L 113.184793 186.950464 
L 116.464132 187.832109 
L 119.743471 188.773786 
L 123.02281 189.772438 
L 126.302149 190.824802 
L 129.581488 191.927462 
L 132.860826 193.076895 
L 136.140165 194.269522 
L 139.419504 195.501753 
L 142.698843 196.770021 
L 145.978182 198.070824 
L 149.257521 199.400752 
L 152.53686 200.756512 
L 155.816198 202.134952 
L 159.095537 203.533072 
L 162.374876 204.948045 
L 165.654215 206.377213 
L 168.933554 207.818101 
L 172.212893 209.268412 
L 175.492231 210.726023 
L 178.77157 212.188987 
L 182.050909 213.655518 
L 185.330248 215.123988 
L 188.609587 216.592915 
L 191.888926 218.060957 
L 195.168264 219.526895 
L 198.447603 220.989632 
L 201.726942 222.448176 
L 205.006281 223.901634 
L 208.28562 225.349205 
L 211.564959 226.790169 
L 214.844298 228.223883 
L 218.123636 229.649771 
L 221.402975 231.067322 
L 224.682314 232.476079 
L 227.961653 233.875641 
L 231.240992 235.265654 
L 234.520331 236.645805 
L 237.799669 238.015825 
L 241.079008 239.37548 
L 244.358347 240.724569 
L 247.637686 242.062922 
L 250.917025 243.3904 
L 254.196364 244.706886 
L 257.475702 246.012288 
L 260.755041 247.306537 
L 264.03438 248.589582 
L 267.313719 249.861392 
L 270.593058 251.121952 
L 273.872397 252.371261 
L 277.151736 253.609335 
L 280.431074 254.836201 
L 283.710413 256.051898 
L 286.989752 257.256476 
L 290.269091 258.449995 
L 293.54843 259.632525 
L 296.827769 260.804142 
L 300.107107 261.964933 
L 303.386446 263.114988 
L 306.665785 264.254405 
L 309.945124 265.383289 
L 313.224463 266.501747 
L 316.503802 267.609893 
L 319.78314 268.707844 
L 323.062479 269.795721 
L 326.341818 270.873646 
L 329.621157 271.941746 
L 332.900496 273.000149 
L 336.179835 274.048985 
L 339.459174 275.088387 
L 342.738512 276.118487 
L 346.017851 277.139419 
L 349.29719 278.151318 
L 352.576529 279.15432 
L 355.855868 280.14856 
L 359.135207 281.134179 
L 362.414545 282.111326 
L 365.693884 283.080169 
L 368.973223 284.040939 
L 372.252562 284.994027 
L 375.531901 285.940263 
L 378.81124 286.881644 
L 382.090579 287.823265 
L 385.369917 288.778168 
L 388.649256 289.778283 
L 391.928595 290.893013 
L 395.207934 292.241832 
L 398.487273 293.956101 
" style="fill:none;stroke:#0000ff;stroke-linecap:square;stroke-width:1.5;"/>
   </g>
   <g id="line2d_17">
    <path clip-path="url(#peb12b52f09)" d="M 73.832727 213.524858 
L 77.112066 213.534297 
L 80.391405 213.553338 
L 83.670744 213.582726 
L 86.950083 213.623743 
L 90.229421 213.678167 
L 93.50876 213.748217 
L 96.788099 213.836458 
L 100.067438 213.945701 
L 103.346777 214.078887 
L 106.626116 214.23897 
L 109.905455 214.428805 
L 113.184793 214.651052 
L 116.464132 214.908091 
L 119.743471 215.201961 
L 123.02281 215.534318 
L 126.302149 215.906415 
L 129.581488 216.319101 
L 132.860826 216.772831 
L 136.140165 217.267691 
L 139.419504 217.803436 
L 142.698843 218.379519 
L 145.978182 218.995136 
L 149.257521 219.649265 
L 152.53686 220.340695 
L 155.816198 221.068067 
L 159.095537 221.8299 
L 162.374876 222.624616 
L 165.654215 223.450567 
L 168.933554 224.306049 
L 172.212893 225.189328 
L 175.492231 226.098645 
L 178.77157 227.032241 
L 182.050909 227.988358 
L 185.330248 228.965259 
L 188.609587 229.961229 
L 191.888926 230.974589 
L 195.168264 232.003699 
L 198.447603 233.046963 
L 201.726942 234.102838 
L 205.006281 235.169831 
L 208.28562 236.246509 
L 211.564959 237.331495 
L 214.844298 238.423475 
L 218.123636 239.521195 
L 221.402975 240.623465 
L 224.682314 241.729158 
L 227.961653 242.837208 
L 231.240992 243.946616 
L 234.520331 245.056441 
L 237.799669 246.165805 
L 241.079008 247.273891 
L 244.358347 248.379938 
L 247.637686 249.483244 
L 250.917025 250.583163 
L 254.196364 251.679101 
L 257.475702 252.770513 
L 260.755041 253.856908 
L 264.03438 254.937837 
L 267.313719 256.012898 
L 270.593058 257.081729 
L 273.872397 258.144012 
L 277.151736 259.199461 
L 280.431074 260.24783 
L 283.710413 261.288903 
L 286.989752 262.322498 
L 290.269091 263.348459 
L 293.54843 264.36666 
L 296.827769 265.376999 
L 300.107107 266.379398 
L 303.386446 267.373801 
L 306.665785 268.360171 
L 309.945124 269.338494 
L 313.224463 270.30877 
L 316.503802 271.271018 
L 319.78314 272.225273 
L 323.062479 273.171584 
L 326.341818 274.110015 
L 329.621157 275.040643 
L 332.900496 275.963562 
L 336.179835 276.878875 
L 339.459174 277.786703 
L 342.738512 278.687182 
L 346.017851 279.580461 
L 349.29719 280.466711 
L 352.576529 281.346123 
L 355.855868 282.218912 
L 359.135207 283.085326 
L 362.414545 283.945656 
L 365.693884 284.800258 
L 368.973223 285.649598 
L 372.252562 286.49436 
L 375.531901 287.335714 
L 378.81124 288.176011 
L 382.090579 289.020584 
L 385.369917 289.882304 
L 388.649256 290.792036 
L 391.928595 291.817314 
L 395.207934 293.079039 
L 398.487273 294.727432 
" style="fill:none;stroke:#0000ff;stroke-dasharray:5.55,2.4;stroke-dashoffset:0;stroke-width:1.5;"/>
   </g>
   <g id="line2d_18">
    <path clip-path="url(#peb12b52f09)" d="M 73.832727 149.81711 
L 77.112066 149.931265 
L 80.391405 150.165509 
L 83.670744 150.523657 
L 86.950083 151.008079 
L 90.229421 151.619653 
L 93.50876 152.357787 
L 96.788099 153.22048 
L 100.067438 154.204433 
L 103.346777 155.305185 
L 106.626116 156.517289 
L 109.905455 157.834482 
L 113.184793 159.249876 
L 116.464132 160.756128 
L 119.743471 162.345611 
L 123.02281 164.010558 
L 126.302149 165.743189 
L 129.581488 167.535823 
L 132.860826 169.380959 
L 136.140165 171.271353 
L 139.419504 173.200069 
L 142.698843 175.160523 
L 145.978182 177.146512 
L 149.257521 179.152239 
L 152.53686 181.17233 
L 155.816198 183.201836 
L 159.095537 185.236245 
L 162.374876 187.271473 
L 165.654215 189.30386 
L 168.933554 191.330154 
L 172.212893 193.347496 
L 175.492231 195.353402 
L 178.77157 197.345733 
L 182.050909 199.322678 
L 185.330248 201.282717 
L 188.609587 203.224602 
L 191.888926 205.147324 
L 195.168264 207.050092 
L 198.447603 208.932301 
L 201.726942 210.793514 
L 205.006281 212.633437 
L 208.28562 214.451901 
L 211.564959 216.248843 
L 214.844298 218.024291 
L 218.123636 219.778348 
L 221.402975 221.511178 
L 224.682314 223.223001 
L 227.961653 224.914074 
L 231.240992 226.584691 
L 234.520331 228.235169 
L 237.799669 229.865845 
L 241.079008 231.477069 
L 244.358347 233.069199 
L 247.637686 234.642601 
L 250.917025 236.197637 
L 254.196364 237.734671 
L 257.475702 239.254063 
L 260.755041 240.756166 
L 264.03438 242.241327 
L 267.313719 243.709887 
L 270.593058 245.162174 
L 273.872397 246.598511 
L 277.151736 248.019209 
L 280.431074 249.424572 
L 283.710413 250.814892 
L 286.989752 252.190454 
L 290.269091 253.551531 
L 293.54843 254.898389 
L 296.827769 256.231285 
L 300.107107 257.550467 
L 303.386446 258.856174 
L 306.665785 260.148639 
L 309.945124 261.428083 
L 313.224463 262.694724 
L 316.503802 263.948768 
L 319.78314 265.190415 
L 323.062479 266.419857 
L 326.341818 267.637276 
L 329.621157 268.842848 
L 332.900496 270.036736 
L 336.179835 271.219096 
L 339.459174 272.390071 
L 342.738512 273.549793 
L 346.017851 274.698378 
L 349.29719 275.835925 
L 352.576529 276.962516 
L 355.855868 278.078208 
L 359.135207 279.183033 
L 362.414545 280.276995 
L 365.693884 281.360079 
L 368.973223 282.432279 
L 372.252562 283.493694 
L 375.531901 284.544811 
L 378.81124 285.587276 
L 382.090579 286.625946 
L 385.369917 287.674033 
L 388.649256 288.76453 
L 391.928595 289.968711 
L 395.207934 291.404625 
L 398.487273 293.18477 
" style="fill:none;stroke:#0000ff;stroke-dasharray:5.55,2.4;stroke-dashoffset:0;stroke-width:1.5;"/>
   </g>
   <g id="line2d_19">
    <path clip-path="url(#peb12b52f09)" d="M 73.832727 217.804197 
L 77.112066 217.830447 
L 80.391405 217.884143 
L 83.670744 217.96605 
L 86.950083 218.076631 
L 90.229421 218.216042 
L 93.50876 218.368721 
L 96.788099 218.553095 
L 100.067438 218.801602 
L 103.346777 219.06754 
L 106.626116 219.378898 
L 109.905455 219.671501 
L 113.184793 219.998807 
L 116.464132 220.363238 
L 119.743471 220.706906 
L 123.02281 221.088938 
L 126.302149 221.504766 
L 129.581488 221.955854 
L 132.860826 222.410209 
L 136.140165 222.944862 
L 139.419504 223.481674 
L 142.698843 224.025748 
L 145.978182 224.609653 
L 149.257521 225.181811 
L 152.53686 225.766181 
L 155.816198 226.366977 
L 159.095537 227.011048 
L 162.374876 227.643039 
L 165.654215 228.337138 
L 168.933554 229.04828 
L 172.212893 229.762238 
L 175.492231 230.481739 
L 178.77157 231.227257 
L 182.050909 232.017172 
L 185.330248 232.809924 
L 188.609587 233.67164 
L 191.888926 234.479443 
L 195.168264 235.355502 
L 198.447603 236.217654 
L 201.726942 237.141627 
L 205.006281 238.06441 
L 208.28562 238.991761 
L 211.564959 239.919761 
L 214.844298 240.889357 
L 218.123636 241.920338 
L 221.402975 242.92338 
L 224.682314 243.894606 
L 227.961653 244.925502 
L 231.240992 245.947254 
L 234.520331 246.977914 
L 237.799669 248.042588 
L 241.079008 249.090168 
L 244.358347 250.137253 
L 247.637686 251.193907 
L 250.917025 252.230291 
L 254.196364 253.284524 
L 257.475702 254.338288 
L 260.755041 255.404695 
L 264.03438 256.430748 
L 267.313719 257.476957 
L 270.593058 258.4998 
L 273.872397 259.509787 
L 277.151736 260.534927 
L 280.431074 261.54277 
L 283.710413 262.542241 
L 286.989752 263.526003 
L 290.269091 264.521962 
L 293.54843 265.50986 
L 296.827769 266.49975 
L 300.107107 267.467508 
L 303.386446 268.421613 
L 306.665785 269.364521 
L 309.945124 270.306947 
L 313.224463 271.242108 
L 316.503802 272.170002 
L 319.78314 273.089589 
L 323.062479 273.999477 
L 326.341818 274.905162 
L 329.621157 275.821135 
L 332.900496 276.716168 
L 336.179835 277.596219 
L 339.459174 278.471826 
L 342.738512 279.341159 
L 346.017851 280.20733 
L 349.29719 281.070997 
L 352.576529 281.924377 
L 355.855868 282.775152 
L 359.135207 283.616198 
L 362.414545 284.449692 
L 365.693884 285.27658 
L 368.973223 286.100637 
L 372.252562 286.919418 
L 375.531901 287.74922 
L 378.81124 288.567684 
L 382.090579 289.392541 
L 385.369917 290.22859 
L 388.649256 291.114205 
L 391.928595 292.124748 
L 395.207934 293.374287 
L 398.487273 295.012967 
" style="fill:none;stroke:#0000ff;stroke-dasharray:1.5,2.475;stroke-dashoffset:0;stroke-width:1.5;"/>
   </g>
   <g id="line2d_20">
    <path clip-path="url(#peb12b52f09)" d="M 73.832727 136.897465 
L 77.112066 136.98466 
L 80.391405 137.245495 
L 83.670744 137.772342 
L 86.950083 138.372635 
L 90.229421 139.15382 
L 93.50876 140.060432 
L 96.788099 141.274759 
L 100.067438 142.33846 
L 103.346777 143.729969 
L 106.626116 145.252761 
L 109.905455 146.757568 
L 113.184793 148.376588 
L 116.464132 150.305143 
L 119.743471 152.165086 
L 123.02281 153.991168 
L 126.302149 155.990101 
L 129.581488 158.14344 
L 132.860826 160.292644 
L 136.140165 162.466674 
L 139.419504 164.698691 
L 142.698843 166.878316 
L 145.978182 169.120433 
L 149.257521 171.395182 
L 152.53686 173.622203 
L 155.816198 175.987626 
L 159.095537 178.350539 
L 162.374876 180.476974 
L 165.654215 182.807527 
L 168.933554 185.074245 
L 172.212893 187.238243 
L 175.492231 189.493838 
L 178.77157 191.663127 
L 182.050909 193.864436 
L 185.330248 196.020822 
L 188.609587 198.104545 
L 191.888926 200.185279 
L 195.168264 202.294974 
L 198.447603 204.372708 
L 201.726942 206.326437 
L 205.006281 208.318888 
L 208.28562 210.296407 
L 211.564959 212.206271 
L 214.844298 214.062552 
L 218.123636 215.952048 
L 221.402975 217.765452 
L 224.682314 219.603358 
L 227.961653 221.410805 
L 231.240992 223.151426 
L 234.520331 224.893488 
L 237.799669 226.601854 
L 241.079008 228.293413 
L 244.358347 230.010779 
L 247.637686 231.684667 
L 250.917025 233.315917 
L 254.196364 234.937586 
L 257.475702 236.508482 
L 260.755041 238.08451 
L 264.03438 239.671947 
L 267.313719 241.180267 
L 270.593058 242.711779 
L 273.872397 244.196057 
L 277.151736 245.671837 
L 280.431074 247.141537 
L 283.710413 248.602316 
L 286.989752 250.04595 
L 290.269091 251.497659 
L 293.54843 252.909254 
L 296.827769 254.299681 
L 300.107107 255.679515 
L 303.386446 257.044912 
L 306.665785 258.40225 
L 309.945124 259.751796 
L 313.224463 261.0874 
L 316.503802 262.405966 
L 319.78314 263.717758 
L 323.062479 265.001343 
L 326.341818 266.278872 
L 329.621157 267.543465 
L 332.900496 268.804969 
L 336.179835 270.030477 
L 339.459174 271.264112 
L 342.738512 272.478073 
L 346.017851 273.691791 
L 349.29719 274.87543 
L 352.576529 276.0704 
L 355.855868 277.253275 
L 359.135207 278.413846 
L 362.414545 279.568322 
L 365.693884 280.698883 
L 368.973223 281.828406 
L 372.252562 282.942091 
L 375.531901 284.034589 
L 378.81124 285.119368 
L 382.090579 286.199899 
L 385.369917 287.292849 
L 388.649256 288.424512 
L 391.928595 289.664683 
L 395.207934 291.137306 
L 398.487273 292.904084 
" style="fill:none;stroke:#0000ff;stroke-dasharray:1.5,2.475;stroke-dashoffset:0;stroke-width:1.5;"/>
   </g>
   <g id="patch_3">
    <path d="M 57.6 307.584 
L 57.6 41.472 
" style="fill:none;stroke:#000000;stroke-linecap:square;stroke-linejoin:miter;stroke-width:0.8;"/>
   </g>
   <g id="patch_4">
    <path d="M 414.72 307.584 
L 414.72 41.472 
" style="fill:none;stroke:#000000;stroke-linecap:square;stroke-linejoin:miter;stroke-width:0.8;"/>
   </g>
   <g id="patch_5">
    <path d="M 57.6 307.584 
L 414.72 307.584 
" style="fill:none;stroke:#000000;stroke-linecap:square;stroke-linejoin:miter;stroke-width:0.8;"/>
   </g>
   <g id="patch_6">
    <path d="M 57.6 41.472 
L 414.72 41.472 
" style="fill:none;stroke:#000000;stroke-linecap:square;stroke-linejoin:miter;stroke-width:0.8;"/>
   </g>
   <g id="text_18">
    <!-- /Users/dpc/src/EasyVVUQ/fusion/fusion_pce.4y92ftid -->
    <defs>
     <path d="M 25.390625 72.90625 
L 33.6875 72.90625 
L 8.296875 -9.28125 
L 0 -9.28125 
z
" id="DejaVuSans-47"/>
     <path d="M 8.6875 72.90625 
L 18.609375 72.90625 
L 18.609375 28.609375 
Q 18.609375 16.890625 22.84375 11.734375 
Q 27.09375 6.59375 36.625 6.59375 
Q 46.09375 6.59375 50.34375 11.734375 
Q 54.59375 16.890625 54.59375 28.609375 
L 54.59375 72.90625 
L 64.5 72.90625 
L 64.5 27.390625 
Q 64.5 13.140625 57.4375 5.859375 
Q 50.390625 -1.421875 36.625 -1.421875 
Q 22.796875 -1.421875 15.734375 5.859375 
Q 8.6875 13.140625 8.6875 27.390625 
z
" id="DejaVuSans-85"/>
     <path d="M 44.28125 53.078125 
L 44.28125 44.578125 
Q 40.484375 46.53125 36.375 47.5 
Q 32.28125 48.484375 27.875 48.484375 
Q 21.1875 48.484375 17.84375 46.4375 
Q 14.5 44.390625 14.5 40.28125 
Q 14.5 37.15625 16.890625 35.375 
Q 19.28125 33.59375 26.515625 31.984375 
L 29.59375 31.296875 
Q 39.15625 29.25 43.1875 25.515625 
Q 47.21875 21.78125 47.21875 15.09375 
Q 47.21875 7.46875 41.1875 3.015625 
Q 35.15625 -1.421875 24.609375 -1.421875 
Q 20.21875 -1.421875 15.453125 -0.5625 
Q 10.6875 0.296875 5.421875 2 
L 5.421875 11.28125 
Q 10.40625 8.6875 15.234375 7.390625 
Q 20.0625 6.109375 24.8125 6.109375 
Q 31.15625 6.109375 34.5625 8.28125 
Q 37.984375 10.453125 37.984375 14.40625 
Q 37.984375 18.0625 35.515625 20.015625 
Q 33.0625 21.96875 24.703125 23.78125 
L 21.578125 24.515625 
Q 13.234375 26.265625 9.515625 29.90625 
Q 5.8125 33.546875 5.8125 39.890625 
Q 5.8125 47.609375 11.28125 51.796875 
Q 16.75 56 26.8125 56 
Q 31.78125 56 36.171875 55.265625 
Q 40.578125 54.546875 44.28125 53.078125 
z
" id="DejaVuSans-115"/>
     <path d="M 45.40625 46.390625 
L 45.40625 75.984375 
L 54.390625 75.984375 
L 54.390625 0 
L 45.40625 0 
L 45.40625 8.203125 
Q 42.578125 3.328125 38.25 0.953125 
Q 33.9375 -1.421875 27.875 -1.421875 
Q 17.96875 -1.421875 11.734375 6.484375 
Q 5.515625 14.40625 5.515625 27.296875 
Q 5.515625 40.1875 11.734375 48.09375 
Q 17.96875 56 27.875 56 
Q 33.9375 56 38.25 53.625 
Q 42.578125 51.265625 45.40625 46.390625 
z
M 14.796875 27.296875 
Q 14.796875 17.390625 18.875 11.75 
Q 22.953125 6.109375 30.078125 6.109375 
Q 37.203125 6.109375 41.296875 11.75 
Q 45.40625 17.390625 45.40625 27.296875 
Q 45.40625 37.203125 41.296875 42.84375 
Q 37.203125 48.484375 30.078125 48.484375 
Q 22.953125 48.484375 18.875 42.84375 
Q 14.796875 37.203125 14.796875 27.296875 
z
" id="DejaVuSans-100"/>
     <path d="M 18.109375 8.203125 
L 18.109375 -20.796875 
L 9.078125 -20.796875 
L 9.078125 54.6875 
L 18.109375 54.6875 
L 18.109375 46.390625 
Q 20.953125 51.265625 25.265625 53.625 
Q 29.59375 56 35.59375 56 
Q 45.5625 56 51.78125 48.09375 
Q 58.015625 40.1875 58.015625 27.296875 
Q 58.015625 14.40625 51.78125 6.484375 
Q 45.5625 -1.421875 35.59375 -1.421875 
Q 29.59375 -1.421875 25.265625 0.953125 
Q 20.953125 3.328125 18.109375 8.203125 
z
M 48.6875 27.296875 
Q 48.6875 37.203125 44.609375 42.84375 
Q 40.53125 48.484375 33.40625 48.484375 
Q 26.265625 48.484375 22.1875 42.84375 
Q 18.109375 37.203125 18.109375 27.296875 
Q 18.109375 17.390625 22.1875 11.75 
Q 26.265625 6.109375 33.40625 6.109375 
Q 40.53125 6.109375 44.609375 11.75 
Q 48.6875 17.390625 48.6875 27.296875 
z
" id="DejaVuSans-112"/>
     <path d="M 48.78125 52.59375 
L 48.78125 44.1875 
Q 44.96875 46.296875 41.140625 47.34375 
Q 37.3125 48.390625 33.40625 48.390625 
Q 24.65625 48.390625 19.8125 42.84375 
Q 14.984375 37.3125 14.984375 27.296875 
Q 14.984375 17.28125 19.8125 11.734375 
Q 24.65625 6.203125 33.40625 6.203125 
Q 37.3125 6.203125 41.140625 7.25 
Q 44.96875 8.296875 48.78125 10.40625 
L 48.78125 2.09375 
Q 45.015625 0.34375 40.984375 -0.53125 
Q 36.96875 -1.421875 32.421875 -1.421875 
Q 20.0625 -1.421875 12.78125 6.34375 
Q 5.515625 14.109375 5.515625 27.296875 
Q 5.515625 40.671875 12.859375 48.328125 
Q 20.21875 56 33.015625 56 
Q 37.15625 56 41.109375 55.140625 
Q 45.0625 54.296875 48.78125 52.59375 
z
" id="DejaVuSans-99"/>
     <path d="M 9.8125 72.90625 
L 55.90625 72.90625 
L 55.90625 64.59375 
L 19.671875 64.59375 
L 19.671875 43.015625 
L 54.390625 43.015625 
L 54.390625 34.71875 
L 19.671875 34.71875 
L 19.671875 8.296875 
L 56.78125 8.296875 
L 56.78125 0 
L 9.8125 0 
z
" id="DejaVuSans-69"/>
     <path d="M 34.28125 27.484375 
Q 23.390625 27.484375 19.1875 25 
Q 14.984375 22.515625 14.984375 16.5 
Q 14.984375 11.71875 18.140625 8.90625 
Q 21.296875 6.109375 26.703125 6.109375 
Q 34.1875 6.109375 38.703125 11.40625 
Q 43.21875 16.703125 43.21875 25.484375 
L 43.21875 27.484375 
z
M 52.203125 31.203125 
L 52.203125 0 
L 43.21875 0 
L 43.21875 8.296875 
Q 40.140625 3.328125 35.546875 0.953125 
Q 30.953125 -1.421875 24.3125 -1.421875 
Q 15.921875 -1.421875 10.953125 3.296875 
Q 6 8.015625 6 15.921875 
Q 6 25.140625 12.171875 29.828125 
Q 18.359375 34.515625 30.609375 34.515625 
L 43.21875 34.515625 
L 43.21875 35.40625 
Q 43.21875 41.609375 39.140625 45 
Q 35.0625 48.390625 27.6875 48.390625 
Q 23 48.390625 18.546875 47.265625 
Q 14.109375 46.140625 10.015625 43.890625 
L 10.015625 52.203125 
Q 14.9375 54.109375 19.578125 55.046875 
Q 24.21875 56 28.609375 56 
Q 40.484375 56 46.34375 49.84375 
Q 52.203125 43.703125 52.203125 31.203125 
z
" id="DejaVuSans-97"/>
     <path d="M 32.171875 -5.078125 
Q 28.375 -14.84375 24.75 -17.8125 
Q 21.140625 -20.796875 15.09375 -20.796875 
L 7.90625 -20.796875 
L 7.90625 -13.28125 
L 13.1875 -13.28125 
Q 16.890625 -13.28125 18.9375 -11.515625 
Q 21 -9.765625 23.484375 -3.21875 
L 25.09375 0.875 
L 2.984375 54.6875 
L 12.5 54.6875 
L 29.59375 11.921875 
L 46.6875 54.6875 
L 56.203125 54.6875 
z
" id="DejaVuSans-121"/>
     <path d="M 39.40625 66.21875 
Q 28.65625 66.21875 22.328125 58.203125 
Q 16.015625 50.203125 16.015625 36.375 
Q 16.015625 22.609375 22.328125 14.59375 
Q 28.65625 6.59375 39.40625 6.59375 
Q 50.140625 6.59375 56.421875 14.59375 
Q 62.703125 22.609375 62.703125 36.375 
Q 62.703125 50.203125 56.421875 58.203125 
Q 50.140625 66.21875 39.40625 66.21875 
z
M 53.21875 1.3125 
L 66.21875 -12.890625 
L 54.296875 -12.890625 
L 43.5 -1.21875 
Q 41.890625 -1.3125 41.03125 -1.359375 
Q 40.1875 -1.421875 39.40625 -1.421875 
Q 24.03125 -1.421875 14.8125 8.859375 
Q 5.609375 19.140625 5.609375 36.375 
Q 5.609375 53.65625 14.8125 63.9375 
Q 24.03125 74.21875 39.40625 74.21875 
Q 54.734375 74.21875 63.90625 63.9375 
Q 73.09375 53.65625 73.09375 36.375 
Q 73.09375 23.6875 67.984375 14.640625 
Q 62.890625 5.609375 53.21875 1.3125 
z
" id="DejaVuSans-81"/>
     <path d="M 37.109375 75.984375 
L 37.109375 68.5 
L 28.515625 68.5 
Q 23.6875 68.5 21.796875 66.546875 
Q 19.921875 64.59375 19.921875 59.515625 
L 19.921875 54.6875 
L 34.71875 54.6875 
L 34.71875 47.703125 
L 19.921875 47.703125 
L 19.921875 0 
L 10.890625 0 
L 10.890625 47.703125 
L 2.296875 47.703125 
L 2.296875 54.6875 
L 10.890625 54.6875 
L 10.890625 58.5 
Q 10.890625 67.625 15.140625 71.796875 
Q 19.390625 75.984375 28.609375 75.984375 
z
" id="DejaVuSans-102"/>
     <path d="M 8.5 21.578125 
L 8.5 54.6875 
L 17.484375 54.6875 
L 17.484375 21.921875 
Q 17.484375 14.15625 20.5 10.265625 
Q 23.53125 6.390625 29.59375 6.390625 
Q 36.859375 6.390625 41.078125 11.03125 
Q 45.3125 15.671875 45.3125 23.6875 
L 45.3125 54.6875 
L 54.296875 54.6875 
L 54.296875 0 
L 45.3125 0 
L 45.3125 8.40625 
Q 42.046875 3.421875 37.71875 1 
Q 33.40625 -1.421875 27.6875 -1.421875 
Q 18.265625 -1.421875 13.375 4.4375 
Q 8.5 10.296875 8.5 21.578125 
z
M 31.109375 56 
z
" id="DejaVuSans-117"/>
     <path d="M 9.421875 54.6875 
L 18.40625 54.6875 
L 18.40625 0 
L 9.421875 0 
z
M 9.421875 75.984375 
L 18.40625 75.984375 
L 18.40625 64.59375 
L 9.421875 64.59375 
z
" id="DejaVuSans-105"/>
     <path d="M 54.890625 33.015625 
L 54.890625 0 
L 45.90625 0 
L 45.90625 32.71875 
Q 45.90625 40.484375 42.875 44.328125 
Q 39.84375 48.1875 33.796875 48.1875 
Q 26.515625 48.1875 22.3125 43.546875 
Q 18.109375 38.921875 18.109375 30.90625 
L 18.109375 0 
L 9.078125 0 
L 9.078125 54.6875 
L 18.109375 54.6875 
L 18.109375 46.1875 
Q 21.34375 51.125 25.703125 53.5625 
Q 30.078125 56 35.796875 56 
Q 45.21875 56 50.046875 50.171875 
Q 54.890625 44.34375 54.890625 33.015625 
z
" id="DejaVuSans-110"/>
     <path d="M 50.984375 -16.609375 
L 50.984375 -23.578125 
L -0.984375 -23.578125 
L -0.984375 -16.609375 
z
" id="DejaVuSans-95"/>
     <path d="M 10.984375 1.515625 
L 10.984375 10.5 
Q 14.703125 8.734375 18.5 7.8125 
Q 22.3125 6.890625 25.984375 6.890625 
Q 35.75 6.890625 40.890625 13.453125 
Q 46.046875 20.015625 46.78125 33.40625 
Q 43.953125 29.203125 39.59375 26.953125 
Q 35.25 24.703125 29.984375 24.703125 
Q 19.046875 24.703125 12.671875 31.3125 
Q 6.296875 37.9375 6.296875 49.421875 
Q 6.296875 60.640625 12.9375 67.421875 
Q 19.578125 74.21875 30.609375 74.21875 
Q 43.265625 74.21875 49.921875 64.515625 
Q 56.59375 54.828125 56.59375 36.375 
Q 56.59375 19.140625 48.40625 8.859375 
Q 40.234375 -1.421875 26.421875 -1.421875 
Q 22.703125 -1.421875 18.890625 -0.6875 
Q 15.09375 0.046875 10.984375 1.515625 
z
M 30.609375 32.421875 
Q 37.25 32.421875 41.125 36.953125 
Q 45.015625 41.5 45.015625 49.421875 
Q 45.015625 57.28125 41.125 61.84375 
Q 37.25 66.40625 30.609375 66.40625 
Q 23.96875 66.40625 20.09375 61.84375 
Q 16.21875 57.28125 16.21875 49.421875 
Q 16.21875 41.5 20.09375 36.953125 
Q 23.96875 32.421875 30.609375 32.421875 
z
" id="DejaVuSans-57"/>
     <path d="M 18.3125 70.21875 
L 18.3125 54.6875 
L 36.8125 54.6875 
L 36.8125 47.703125 
L 18.3125 47.703125 
L 18.3125 18.015625 
Q 18.3125 11.328125 20.140625 9.421875 
Q 21.96875 7.515625 27.59375 7.515625 
L 36.8125 7.515625 
L 36.8125 0 
L 27.59375 0 
Q 17.1875 0 13.234375 3.875 
Q 9.28125 7.765625 9.28125 18.015625 
L 9.28125 47.703125 
L 2.6875 47.703125 
L 2.6875 54.6875 
L 9.28125 54.6875 
L 9.28125 70.21875 
z
" id="DejaVuSans-116"/>
    </defs>
    <g transform="translate(79.182187 35.472)scale(0.12 -0.12)">
     <use xlink:href="#DejaVuSans-47"/>
     <use x="33.691406" xlink:href="#DejaVuSans-85"/>
     <use x="106.884766" xlink:href="#DejaVuSans-115"/>
     <use x="158.984375" xlink:href="#DejaVuSans-101"/>
     <use x="220.507812" xlink:href="#DejaVuSans-114"/>
     <use x="261.621094" xlink:href="#DejaVuSans-115"/>
     <use x="313.720703" xlink:href="#DejaVuSans-47"/>
     <use x="347.412109" xlink:href="#DejaVuSans-100"/>
     <use x="410.888672" xlink:href="#DejaVuSans-112"/>
     <use x="474.365234" xlink:href="#DejaVuSans-99"/>
     <use x="529.345703" xlink:href="#DejaVuSans-47"/>
     <use x="563.037109" xlink:href="#DejaVuSans-115"/>
     <use x="615.136719" xlink:href="#DejaVuSans-114"/>
     <use x="654" xlink:href="#DejaVuSans-99"/>
     <use x="708.980469" xlink:href="#DejaVuSans-47"/>
     <use x="742.671875" xlink:href="#DejaVuSans-69"/>
     <use x="805.855469" xlink:href="#DejaVuSans-97"/>
     <use x="867.134766" xlink:href="#DejaVuSans-115"/>
     <use x="919.234375" xlink:href="#DejaVuSans-121"/>
     <use x="978.414062" xlink:href="#DejaVuSans-86"/>
     <use x="1046.822266" xlink:href="#DejaVuSans-86"/>
     <use x="1115.230469" xlink:href="#DejaVuSans-85"/>
     <use x="1188.423828" xlink:href="#DejaVuSans-81"/>
     <use x="1267.134766" xlink:href="#DejaVuSans-47"/>
     <use x="1300.826172" xlink:href="#DejaVuSans-102"/>
     <use x="1336.03125" xlink:href="#DejaVuSans-117"/>
     <use x="1399.410156" xlink:href="#DejaVuSans-115"/>
     <use x="1451.509766" xlink:href="#DejaVuSans-105"/>
     <use x="1479.292969" xlink:href="#DejaVuSans-111"/>
     <use x="1540.474609" xlink:href="#DejaVuSans-110"/>
     <use x="1603.853516" xlink:href="#DejaVuSans-47"/>
     <use x="1637.544922" xlink:href="#DejaVuSans-102"/>
     <use x="1672.75" xlink:href="#DejaVuSans-117"/>
     <use x="1736.128906" xlink:href="#DejaVuSans-115"/>
     <use x="1788.228516" xlink:href="#DejaVuSans-105"/>
     <use x="1816.011719" xlink:href="#DejaVuSans-111"/>
     <use x="1877.193359" xlink:href="#DejaVuSans-110"/>
     <use x="1940.572266" xlink:href="#DejaVuSans-95"/>
     <use x="1990.572266" xlink:href="#DejaVuSans-112"/>
     <use x="2054.048828" xlink:href="#DejaVuSans-99"/>
     <use x="2109.029297" xlink:href="#DejaVuSans-101"/>
     <use x="2170.552734" xlink:href="#DejaVuSans-46"/>
     <use x="2202.339844" xlink:href="#DejaVuSans-52"/>
     <use x="2265.962891" xlink:href="#DejaVuSans-121"/>
     <use x="2325.142578" xlink:href="#DejaVuSans-57"/>
     <use x="2388.765625" xlink:href="#DejaVuSans-50"/>
     <use x="2452.388672" xlink:href="#DejaVuSans-102"/>
     <use x="2485.84375" xlink:href="#DejaVuSans-116"/>
     <use x="2525.052734" xlink:href="#DejaVuSans-105"/>
     <use x="2552.835938" xlink:href="#DejaVuSans-100"/>
    </g>
   </g>
   <g id="legend_1">
    <g id="patch_7">
     <path d="M 266.705938 93.506375 
L 407.72 93.506375 
Q 409.72 93.506375 409.72 91.506375 
L 409.72 48.472 
Q 409.72 46.472 407.72 46.472 
L 266.705938 46.472 
Q 264.705938 46.472 264.705938 48.472 
L 264.705938 91.506375 
Q 264.705938 93.506375 266.705938 93.506375 
z
" style="fill:#ffffff;opacity:0.8;stroke:#cccccc;stroke-linejoin:miter;"/>
    </g>
    <g id="line2d_21">
     <path d="M 268.705938 54.570438 
L 288.705938 54.570438 
" style="fill:none;stroke:#0000ff;stroke-linecap:square;stroke-width:1.5;"/>
    </g>
    <g id="line2d_22"/>
    <g id="text_19">
     <!-- Mean -->
     <defs>
      <path d="M 9.8125 72.90625 
L 24.515625 72.90625 
L 43.109375 23.296875 
L 61.8125 72.90625 
L 76.515625 72.90625 
L 76.515625 0 
L 66.890625 0 
L 66.890625 64.015625 
L 48.09375 14.015625 
L 38.1875 14.015625 
L 19.390625 64.015625 
L 19.390625 0 
L 9.8125 0 
z
" id="DejaVuSans-77"/>
     </defs>
     <g transform="translate(296.705938 58.070438)scale(0.1 -0.1)">
      <use xlink:href="#DejaVuSans-77"/>
      <use x="86.279297" xlink:href="#DejaVuSans-101"/>
      <use x="147.802734" xlink:href="#DejaVuSans-97"/>
      <use x="209.082031" xlink:href="#DejaVuSans-110"/>
     </g>
    </g>
    <g id="line2d_23">
     <path d="M 268.705938 69.248563 
L 288.705938 69.248563 
" style="fill:none;stroke:#0000ff;stroke-dasharray:5.55,2.4;stroke-dashoffset:0;stroke-width:1.5;"/>
    </g>
    <g id="line2d_24"/>
    <g id="text_20">
     <!-- +1 std deviation -->
     <defs>
      <path d="M 46 62.703125 
L 46 35.5 
L 73.1875 35.5 
L 73.1875 27.203125 
L 46 27.203125 
L 46 0 
L 37.796875 0 
L 37.796875 27.203125 
L 10.59375 27.203125 
L 10.59375 35.5 
L 37.796875 35.5 
L 37.796875 62.703125 
z
" id="DejaVuSans-43"/>
      <path d="M 2.984375 54.6875 
L 12.5 54.6875 
L 29.59375 8.796875 
L 46.6875 54.6875 
L 56.203125 54.6875 
L 35.6875 0 
L 23.484375 0 
z
" id="DejaVuSans-118"/>
     </defs>
     <g transform="translate(296.705938 72.748563)scale(0.1 -0.1)">
      <use xlink:href="#DejaVuSans-43"/>
      <use x="83.789062" xlink:href="#DejaVuSans-49"/>
      <use x="147.412109" xlink:href="#DejaVuSans-32"/>
      <use x="179.199219" xlink:href="#DejaVuSans-115"/>
      <use x="231.298828" xlink:href="#DejaVuSans-116"/>
      <use x="270.507812" xlink:href="#DejaVuSans-100"/>
      <use x="333.984375" xlink:href="#DejaVuSans-32"/>
      <use x="365.771484" xlink:href="#DejaVuSans-100"/>
      <use x="429.248047" xlink:href="#DejaVuSans-101"/>
      <use x="490.771484" xlink:href="#DejaVuSans-118"/>
      <use x="549.951172" xlink:href="#DejaVuSans-105"/>
      <use x="577.734375" xlink:href="#DejaVuSans-97"/>
      <use x="639.013672" xlink:href="#DejaVuSans-116"/>
      <use x="678.222656" xlink:href="#DejaVuSans-105"/>
      <use x="706.005859" xlink:href="#DejaVuSans-111"/>
      <use x="767.1875" xlink:href="#DejaVuSans-110"/>
     </g>
    </g>
    <g id="line2d_25">
     <path d="M 268.705938 83.926688 
L 288.705938 83.926688 
" style="fill:none;stroke:#0000ff;stroke-dasharray:1.5,2.475;stroke-dashoffset:0;stroke-width:1.5;"/>
    </g>
    <g id="line2d_26"/>
    <g id="text_21">
     <!-- 10 and 90 percentiles -->
     <defs>
      <path d="M 9.421875 75.984375 
L 18.40625 75.984375 
L 18.40625 0 
L 9.421875 0 
z
" id="DejaVuSans-108"/>
     </defs>
     <g transform="translate(296.705938 87.426688)scale(0.1 -0.1)">
      <use xlink:href="#DejaVuSans-49"/>
      <use x="63.623047" xlink:href="#DejaVuSans-48"/>
      <use x="127.246094" xlink:href="#DejaVuSans-32"/>
      <use x="159.033203" xlink:href="#DejaVuSans-97"/>
      <use x="220.3125" xlink:href="#DejaVuSans-110"/>
      <use x="283.691406" xlink:href="#DejaVuSans-100"/>
      <use x="347.167969" xlink:href="#DejaVuSans-32"/>
      <use x="378.955078" xlink:href="#DejaVuSans-57"/>
      <use x="442.578125" xlink:href="#DejaVuSans-48"/>
      <use x="506.201172" xlink:href="#DejaVuSans-32"/>
      <use x="537.988281" xlink:href="#DejaVuSans-112"/>
      <use x="601.464844" xlink:href="#DejaVuSans-101"/>
      <use x="662.988281" xlink:href="#DejaVuSans-114"/>
      <use x="701.851562" xlink:href="#DejaVuSans-99"/>
      <use x="756.832031" xlink:href="#DejaVuSans-101"/>
      <use x="818.355469" xlink:href="#DejaVuSans-110"/>
      <use x="881.734375" xlink:href="#DejaVuSans-116"/>
      <use x="920.943359" xlink:href="#DejaVuSans-105"/>
      <use x="948.726562" xlink:href="#DejaVuSans-108"/>
      <use x="976.509766" xlink:href="#DejaVuSans-101"/>
      <use x="1038.033203" xlink:href="#DejaVuSans-115"/>
     </g>
    </g>
   </g>
  </g>
 </g>
 <defs>
  <clipPath id="peb12b52f09">
   <rect height="266.112" width="357.12" x="57.6" y="41.472"/>
  </clipPath>
 </defs>
</svg>
